{"glyphs":{"0":{"ha":833,"x_min":65,"x_max":806,"o":"m 353 -14 q 137 68 208 -14 q 86 288 65 150 l 157 728 q 220 885 171 818 q 346 990 269 953 q 518 1028 422 1028 q 734 946 663 1028 q 785 728 806 864 l 714 288 q 651 128 700 196 q 525 24 601 61 q 353 -14 449 -14 m 374 115 q 506 163 451 115 q 571 288 560 210 l 642 728 q 615 851 654 804 q 499 899 576 899 q 365 851 419 899 q 300 728 311 804 l 229 288 q 256 163 217 210 q 374 115 296 115 m 435 421 q 372 446 396 421 q 347 511 347 471 q 372 574 347 550 q 435 599 396 599 q 499 574 475 599 q 522 511 522 550 q 499 446 522 471 q 435 421 475 421 z "},"1":{"ha":833,"x_min":60,"x_max":718,"o":"m 60 0 l 81 133 l 350 133 l 469 883 l 167 682 l 193 844 l 451 1014 l 640 1014 l 500 133 l 718 133 l 697 0 l 60 0 z "},"2":{"ha":833,"x_min":57,"x_max":799,"o":"m 57 0 l 81 142 l 469 496 q 580 617 542 563 q 626 725 618 672 q 601 849 638 804 q 489 894 565 894 q 360 848 413 894 q 294 721 307 801 l 144 721 q 212 884 161 815 q 339 990 263 953 q 511 1028 415 1028 q 726 948 654 1028 q 778 731 799 868 q 714 574 765 653 q 556 399 663 496 l 260 136 l 697 136 l 676 0 l 57 0 z "},"3":{"ha":833,"x_min":51,"x_max":788,"o":"m 340 -14 q 124 66 197 -14 q 74 278 51 146 l 224 278 q 248 159 211 201 q 363 117 285 117 q 492 160 442 117 q 554 278 542 204 l 565 350 q 541 470 578 428 q 425 513 504 513 l 311 513 l 332 638 l 599 882 l 213 882 l 233 1014 l 788 1014 l 765 883 l 499 640 q 676 549 618 626 q 715 351 735 472 l 704 278 q 585 65 683 143 q 340 -14 488 -14 z "},"4":{"ha":833,"x_min":61,"x_max":726,"o":"m 482 0 l 515 211 l 61 211 l 97 436 l 561 1014 l 726 1014 l 236 396 l 228 346 l 536 346 l 575 583 l 725 583 l 632 0 l 482 0 z "},"5":{"ha":833,"x_min":76,"x_max":789,"o":"m 350 -14 q 147 53 218 -14 q 83 235 76 121 l 233 235 q 266 149 231 179 q 372 118 301 118 q 500 160 453 118 q 560 281 547 203 l 575 379 q 553 498 586 456 q 442 540 521 540 q 351 517 392 540 q 289 454 311 493 l 140 454 l 236 1014 l 789 1014 l 768 878 l 358 878 l 304 563 l 308 563 q 382 639 329 611 q 510 667 435 667 q 689 591 632 667 q 725 379 746 515 l 710 281 q 592 65 688 144 q 350 -14 497 -14 z "},"6":{"ha":833,"x_min":56,"x_max":757,"o":"m 356 -14 q 185 28 254 -14 q 85 144 115 69 q 71 318 56 218 q 115 454 81 383 q 208 606 150 525 l 508 1014 l 674 1014 l 321 542 l 326 536 q 408 599 360 576 q 515 622 457 622 q 654 584 599 622 q 733 476 710 546 q 742 315 757 407 q 673 142 726 217 q 538 27 619 68 q 356 -14 456 -14 m 375 117 q 519 170 458 117 q 593 313 579 224 q 564 455 607 400 q 438 510 521 510 q 293 455 354 510 q 218 313 232 400 q 248 170 204 224 q 375 117 292 117 z "},"7":{"ha":833,"x_min":153,"x_max":865,"o":"m 181 0 l 685 878 l 329 878 l 303 715 l 153 715 l 201 1014 l 865 1014 l 843 876 l 347 0 l 181 0 z "},"8":{"ha":833,"x_min":50,"x_max":800,"o":"m 353 -14 q 183 20 253 -14 q 82 116 114 54 q 64 258 50 178 q 141 415 76 344 q 301 528 206 486 q 188 631 222 569 q 165 765 153 692 q 226 901 178 842 q 351 994 275 960 q 518 1029 426 1029 q 674 994 610 1029 q 769 901 739 960 q 788 765 800 842 q 576 528 763 614 q 702 414 661 485 q 731 258 743 343 q 665 115 717 176 q 533 20 614 54 q 353 -14 453 -14 m 413 597 l 447 583 l 483 596 q 588 663 544 619 q 640 758 631 706 q 610 860 650 821 q 497 900 571 900 q 372 860 424 900 q 311 758 321 819 q 331 663 301 706 q 413 597 360 619 m 374 115 q 516 160 457 115 q 586 275 575 204 q 566 377 594 331 q 481 447 538 424 l 429 469 l 371 446 q 263 376 306 422 q 211 275 219 329 q 247 160 201 204 q 374 115 292 115 z "},"9":{"ha":833,"x_min":118,"x_max":818,"o":"m 196 0 l 546 471 l 540 475 q 463 412 507 435 q 358 389 418 389 q 221 428 276 389 q 142 536 165 467 q 132 697 118 606 q 201 870 147 796 q 338 986 256 944 q 518 1028 419 1028 q 688 986 618 1028 q 788 870 757 944 q 803 699 818 796 q 758 560 793 632 q 667 410 724 489 l 372 0 l 196 0 m 436 503 q 581 557 519 503 q 656 700 642 611 q 626 844 669 789 q 500 899 583 899 q 356 844 417 899 q 281 700 294 789 q 310 557 267 611 q 436 503 353 503 z "},"A":{"ha":833,"x_min":-1,"x_max":714,"o":"m -1 0 l 418 1014 l 615 1014 l 714 0 l 565 0 l 546 257 l 258 257 l 156 0 l -1 0 m 306 382 l 536 382 l 513 674 q 503 808 506 751 q 500 888 500 865 q 473 808 493 865 q 422 675 453 751 l 306 382 z "},"Á":{"ha":833,"x_min":-1,"x_max":782,"o":"m -1 0 l 418 1014 l 615 1014 l 714 0 l 565 0 l 546 257 l 258 257 l 156 0 l -1 0 m 306 382 l 536 382 l 513 674 q 503 808 506 751 q 500 888 500 865 q 473 808 493 865 q 422 675 453 751 l 306 382 m 436 1125 l 613 1319 l 782 1319 l 594 1125 l 436 1125 z "},"Ă":{"ha":833,"x_min":-1,"x_max":796,"o":"m -1 0 l 418 1014 l 615 1014 l 714 0 l 565 0 l 546 257 l 258 257 l 156 0 l -1 0 m 306 382 l 536 382 l 513 674 q 503 808 506 751 q 500 888 500 865 q 473 808 493 865 q 422 675 453 751 l 306 382 m 532 1117 q 373 1172 428 1117 q 332 1319 318 1228 l 446 1319 q 466 1239 439 1269 q 544 1208 493 1208 q 633 1239 596 1208 q 678 1319 669 1269 l 796 1319 q 709 1172 782 1228 q 532 1117 636 1117 z "},"Ắ":{"ha":833,"x_min":-1,"x_max":800,"o":"m -1 0 l 418 1014 l 615 1014 l 714 0 l 565 0 l 546 257 l 258 257 l 156 0 l -1 0 m 306 382 l 536 382 l 513 674 q 503 808 506 751 q 500 888 500 865 q 473 808 493 865 q 422 675 453 751 l 306 382 m 461 1253 l 632 1417 l 786 1417 l 606 1253 l 461 1253 m 489 1083 q 347 1133 394 1083 q 313 1267 299 1182 l 419 1267 q 435 1199 413 1224 q 503 1175 457 1175 l 579 1175 q 656 1199 625 1175 q 692 1267 686 1224 l 800 1267 q 723 1133 786 1182 q 565 1083 660 1083 l 489 1083 z "},"Ặ":{"ha":833,"x_min":-1,"x_max":796,"o":"m -1 0 l 418 1014 l 615 1014 l 714 0 l 565 0 l 546 257 l 258 257 l 156 0 l -1 0 m 306 382 l 536 382 l 513 674 q 503 808 506 751 q 500 888 500 865 q 473 808 493 865 q 422 675 453 751 l 306 382 m 307 -304 q 233 -279 258 -304 q 215 -210 208 -254 q 256 -141 222 -167 q 338 -115 289 -115 q 412 -141 388 -115 q 428 -210 436 -167 q 390 -279 422 -254 q 307 -304 357 -304 m 532 1117 q 373 1172 428 1117 q 332 1319 318 1228 l 446 1319 q 466 1239 439 1269 q 544 1208 493 1208 q 633 1239 596 1208 q 678 1319 669 1269 l 796 1319 q 709 1172 782 1228 q 532 1117 636 1117 z "},"Ằ":{"ha":833,"x_min":-1,"x_max":800,"o":"m -1 0 l 418 1014 l 615 1014 l 714 0 l 565 0 l 546 257 l 258 257 l 156 0 l -1 0 m 306 382 l 536 382 l 513 674 q 503 808 506 751 q 500 888 500 865 q 473 808 493 865 q 422 675 453 751 l 306 382 m 513 1253 l 401 1417 l 539 1417 l 640 1253 l 513 1253 m 488 1083 q 346 1133 394 1083 q 311 1267 297 1182 l 419 1267 q 435 1199 413 1224 q 501 1175 457 1175 l 579 1175 q 655 1199 625 1175 q 692 1267 685 1224 l 800 1267 q 723 1133 786 1182 q 565 1083 660 1083 l 488 1083 z "},"Ẳ":{"ha":833,"x_min":-1,"x_max":800,"o":"m -1 0 l 418 1014 l 615 1014 l 714 0 l 565 0 l 546 257 l 258 257 l 156 0 l -1 0 m 306 382 l 536 382 l 513 674 q 503 808 506 751 q 500 888 500 865 q 473 808 493 865 q 422 675 453 751 l 306 382 m 479 1226 l 546 1293 q 563 1317 560 1308 q 547 1329 564 1329 l 451 1329 l 467 1417 l 601 1417 q 665 1397 644 1417 q 679 1343 685 1378 q 643 1269 671 1300 l 603 1226 l 479 1226 m 489 1083 q 347 1133 394 1083 q 313 1267 299 1182 l 419 1267 q 435 1199 413 1224 q 503 1175 457 1175 l 579 1175 q 656 1199 625 1175 q 692 1267 686 1224 l 800 1267 q 723 1133 786 1182 q 565 1083 660 1083 l 489 1083 z "},"Ẵ":{"ha":833,"x_min":-1,"x_max":814,"o":"m -1 0 l 418 1014 l 615 1014 l 714 0 l 565 0 l 546 257 l 258 257 l 156 0 l -1 0 m 306 382 l 536 382 l 513 674 q 503 808 506 751 q 500 888 500 865 q 473 808 493 865 q 422 675 453 751 l 306 382 m 665 1274 q 582 1289 613 1274 q 527 1319 551 1304 q 469 1333 503 1333 q 424 1294 431 1333 l 422 1286 l 324 1286 l 325 1294 q 374 1383 333 1350 q 475 1417 415 1417 q 540 1408 514 1417 q 586 1387 567 1399 q 624 1366 606 1375 q 668 1357 642 1357 q 714 1396 707 1357 l 715 1406 l 814 1406 l 813 1396 q 763 1307 803 1340 q 665 1274 724 1274 m 486 1083 q 351 1124 397 1083 q 318 1246 306 1165 l 425 1246 q 439 1192 419 1208 q 497 1175 458 1175 l 586 1175 q 650 1192 625 1175 q 681 1246 675 1208 l 789 1246 q 717 1124 776 1165 q 569 1083 658 1083 l 486 1083 z "},"Ǎ":{"ha":833,"x_min":-1,"x_max":825,"o":"m -1 0 l 418 1014 l 615 1014 l 714 0 l 565 0 l 546 257 l 258 257 l 156 0 l -1 0 m 306 382 l 536 382 l 513 674 q 503 808 506 751 q 500 888 500 865 q 473 808 493 865 q 422 675 453 751 l 306 382 m 464 1125 l 303 1319 l 451 1319 l 546 1214 l 667 1319 l 825 1319 l 603 1125 l 464 1125 z "},"Â":{"ha":833,"x_min":-1,"x_max":794,"o":"m -1 0 l 418 1014 l 615 1014 l 714 0 l 565 0 l 546 257 l 258 257 l 156 0 l -1 0 m 306 382 l 536 382 l 513 674 q 503 808 506 751 q 500 888 500 865 q 473 808 493 865 q 422 675 453 751 l 306 382 m 272 1125 l 494 1319 l 633 1319 l 794 1125 l 646 1125 l 553 1231 l 431 1125 l 272 1125 z "},"Ấ":{"ha":833,"x_min":-1,"x_max":1044,"o":"m -1 0 l 418 1014 l 615 1014 l 714 0 l 565 0 l 546 257 l 258 257 l 156 0 l -1 0 m 306 382 l 536 382 l 513 674 q 503 808 506 751 q 500 888 500 865 q 473 808 493 865 q 422 675 453 751 l 306 382 m 706 1253 l 878 1417 l 1044 1417 l 863 1253 l 706 1253 m 268 1083 l 489 1278 l 628 1278 l 789 1083 l 639 1083 l 549 1189 l 425 1083 l 268 1083 z "},"Ậ":{"ha":833,"x_min":-1,"x_max":794,"o":"m -1 0 l 418 1014 l 615 1014 l 714 0 l 565 0 l 546 257 l 258 257 l 156 0 l -1 0 m 306 382 l 536 382 l 513 674 q 503 808 506 751 q 500 888 500 865 q 473 808 493 865 q 422 675 453 751 l 306 382 m 307 -304 q 233 -279 258 -304 q 215 -210 208 -254 q 256 -141 222 -167 q 338 -115 289 -115 q 412 -141 388 -115 q 428 -210 436 -167 q 390 -279 422 -254 q 307 -304 357 -304 m 272 1125 l 494 1319 l 633 1319 l 794 1125 l 646 1125 l 553 1231 l 431 1125 l 272 1125 z "},"Ầ":{"ha":833,"x_min":-1,"x_max":904,"o":"m -1 0 l 418 1014 l 615 1014 l 714 0 l 565 0 l 546 257 l 258 257 l 156 0 l -1 0 m 306 382 l 536 382 l 513 674 q 503 808 506 751 q 500 888 500 865 q 473 808 493 865 q 422 675 453 751 l 306 382 m 763 1253 l 625 1417 l 775 1417 l 904 1253 l 763 1253 m 268 1083 l 489 1278 l 628 1278 l 789 1083 l 639 1083 l 549 1189 l 425 1083 l 268 1083 z "},"Ẩ":{"ha":833,"x_min":-1,"x_max":936,"o":"m -1 0 l 418 1014 l 615 1014 l 714 0 l 565 0 l 546 257 l 258 257 l 156 0 l -1 0 m 306 382 l 536 382 l 513 674 q 503 808 506 751 q 500 888 500 865 q 473 808 493 865 q 422 675 453 751 l 306 382 m 718 1218 l 789 1278 q 806 1306 804 1290 q 785 1329 810 1329 l 696 1329 l 711 1417 l 833 1417 q 910 1391 883 1417 q 929 1322 936 1365 q 893 1258 924 1282 l 846 1218 l 718 1218 m 268 1083 l 489 1278 l 628 1278 l 789 1083 l 639 1083 l 549 1189 l 425 1083 l 268 1083 z "},"Ẫ":{"ha":833,"x_min":-1,"x_max":814,"o":"m -1 0 l 418 1014 l 615 1014 l 714 0 l 565 0 l 546 257 l 258 257 l 156 0 l -1 0 m 306 382 l 536 382 l 513 674 q 503 808 506 751 q 500 888 500 865 q 473 808 493 865 q 422 675 453 751 l 306 382 m 665 1274 q 582 1289 613 1274 q 527 1319 551 1304 q 469 1333 503 1333 q 424 1294 431 1333 l 422 1286 l 324 1286 l 325 1294 q 374 1383 333 1350 q 475 1417 415 1417 q 540 1408 514 1417 q 586 1387 567 1399 q 624 1366 606 1375 q 668 1357 642 1357 q 714 1396 707 1357 l 715 1406 l 814 1406 l 813 1396 q 763 1307 803 1340 q 665 1274 724 1274 m 268 1083 l 443 1233 l 660 1233 l 789 1083 l 636 1083 l 546 1186 l 424 1083 l 268 1083 z "},"Ä":{"ha":833,"x_min":-1,"x_max":811,"o":"m -1 0 l 418 1014 l 615 1014 l 714 0 l 565 0 l 546 257 l 258 257 l 156 0 l -1 0 m 306 382 l 536 382 l 513 674 q 503 808 506 751 q 500 888 500 865 q 473 808 493 865 q 422 675 453 751 l 306 382 m 693 1129 q 627 1154 649 1129 q 613 1222 606 1179 q 649 1292 619 1267 q 724 1318 679 1318 q 789 1292 767 1318 q 803 1222 811 1267 q 766 1154 796 1179 q 693 1129 736 1129 m 375 1129 q 310 1154 332 1129 q 294 1222 288 1179 q 332 1292 301 1267 q 406 1318 363 1318 q 472 1292 450 1318 q 486 1222 493 1267 q 449 1154 479 1179 q 375 1129 419 1129 z "},"Ạ":{"ha":833,"x_min":-1,"x_max":714,"o":"m -1 0 l 418 1014 l 615 1014 l 714 0 l 565 0 l 546 257 l 258 257 l 156 0 l -1 0 m 306 382 l 536 382 l 513 674 q 503 808 506 751 q 500 888 500 865 q 473 808 493 865 q 422 675 453 751 l 306 382 m 307 -304 q 233 -279 258 -304 q 215 -210 208 -254 q 256 -141 222 -167 q 338 -115 289 -115 q 412 -141 388 -115 q 428 -210 436 -167 q 390 -279 422 -254 q 307 -304 357 -304 z "},"À":{"ha":833,"x_min":-1,"x_max":714,"o":"m -1 0 l 418 1014 l 615 1014 l 714 0 l 565 0 l 546 257 l 258 257 l 156 0 l -1 0 m 306 382 l 536 382 l 513 674 q 503 808 506 751 q 500 888 500 865 q 473 808 493 865 q 422 675 453 751 l 306 382 m 479 1125 l 349 1319 l 507 1319 l 626 1125 l 479 1125 z "},"Ả":{"ha":833,"x_min":-1,"x_max":714,"o":"m -1 0 l 418 1014 l 615 1014 l 714 0 l 565 0 l 546 257 l 258 257 l 156 0 l -1 0 m 306 382 l 536 382 l 513 674 q 503 808 506 751 q 500 888 500 865 q 473 808 493 865 q 422 675 453 751 l 306 382 m 458 1110 l 540 1194 q 567 1238 565 1221 q 533 1265 571 1265 l 426 1265 l 442 1364 l 588 1364 q 674 1335 644 1364 q 697 1256 704 1306 q 658 1178 690 1213 l 594 1110 l 458 1110 z "},"Ā":{"ha":833,"x_min":-1,"x_max":789,"o":"m -1 0 l 418 1014 l 615 1014 l 714 0 l 565 0 l 546 257 l 258 257 l 156 0 l -1 0 m 306 382 l 536 382 l 513 674 q 503 808 506 751 q 500 888 500 865 q 473 808 493 865 q 422 675 453 751 l 306 382 m 308 1158 l 328 1278 l 789 1278 l 769 1158 l 308 1158 z "},"Ą":{"ha":833,"x_min":-1,"x_max":715,"o":"m -1 0 l 418 1014 l 615 1014 l 714 0 l 674 0 l 664 -7 q 594 -70 618 -42 q 567 -125 571 -99 q 578 -171 563 -153 q 629 -189 594 -189 l 715 -189 l 700 -292 l 579 -292 q 459 -253 500 -292 q 428 -154 418 -214 q 467 -75 435 -115 q 565 4 500 -35 l 546 257 l 258 257 l 156 0 l -1 0 m 306 382 l 536 382 l 513 674 q 503 808 506 751 q 500 888 500 865 q 473 808 493 865 q 422 675 453 751 l 306 382 z "},"Å":{"ha":833,"x_min":-1,"x_max":735,"o":"m -1 0 l 418 1014 l 615 1014 l 714 0 l 565 0 l 546 257 l 258 257 l 156 0 l -1 0 m 306 382 l 536 382 l 513 674 q 503 808 506 751 q 500 888 500 865 q 473 808 493 865 q 422 675 453 751 l 306 382 m 522 1058 q 403 1103 444 1058 q 374 1222 363 1149 q 440 1341 385 1296 q 575 1386 496 1386 q 694 1341 653 1386 q 724 1222 735 1296 q 657 1103 713 1149 q 522 1058 601 1058 m 536 1139 q 600 1162 574 1139 q 632 1222 626 1185 q 619 1283 639 1260 q 563 1307 600 1307 q 499 1283 525 1307 q 465 1222 472 1260 q 479 1162 460 1185 q 536 1139 499 1139 z "},"Ã":{"ha":833,"x_min":-1,"x_max":794,"o":"m -1 0 l 418 1014 l 615 1014 l 714 0 l 565 0 l 546 257 l 258 257 l 156 0 l -1 0 m 306 382 l 536 382 l 513 674 q 503 808 506 751 q 500 888 500 865 q 473 808 493 865 q 422 675 453 751 l 306 382 m 631 1126 q 565 1140 589 1126 q 525 1172 540 1154 q 495 1205 510 1190 q 458 1219 481 1219 q 426 1207 439 1219 q 410 1171 413 1194 l 403 1133 l 304 1133 l 311 1176 q 365 1281 322 1242 q 468 1319 407 1319 q 534 1305 510 1319 q 574 1272 558 1290 q 603 1240 589 1254 q 640 1226 618 1226 q 689 1271 681 1226 l 696 1313 l 794 1313 l 788 1268 q 734 1165 776 1203 q 631 1126 692 1126 z "},"Æ":{"ha":833,"x_min":-32,"x_max":896,"o":"m -32 0 l 328 1014 l 896 1014 l 875 882 l 629 882 l 583 590 l 794 590 l 772 456 l 563 456 l 511 132 l 756 132 l 735 0 l 354 0 l 396 267 l 208 267 l 117 0 l -32 0 m 247 383 l 414 383 l 494 882 l 419 882 l 247 383 z "},"Ǽ":{"ha":833,"x_min":-32,"x_max":896,"o":"m -32 0 l 328 1014 l 896 1014 l 875 882 l 629 882 l 583 590 l 794 590 l 772 456 l 563 456 l 511 132 l 756 132 l 735 0 l 354 0 l 396 267 l 208 267 l 117 0 l -32 0 m 247 383 l 414 383 l 494 882 l 419 882 l 247 383 m 436 1125 l 613 1319 l 782 1319 l 594 1125 l 436 1125 z "},"B":{"ha":833,"x_min":57,"x_max":803,"o":"m 57 0 l 218 1014 l 517 1014 q 731 944 660 1014 q 783 753 803 874 q 716 609 771 667 q 582 535 661 551 q 707 451 665 517 q 732 285 749 386 q 615 77 711 154 q 375 0 519 0 l 57 0 m 296 589 l 447 589 q 571 628 521 589 q 632 738 621 668 q 606 845 643 806 q 496 885 569 885 l 343 885 l 296 589 m 224 129 l 383 129 q 518 173 464 129 q 585 292 572 217 q 556 417 596 369 q 436 464 517 464 l 276 464 l 224 129 z "},"C":{"ha":833,"x_min":72,"x_max":808,"o":"m 358 -14 q 144 66 215 -14 q 94 282 72 146 l 165 732 q 284 949 188 869 q 524 1028 381 1028 q 737 948 665 1028 q 786 732 808 868 l 636 732 q 613 853 649 811 q 503 894 578 894 q 377 853 426 894 q 315 733 328 811 l 244 282 q 267 161 232 203 q 379 119 303 119 q 504 161 456 119 q 565 282 553 203 l 715 282 q 652 125 701 192 q 528 22 603 58 q 358 -14 453 -14 z "},"Ć":{"ha":833,"x_min":72,"x_max":808,"o":"m 358 -14 q 144 66 215 -14 q 94 282 72 146 l 165 732 q 284 949 188 869 q 524 1028 381 1028 q 737 948 665 1028 q 786 732 808 868 l 636 732 q 613 853 649 811 q 503 894 578 894 q 377 853 426 894 q 315 733 328 811 l 244 282 q 267 161 232 203 q 379 119 303 119 q 504 161 456 119 q 565 282 553 203 l 715 282 q 652 125 701 192 q 528 22 603 58 q 358 -14 453 -14 m 443 1125 l 619 1319 l 789 1319 l 601 1125 l 443 1125 z "},"Č":{"ha":833,"x_min":72,"x_max":832,"o":"m 358 -14 q 144 66 215 -14 q 94 282 72 146 l 165 732 q 284 949 188 869 q 524 1028 381 1028 q 737 948 665 1028 q 786 732 808 868 l 636 732 q 613 853 649 811 q 503 894 578 894 q 377 853 426 894 q 315 733 328 811 l 244 282 q 267 161 232 203 q 379 119 303 119 q 504 161 456 119 q 565 282 553 203 l 715 282 q 652 125 701 192 q 528 22 603 58 q 358 -14 453 -14 m 471 1125 l 310 1319 l 458 1319 l 553 1214 l 674 1319 l 832 1319 l 610 1125 l 471 1125 z "},"Ç":{"ha":833,"x_min":75,"x_max":808,"o":"m 181 -292 l 193 -208 l 294 -208 q 348 -192 326 -208 q 374 -158 369 -176 q 341 -114 378 -132 q 233 -96 304 -96 l 281 -7 q 125 90 175 14 q 94 282 75 165 l 165 732 q 284 949 188 869 q 524 1028 381 1028 q 737 948 665 1028 q 786 732 808 868 l 636 732 q 613 853 649 811 q 503 894 578 894 q 377 853 426 894 q 315 733 328 811 l 244 282 q 267 161 232 203 q 379 119 303 119 q 504 161 456 119 q 565 282 553 203 l 715 282 q 653 125 701 192 q 530 22 604 58 q 364 -14 456 -14 l 346 -50 q 422 -69 383 -54 q 485 -109 461 -83 q 503 -172 508 -135 q 441 -256 494 -221 q 308 -292 388 -292 l 181 -292 z "},"Ĉ":{"ha":833,"x_min":72,"x_max":808,"o":"m 358 -14 q 144 66 215 -14 q 94 282 72 146 l 165 732 q 284 949 188 869 q 524 1028 381 1028 q 737 948 665 1028 q 786 732 808 868 l 636 732 q 613 853 649 811 q 503 894 578 894 q 377 853 426 894 q 315 733 328 811 l 244 282 q 267 161 232 203 q 379 119 303 119 q 504 161 456 119 q 565 282 553 203 l 715 282 q 652 125 701 192 q 528 22 603 58 q 358 -14 453 -14 m 279 1125 l 501 1319 l 640 1319 l 801 1125 l 653 1125 l 560 1231 l 438 1125 l 279 1125 z "},"Ċ":{"ha":833,"x_min":72,"x_max":808,"o":"m 358 -14 q 144 66 215 -14 q 94 282 72 146 l 165 732 q 284 949 188 869 q 524 1028 381 1028 q 737 948 665 1028 q 786 732 808 868 l 636 732 q 613 853 649 811 q 503 894 578 894 q 377 853 426 894 q 315 733 328 811 l 244 282 q 267 161 232 203 q 379 119 303 119 q 504 161 456 119 q 565 282 553 203 l 715 282 q 652 125 701 192 q 528 22 603 58 q 358 -14 453 -14 m 540 1128 q 467 1153 492 1128 q 449 1222 443 1179 q 490 1291 457 1265 q 572 1317 522 1317 q 645 1291 621 1317 q 663 1222 669 1265 q 623 1153 656 1179 q 540 1128 590 1128 z "},"D":{"ha":833,"x_min":54,"x_max":800,"o":"m 54 0 l 215 1014 l 499 1014 q 724 929 649 1014 q 778 704 800 844 l 717 313 q 649 147 701 217 q 517 39 597 78 q 338 0 438 0 l 54 0 m 226 136 l 358 136 q 497 183 442 136 q 567 313 553 229 l 628 704 q 601 831 642 785 q 476 878 560 878 l 343 878 l 226 136 z "},"Ð":{"ha":833,"x_min":14,"x_max":800,"o":"m 54 0 l 128 461 l 14 461 l 14 574 l 146 574 l 215 1014 l 499 1014 q 724 929 649 1014 q 778 704 800 844 l 717 313 q 649 147 701 217 q 517 39 597 78 q 338 0 438 0 l 54 0 m 226 136 l 358 136 q 497 183 442 136 q 567 313 553 229 l 628 704 q 601 831 642 785 q 476 878 560 878 l 343 878 l 296 574 l 403 574 l 403 461 l 278 461 l 226 136 z "},"Ď":{"ha":833,"x_min":54,"x_max":825,"o":"m 54 0 l 215 1014 l 499 1014 q 724 929 649 1014 q 778 704 800 844 l 717 313 q 649 147 701 217 q 517 39 597 78 q 338 0 438 0 l 54 0 m 226 136 l 358 136 q 497 183 442 136 q 567 313 553 229 l 628 704 q 601 831 642 785 q 476 878 560 878 l 343 878 l 226 136 m 464 1125 l 303 1319 l 451 1319 l 546 1214 l 667 1319 l 825 1319 l 603 1125 l 464 1125 z "},"Đ":{"ha":833,"x_min":14,"x_max":800,"o":"m 54 0 l 128 461 l 14 461 l 32 574 l 146 574 l 215 1014 l 499 1014 q 724 929 649 1014 q 778 704 800 844 l 717 313 q 649 147 701 217 q 517 39 597 78 q 338 0 438 0 l 54 0 m 226 136 l 358 136 q 497 183 442 136 q 567 313 553 229 l 628 704 q 601 831 642 785 q 476 878 560 878 l 343 878 l 296 574 l 421 574 l 403 461 l 278 461 l 226 136 z "},"E":{"ha":833,"x_min":69,"x_max":826,"o":"m 69 0 l 231 1014 l 826 1014 l 806 881 l 357 881 l 311 593 l 711 593 l 690 461 l 290 461 l 239 133 l 686 133 l 665 0 l 69 0 z "},"É":{"ha":833,"x_min":69,"x_max":826,"o":"m 69 0 l 231 1014 l 826 1014 l 806 881 l 357 881 l 311 593 l 711 593 l 690 461 l 290 461 l 239 133 l 686 133 l 665 0 l 69 0 m 464 1125 l 640 1319 l 810 1319 l 622 1125 l 464 1125 z "},"Ĕ":{"ha":833,"x_min":69,"x_max":826,"o":"m 69 0 l 231 1014 l 826 1014 l 806 881 l 357 881 l 311 593 l 711 593 l 690 461 l 290 461 l 239 133 l 686 133 l 665 0 l 69 0 m 560 1117 q 401 1172 456 1117 q 360 1319 346 1228 l 474 1319 q 494 1239 467 1269 q 572 1208 521 1208 q 660 1239 624 1208 q 706 1319 697 1269 l 824 1319 q 737 1172 810 1228 q 560 1117 664 1117 z "},"Ě":{"ha":833,"x_min":69,"x_max":853,"o":"m 69 0 l 231 1014 l 826 1014 l 806 881 l 357 881 l 311 593 l 711 593 l 690 461 l 290 461 l 239 133 l 686 133 l 665 0 l 69 0 m 492 1125 l 331 1319 l 479 1319 l 574 1214 l 694 1319 l 853 1319 l 631 1125 l 492 1125 z "},"Ê":{"ha":833,"x_min":69,"x_max":826,"o":"m 69 0 l 231 1014 l 826 1014 l 806 881 l 357 881 l 311 593 l 711 593 l 690 461 l 290 461 l 239 133 l 686 133 l 665 0 l 69 0 m 300 1125 l 522 1319 l 661 1319 l 822 1125 l 674 1125 l 581 1231 l 458 1125 l 300 1125 z "},"Ế":{"ha":833,"x_min":69,"x_max":1072,"o":"m 69 0 l 231 1014 l 826 1014 l 806 881 l 357 881 l 311 593 l 711 593 l 690 461 l 290 461 l 239 133 l 686 133 l 665 0 l 69 0 m 733 1253 l 906 1417 l 1072 1417 l 890 1253 l 733 1253 m 296 1083 l 517 1278 l 656 1278 l 817 1083 l 667 1083 l 576 1189 l 453 1083 l 296 1083 z "},"Ệ":{"ha":833,"x_min":69,"x_max":826,"o":"m 69 0 l 231 1014 l 826 1014 l 806 881 l 357 881 l 311 593 l 711 593 l 690 461 l 290 461 l 239 133 l 686 133 l 665 0 l 69 0 m 396 -304 q 322 -279 347 -304 q 304 -210 297 -254 q 344 -141 311 -167 q 426 -115 378 -115 q 501 -141 476 -115 q 517 -210 525 -167 q 478 -279 511 -254 q 396 -304 446 -304 m 300 1125 l 522 1319 l 661 1319 l 822 1125 l 674 1125 l 581 1231 l 458 1125 l 300 1125 z "},"Ề":{"ha":833,"x_min":69,"x_max":932,"o":"m 69 0 l 231 1014 l 826 1014 l 806 881 l 357 881 l 311 593 l 711 593 l 690 461 l 290 461 l 239 133 l 686 133 l 665 0 l 69 0 m 790 1253 l 653 1417 l 803 1417 l 932 1253 l 790 1253 m 296 1083 l 517 1278 l 656 1278 l 817 1083 l 667 1083 l 576 1189 l 453 1083 l 296 1083 z "},"Ể":{"ha":833,"x_min":69,"x_max":964,"o":"m 69 0 l 231 1014 l 826 1014 l 806 881 l 357 881 l 311 593 l 711 593 l 690 461 l 290 461 l 239 133 l 686 133 l 665 0 l 69 0 m 746 1218 l 817 1278 q 833 1306 832 1290 q 813 1329 838 1329 l 724 1329 l 739 1417 l 861 1417 q 938 1391 911 1417 q 957 1322 964 1365 q 921 1258 951 1282 l 874 1218 l 746 1218 m 296 1083 l 517 1278 l 656 1278 l 817 1083 l 667 1083 l 576 1189 l 453 1083 l 296 1083 z "},"Ễ":{"ha":833,"x_min":69,"x_max":842,"o":"m 69 0 l 231 1014 l 826 1014 l 806 881 l 357 881 l 311 593 l 711 593 l 690 461 l 290 461 l 239 133 l 686 133 l 665 0 l 69 0 m 693 1274 q 610 1289 640 1274 q 555 1319 579 1304 q 497 1333 531 1333 q 451 1294 458 1333 l 450 1286 l 351 1286 l 353 1294 q 402 1383 361 1350 q 503 1417 443 1417 q 568 1408 542 1417 q 614 1387 594 1399 q 651 1366 633 1375 q 696 1357 669 1357 q 742 1396 735 1357 l 743 1406 l 842 1406 l 840 1396 q 791 1307 831 1340 q 693 1274 751 1274 m 296 1083 l 471 1233 l 688 1233 l 817 1083 l 664 1083 l 574 1186 l 451 1083 l 296 1083 z "},"Ë":{"ha":833,"x_min":69,"x_max":839,"o":"m 69 0 l 231 1014 l 826 1014 l 806 881 l 357 881 l 311 593 l 711 593 l 690 461 l 290 461 l 239 133 l 686 133 l 665 0 l 69 0 m 721 1129 q 655 1154 676 1129 q 640 1222 633 1179 q 677 1292 647 1267 q 751 1318 707 1318 q 817 1292 794 1318 q 831 1222 839 1267 q 794 1154 824 1179 q 721 1129 764 1129 m 403 1129 q 338 1154 360 1129 q 322 1222 315 1179 q 360 1292 329 1267 q 433 1318 390 1318 q 499 1292 478 1318 q 514 1222 521 1267 q 477 1154 507 1179 q 403 1129 447 1129 z "},"Ė":{"ha":833,"x_min":69,"x_max":826,"o":"m 69 0 l 231 1014 l 826 1014 l 806 881 l 357 881 l 311 593 l 711 593 l 690 461 l 290 461 l 239 133 l 686 133 l 665 0 l 69 0 m 561 1128 q 488 1153 513 1128 q 469 1222 464 1179 q 510 1291 478 1265 q 593 1317 543 1317 q 666 1291 642 1317 q 683 1222 690 1265 q 644 1153 676 1179 q 561 1128 611 1128 z "},"Ẹ":{"ha":833,"x_min":69,"x_max":826,"o":"m 69 0 l 231 1014 l 826 1014 l 806 881 l 357 881 l 311 593 l 711 593 l 690 461 l 290 461 l 239 133 l 686 133 l 665 0 l 69 0 m 396 -304 q 322 -279 347 -304 q 304 -210 297 -254 q 344 -141 311 -167 q 426 -115 378 -115 q 501 -141 476 -115 q 517 -210 525 -167 q 478 -279 511 -254 q 396 -304 446 -304 z "},"È":{"ha":833,"x_min":69,"x_max":826,"o":"m 69 0 l 231 1014 l 826 1014 l 806 881 l 357 881 l 311 593 l 711 593 l 690 461 l 290 461 l 239 133 l 686 133 l 665 0 l 69 0 m 507 1125 l 376 1319 l 535 1319 l 654 1125 l 507 1125 z "},"Ẻ":{"ha":833,"x_min":69,"x_max":826,"o":"m 69 0 l 231 1014 l 826 1014 l 806 881 l 357 881 l 311 593 l 711 593 l 690 461 l 290 461 l 239 133 l 686 133 l 665 0 l 69 0 m 486 1110 l 568 1194 q 594 1238 593 1221 q 561 1265 599 1265 l 454 1265 l 469 1364 l 615 1364 q 702 1335 672 1364 q 725 1256 732 1306 q 686 1178 718 1213 l 622 1110 l 486 1110 z "},"Ē":{"ha":833,"x_min":69,"x_max":826,"o":"m 69 0 l 231 1014 l 826 1014 l 806 881 l 357 881 l 311 593 l 711 593 l 690 461 l 290 461 l 239 133 l 686 133 l 665 0 l 69 0 m 336 1158 l 356 1278 l 817 1278 l 797 1158 l 336 1158 z "},"Ę":{"ha":833,"x_min":69,"x_max":826,"o":"m 69 0 l 231 1014 l 826 1014 l 806 881 l 357 881 l 311 593 l 711 593 l 690 461 l 290 461 l 239 133 l 686 133 l 665 0 l 599 0 l 590 -7 q 520 -70 543 -42 q 492 -125 497 -99 q 505 -171 489 -153 q 554 -189 521 -189 l 642 -189 l 626 -292 l 506 -292 q 384 -253 425 -292 q 354 -154 343 -214 q 392 -77 360 -117 q 485 0 424 -37 l 69 0 z "},"Ɛ":{"ha":833,"x_min":60,"x_max":828,"o":"m 368 -14 q 194 24 265 -14 q 92 131 124 63 q 74 290 60 199 q 149 455 89 390 q 299 538 210 519 q 189 612 224 554 q 168 756 154 669 q 231 899 182 838 q 356 994 279 960 q 529 1028 433 1028 q 697 992 628 1028 q 797 890 765 956 q 814 738 828 825 l 664 738 q 634 852 675 808 q 515 896 593 896 q 383 853 438 896 q 318 743 329 811 q 348 632 307 674 q 467 590 389 590 l 597 590 l 576 463 l 446 463 q 299 415 360 463 q 226 290 239 368 q 259 165 214 213 q 390 118 304 118 q 529 160 472 118 q 600 272 586 203 l 750 272 q 682 122 735 186 q 548 22 629 58 q 368 -14 467 -14 z "},"Ẽ":{"ha":833,"x_min":69,"x_max":826,"o":"m 69 0 l 231 1014 l 826 1014 l 806 881 l 357 881 l 311 593 l 711 593 l 690 461 l 290 461 l 239 133 l 686 133 l 665 0 l 69 0 m 658 1126 q 592 1140 617 1126 q 553 1172 568 1154 q 523 1205 538 1190 q 486 1219 508 1219 q 453 1207 467 1219 q 438 1171 440 1194 l 431 1133 l 332 1133 l 339 1176 q 392 1281 350 1242 q 496 1319 435 1319 q 562 1305 538 1319 q 601 1272 586 1290 q 631 1240 617 1254 q 668 1226 646 1226 q 717 1271 708 1226 l 724 1313 l 822 1313 l 815 1268 q 762 1165 804 1203 q 658 1126 719 1126 z "},"F":{"ha":833,"x_min":61,"x_max":836,"o":"m 61 0 l 222 1014 l 836 1014 l 814 876 l 347 876 l 299 574 l 729 574 l 707 435 l 279 435 l 211 0 l 61 0 z "},"G":{"ha":833,"x_min":72,"x_max":808,"o":"m 358 -14 q 144 66 215 -14 q 94 282 72 146 l 165 732 q 284 949 188 869 q 524 1028 381 1028 q 737 948 665 1028 q 786 732 808 868 l 636 732 q 613 853 649 811 q 503 894 578 894 q 377 853 426 894 q 315 733 328 811 l 244 282 q 267 160 232 203 q 379 118 303 118 q 504 160 456 118 q 565 282 553 203 l 583 396 l 394 396 l 415 528 l 754 528 l 715 282 q 653 125 701 192 q 528 22 604 58 q 358 -14 453 -14 z "},"Ǵ":{"ha":833,"x_min":72,"x_max":808,"o":"m 358 -14 q 144 66 215 -14 q 94 282 72 146 l 165 732 q 284 949 188 869 q 524 1028 381 1028 q 737 948 665 1028 q 786 732 808 868 l 636 732 q 613 853 649 811 q 503 894 578 894 q 377 853 426 894 q 315 733 328 811 l 244 282 q 267 160 232 203 q 379 118 303 118 q 504 160 456 118 q 565 282 553 203 l 583 396 l 394 396 l 415 528 l 754 528 l 715 282 q 653 125 701 192 q 528 22 604 58 q 358 -14 453 -14 m 436 1125 l 613 1319 l 782 1319 l 594 1125 l 436 1125 z "},"Ğ":{"ha":833,"x_min":72,"x_max":808,"o":"m 358 -14 q 144 66 215 -14 q 94 282 72 146 l 165 732 q 284 949 188 869 q 524 1028 381 1028 q 737 948 665 1028 q 786 732 808 868 l 636 732 q 613 853 649 811 q 503 894 578 894 q 377 853 426 894 q 315 733 328 811 l 244 282 q 267 160 232 203 q 379 118 303 118 q 504 160 456 118 q 565 282 553 203 l 583 396 l 394 396 l 415 528 l 754 528 l 715 282 q 653 125 701 192 q 528 22 604 58 q 358 -14 453 -14 m 532 1117 q 373 1172 428 1117 q 332 1319 318 1228 l 446 1319 q 466 1239 439 1269 q 544 1208 493 1208 q 633 1239 596 1208 q 678 1319 669 1269 l 796 1319 q 709 1172 782 1228 q 532 1117 636 1117 z "},"Ǧ":{"ha":833,"x_min":72,"x_max":825,"o":"m 358 -14 q 144 66 215 -14 q 94 282 72 146 l 165 732 q 284 949 188 869 q 524 1028 381 1028 q 737 948 665 1028 q 786 732 808 868 l 636 732 q 613 853 649 811 q 503 894 578 894 q 377 853 426 894 q 315 733 328 811 l 244 282 q 267 160 232 203 q 379 118 303 118 q 504 160 456 118 q 565 282 553 203 l 583 396 l 394 396 l 415 528 l 754 528 l 715 282 q 653 125 701 192 q 528 22 604 58 q 358 -14 453 -14 m 464 1125 l 303 1319 l 451 1319 l 546 1214 l 667 1319 l 825 1319 l 603 1125 l 464 1125 z "},"Ĝ":{"ha":833,"x_min":72,"x_max":808,"o":"m 358 -14 q 144 66 215 -14 q 94 282 72 146 l 165 732 q 284 949 188 869 q 524 1028 381 1028 q 737 948 665 1028 q 786 732 808 868 l 636 732 q 613 853 649 811 q 503 894 578 894 q 377 853 426 894 q 315 733 328 811 l 244 282 q 267 160 232 203 q 379 118 303 118 q 504 160 456 118 q 565 282 553 203 l 583 396 l 394 396 l 415 528 l 754 528 l 715 282 q 653 125 701 192 q 528 22 604 58 q 358 -14 453 -14 m 272 1125 l 494 1319 l 633 1319 l 794 1125 l 646 1125 l 553 1231 l 431 1125 l 272 1125 z "},"Ģ":{"ha":833,"x_min":72,"x_max":808,"o":"m 358 -14 q 144 66 215 -14 q 94 282 72 146 l 165 732 q 284 949 188 869 q 524 1028 381 1028 q 737 948 665 1028 q 786 732 808 868 l 636 732 q 613 853 649 811 q 503 894 578 894 q 377 853 426 894 q 315 733 328 811 l 244 282 q 267 160 232 203 q 379 118 303 118 q 504 160 456 118 q 565 282 553 203 l 583 396 l 394 396 l 415 528 l 754 528 l 715 282 q 653 125 701 192 q 528 22 604 58 q 358 -14 453 -14 m 150 -333 l 314 -132 l 478 -132 l 296 -333 l 150 -333 z "},"Ġ":{"ha":833,"x_min":72,"x_max":808,"o":"m 358 -14 q 144 66 215 -14 q 94 282 72 146 l 165 732 q 284 949 188 869 q 524 1028 381 1028 q 737 948 665 1028 q 786 732 808 868 l 636 732 q 613 853 649 811 q 503 894 578 894 q 377 853 426 894 q 315 733 328 811 l 244 282 q 267 160 232 203 q 379 118 303 118 q 504 160 456 118 q 565 282 553 203 l 583 396 l 394 396 l 415 528 l 754 528 l 715 282 q 653 125 701 192 q 528 22 604 58 q 358 -14 453 -14 m 533 1128 q 460 1153 485 1128 q 442 1222 436 1179 q 483 1291 450 1265 q 565 1317 515 1317 q 638 1291 614 1317 q 656 1222 663 1265 q 616 1153 649 1179 q 533 1128 583 1128 z "},"H":{"ha":833,"x_min":57,"x_max":815,"o":"m 57 0 l 218 1014 l 368 1014 l 300 594 l 599 594 l 665 1014 l 815 1014 l 654 0 l 504 0 l 576 456 l 279 456 l 207 0 l 57 0 z "},"Ħ":{"ha":833,"x_min":57,"x_max":892,"o":"m 57 0 l 172 729 l 69 729 l 88 842 l 190 842 l 218 1014 l 368 1014 l 340 842 l 638 842 l 665 1014 l 815 1014 l 788 842 l 892 842 l 874 729 l 771 729 l 654 0 l 504 0 l 576 456 l 279 456 l 207 0 l 57 0 m 300 594 l 599 594 l 619 729 l 322 729 l 300 594 z "},"Ĥ":{"ha":833,"x_min":57,"x_max":815,"o":"m 57 0 l 218 1014 l 368 1014 l 300 594 l 599 594 l 665 1014 l 815 1014 l 654 0 l 504 0 l 576 456 l 279 456 l 207 0 l 57 0 m 272 1125 l 494 1319 l 633 1319 l 794 1125 l 646 1125 l 553 1231 l 431 1125 l 272 1125 z "},"I":{"ha":833,"x_min":75,"x_max":799,"o":"m 75 0 l 96 133 l 301 133 l 419 881 l 214 881 l 236 1014 l 799 1014 l 776 881 l 571 881 l 453 133 l 658 133 l 638 0 l 75 0 z "},"Í":{"ha":833,"x_min":75,"x_max":799,"o":"m 75 0 l 96 133 l 301 133 l 419 881 l 214 881 l 236 1014 l 799 1014 l 776 881 l 571 881 l 453 133 l 658 133 l 638 0 l 75 0 m 436 1125 l 613 1319 l 782 1319 l 594 1125 l 436 1125 z "},"Ĭ":{"ha":833,"x_min":75,"x_max":799,"o":"m 75 0 l 96 133 l 301 133 l 419 881 l 214 881 l 236 1014 l 799 1014 l 776 881 l 571 881 l 453 133 l 658 133 l 638 0 l 75 0 m 532 1117 q 373 1172 428 1117 q 332 1319 318 1228 l 446 1319 q 466 1239 439 1269 q 544 1208 493 1208 q 633 1239 596 1208 q 678 1319 669 1269 l 796 1319 q 709 1172 782 1228 q 532 1117 636 1117 z "},"Î":{"ha":833,"x_min":75,"x_max":799,"o":"m 75 0 l 96 133 l 301 133 l 419 881 l 214 881 l 236 1014 l 799 1014 l 776 881 l 571 881 l 453 133 l 658 133 l 638 0 l 75 0 m 272 1125 l 494 1319 l 633 1319 l 794 1125 l 646 1125 l 553 1231 l 431 1125 l 272 1125 z "},"Ï":{"ha":833,"x_min":75,"x_max":811,"o":"m 75 0 l 96 133 l 301 133 l 419 881 l 214 881 l 236 1014 l 799 1014 l 776 881 l 571 881 l 453 133 l 658 133 l 638 0 l 75 0 m 693 1129 q 627 1154 649 1129 q 613 1222 606 1179 q 649 1292 619 1267 q 724 1318 679 1318 q 789 1292 767 1318 q 803 1222 811 1267 q 766 1154 796 1179 q 693 1129 736 1129 m 375 1129 q 310 1154 332 1129 q 294 1222 288 1179 q 332 1292 301 1267 q 406 1318 363 1318 q 472 1292 450 1318 q 486 1222 493 1267 q 449 1154 479 1179 q 375 1129 419 1129 z "},"İ":{"ha":833,"x_min":75,"x_max":799,"o":"m 75 0 l 96 133 l 301 133 l 419 881 l 214 881 l 236 1014 l 799 1014 l 776 881 l 571 881 l 453 133 l 658 133 l 638 0 l 75 0 m 533 1128 q 460 1153 485 1128 q 442 1222 436 1179 q 483 1291 450 1265 q 565 1317 515 1317 q 638 1291 614 1317 q 656 1222 663 1265 q 616 1153 649 1179 q 533 1128 583 1128 z "},"Ị":{"ha":833,"x_min":75,"x_max":799,"o":"m 75 0 l 96 133 l 301 133 l 419 881 l 214 881 l 236 1014 l 799 1014 l 776 881 l 571 881 l 453 133 l 658 133 l 638 0 l 75 0 m 307 -304 q 233 -279 258 -304 q 215 -210 208 -254 q 256 -141 222 -167 q 338 -115 289 -115 q 412 -141 388 -115 q 428 -210 436 -167 q 390 -279 422 -254 q 307 -304 357 -304 z "},"Ì":{"ha":833,"x_min":75,"x_max":799,"o":"m 75 0 l 96 133 l 301 133 l 419 881 l 214 881 l 236 1014 l 799 1014 l 776 881 l 571 881 l 453 133 l 658 133 l 638 0 l 75 0 m 479 1125 l 349 1319 l 507 1319 l 626 1125 l 479 1125 z "},"Ỉ":{"ha":833,"x_min":75,"x_max":799,"o":"m 75 0 l 96 133 l 301 133 l 419 881 l 214 881 l 236 1014 l 799 1014 l 776 881 l 571 881 l 453 133 l 658 133 l 638 0 l 75 0 m 458 1110 l 540 1194 q 567 1238 565 1221 q 533 1265 571 1265 l 426 1265 l 442 1364 l 588 1364 q 674 1335 644 1364 q 697 1256 704 1306 q 658 1178 690 1213 l 594 1110 l 458 1110 z "},"Ī":{"ha":833,"x_min":75,"x_max":799,"o":"m 75 0 l 96 133 l 301 133 l 419 881 l 214 881 l 236 1014 l 799 1014 l 776 881 l 571 881 l 453 133 l 658 133 l 638 0 l 75 0 m 308 1158 l 328 1278 l 789 1278 l 769 1158 l 308 1158 z "},"Į":{"ha":833,"x_min":75,"x_max":799,"o":"m 75 0 l 96 133 l 301 133 l 419 881 l 214 881 l 236 1014 l 799 1014 l 776 881 l 571 881 l 453 133 l 658 133 l 638 0 l 408 0 l 400 -7 q 330 -70 353 -42 q 301 -125 307 -99 q 315 -171 299 -153 q 364 -189 331 -189 l 451 -189 l 436 -292 l 315 -292 q 194 -253 235 -292 q 164 -154 154 -214 q 201 -77 169 -117 q 294 0 233 -37 l 75 0 z "},"Ĩ":{"ha":833,"x_min":75,"x_max":799,"o":"m 75 0 l 96 133 l 301 133 l 419 881 l 214 881 l 236 1014 l 799 1014 l 776 881 l 571 881 l 453 133 l 658 133 l 638 0 l 75 0 m 631 1126 q 565 1140 589 1126 q 525 1172 540 1154 q 495 1205 510 1190 q 458 1219 481 1219 q 426 1207 439 1219 q 410 1171 413 1194 l 403 1133 l 304 1133 l 311 1176 q 365 1281 322 1242 q 468 1319 407 1319 q 534 1305 510 1319 q 574 1272 558 1290 q 603 1240 589 1254 q 640 1226 618 1226 q 689 1271 681 1226 l 696 1313 l 794 1313 l 788 1268 q 734 1165 776 1203 q 631 1126 692 1126 z "},"J":{"ha":833,"x_min":15,"x_max":799,"o":"m 311 -14 q 88 69 161 -14 q 38 296 15 153 l 188 296 q 213 165 174 213 q 332 118 251 118 q 467 165 414 118 q 533 296 521 211 l 626 878 l 342 878 l 364 1014 l 799 1014 l 683 296 q 563 67 660 147 q 311 -14 465 -14 z "},"Ĵ":{"ha":833,"x_min":15,"x_max":908,"o":"m 311 -14 q 88 69 161 -14 q 38 296 15 153 l 188 296 q 213 165 174 213 q 332 118 251 118 q 467 165 414 118 q 533 296 521 211 l 626 878 l 342 878 l 364 1014 l 799 1014 l 683 296 q 563 67 660 147 q 311 -14 465 -14 m 386 1125 l 608 1319 l 747 1319 l 908 1125 l 760 1125 l 667 1231 l 544 1125 l 386 1125 z "},"K":{"ha":833,"x_min":56,"x_max":872,"o":"m 56 0 l 217 1014 l 367 1014 l 299 592 l 431 592 l 707 1014 l 872 1014 l 553 521 l 724 0 l 560 0 l 415 457 l 278 457 l 206 0 l 56 0 z "},"Ķ":{"ha":833,"x_min":56,"x_max":872,"o":"m 56 0 l 217 1014 l 367 1014 l 299 592 l 431 592 l 707 1014 l 872 1014 l 553 521 l 724 0 l 560 0 l 415 457 l 278 457 l 206 0 l 56 0 m 144 -333 l 308 -132 l 472 -132 l 290 -333 l 144 -333 z "},"L":{"ha":833,"x_min":118,"x_max":733,"o":"m 118 0 l 279 1014 l 429 1014 l 290 138 l 733 138 l 713 0 l 118 0 z "},"Ĺ":{"ha":833,"x_min":118,"x_max":733,"o":"m 118 0 l 279 1014 l 429 1014 l 290 138 l 733 138 l 713 0 l 118 0 m 275 1125 l 451 1319 l 621 1319 l 433 1125 l 275 1125 z "},"Ľ":{"ha":833,"x_min":118,"x_max":1129,"o":"m 118 0 l 279 1014 l 429 1014 l 290 138 l 733 138 l 713 0 l 118 0 m 933 1014 l 988 1264 l 1129 1264 l 1061 1014 l 933 1014 z "},"Ļ":{"ha":833,"x_min":118,"x_max":733,"o":"m 118 0 l 279 1014 l 429 1014 l 290 138 l 733 138 l 713 0 l 118 0 m 200 -333 l 364 -132 l 528 -132 l 346 -333 l 200 -333 z "},"Ŀ":{"ha":833,"x_min":118,"x_max":733,"o":"m 118 0 l 279 1014 l 429 1014 l 290 138 l 733 138 l 713 0 l 118 0 m 564 368 q 479 401 507 368 q 461 489 451 433 q 508 580 469 546 q 604 614 547 614 q 688 580 660 614 q 706 489 715 546 q 659 401 697 433 q 564 368 621 368 z "},"Ł":{"ha":833,"x_min":17,"x_max":738,"o":"m 122 0 l 188 413 l 17 314 l 39 456 l 210 554 l 283 1014 l 433 1014 l 375 650 l 608 783 l 586 642 l 353 507 l 294 138 l 738 138 l 717 0 l 122 0 z "},"M":{"ha":833,"x_min":31,"x_max":842,"o":"m 31 0 l 192 1014 l 374 1014 l 422 689 q 435 601 431 642 q 442 538 439 560 q 465 601 449 560 q 504 690 482 643 l 654 1014 l 842 1014 l 681 0 l 539 0 l 593 342 q 619 488 603 408 q 656 649 636 568 q 693 804 675 731 q 726 933 711 878 l 500 440 l 354 440 l 279 933 q 274 808 278 879 q 263 656 269 736 q 248 494 257 575 q 228 342 239 413 l 174 0 l 31 0 z "},"N":{"ha":833,"x_min":51,"x_max":821,"o":"m 51 0 l 213 1014 l 400 1014 l 564 171 q 572 265 567 210 q 583 381 576 321 q 599 490 590 440 l 682 1014 l 821 1014 l 660 0 l 472 0 l 310 843 q 302 752 307 806 q 290 640 297 699 q 275 532 283 582 l 192 0 l 51 0 z "},"Ń":{"ha":833,"x_min":51,"x_max":821,"o":"m 51 0 l 213 1014 l 400 1014 l 564 171 q 572 265 567 210 q 583 381 576 321 q 599 490 590 440 l 682 1014 l 821 1014 l 660 0 l 472 0 l 310 843 q 302 752 307 806 q 290 640 297 699 q 275 532 283 582 l 192 0 l 51 0 m 436 1125 l 613 1319 l 782 1319 l 594 1125 l 436 1125 z "},"Ň":{"ha":833,"x_min":51,"x_max":825,"o":"m 51 0 l 213 1014 l 400 1014 l 564 171 q 572 265 567 210 q 583 381 576 321 q 599 490 590 440 l 682 1014 l 821 1014 l 660 0 l 472 0 l 310 843 q 302 752 307 806 q 290 640 297 699 q 275 532 283 582 l 192 0 l 51 0 m 464 1125 l 303 1319 l 451 1319 l 546 1214 l 667 1319 l 825 1319 l 603 1125 l 464 1125 z "},"Ņ":{"ha":833,"x_min":51,"x_max":821,"o":"m 51 0 l 213 1014 l 400 1014 l 564 171 q 572 265 567 210 q 583 381 576 321 q 599 490 590 440 l 682 1014 l 821 1014 l 660 0 l 472 0 l 310 843 q 302 752 307 806 q 290 640 297 699 q 275 532 283 582 l 192 0 l 51 0 m 144 -333 l 308 -132 l 472 -132 l 290 -333 l 144 -333 z "},"Ŋ":{"ha":833,"x_min":51,"x_max":821,"o":"m 236 -250 l 258 -110 l 347 -110 q 459 -72 414 -110 q 514 32 504 -35 l 310 843 q 302 752 307 806 q 290 640 297 699 q 275 532 283 582 l 192 0 l 51 0 l 213 1014 l 399 1014 l 582 281 q 590 378 585 321 q 601 495 594 435 q 617 606 608 556 l 682 1014 l 821 1014 l 664 25 q 603 -119 650 -57 q 483 -216 556 -182 q 321 -250 410 -250 l 236 -250 z "},"Ñ":{"ha":833,"x_min":51,"x_max":821,"o":"m 51 0 l 213 1014 l 400 1014 l 564 171 q 572 265 567 210 q 583 381 576 321 q 599 490 590 440 l 682 1014 l 821 1014 l 660 0 l 472 0 l 310 843 q 302 752 307 806 q 290 640 297 699 q 275 532 283 582 l 192 0 l 51 0 m 631 1126 q 565 1140 589 1126 q 525 1172 540 1154 q 495 1205 510 1190 q 458 1219 481 1219 q 426 1207 439 1219 q 410 1171 413 1194 l 403 1133 l 304 1133 l 311 1176 q 365 1281 322 1242 q 468 1319 407 1319 q 534 1305 510 1319 q 574 1272 558 1290 q 603 1240 589 1254 q 640 1226 618 1226 q 689 1271 681 1226 l 696 1313 l 794 1313 l 788 1268 q 734 1165 776 1203 q 631 1126 692 1126 z "},"O":{"ha":833,"x_min":72,"x_max":799,"o":"m 353 -14 q 142 66 211 -14 q 94 282 72 146 l 165 732 q 282 948 188 868 q 518 1028 376 1028 q 729 949 660 1028 q 778 733 799 869 l 707 282 q 590 66 685 146 q 353 -14 494 -14 m 374 119 q 497 161 450 119 q 557 282 544 203 l 628 732 q 607 853 640 811 q 497 894 574 894 q 374 853 421 894 q 315 732 328 811 l 244 282 q 265 161 232 203 q 374 119 299 119 z "},"Ó":{"ha":833,"x_min":72,"x_max":799,"o":"m 353 -14 q 142 66 211 -14 q 94 282 72 146 l 165 732 q 282 948 188 868 q 518 1028 376 1028 q 729 949 660 1028 q 778 733 799 869 l 707 282 q 590 66 685 146 q 353 -14 494 -14 m 374 119 q 497 161 450 119 q 557 282 544 203 l 628 732 q 607 853 640 811 q 497 894 574 894 q 374 853 421 894 q 315 732 328 811 l 244 282 q 265 161 232 203 q 374 119 299 119 m 436 1125 l 613 1319 l 782 1319 l 594 1125 l 436 1125 z "},"Ŏ":{"ha":833,"x_min":72,"x_max":799,"o":"m 353 -14 q 142 66 211 -14 q 94 282 72 146 l 165 732 q 282 948 188 868 q 518 1028 376 1028 q 729 949 660 1028 q 778 733 799 869 l 707 282 q 590 66 685 146 q 353 -14 494 -14 m 374 119 q 497 161 450 119 q 557 282 544 203 l 628 732 q 607 853 640 811 q 497 894 574 894 q 374 853 421 894 q 315 732 328 811 l 244 282 q 265 161 232 203 q 374 119 299 119 m 532 1117 q 373 1172 428 1117 q 332 1319 318 1228 l 446 1319 q 466 1239 439 1269 q 544 1208 493 1208 q 633 1239 596 1208 q 678 1319 669 1269 l 796 1319 q 709 1172 782 1228 q 532 1117 636 1117 z "},"Ô":{"ha":833,"x_min":72,"x_max":799,"o":"m 353 -14 q 142 66 211 -14 q 94 282 72 146 l 165 732 q 282 948 188 868 q 518 1028 376 1028 q 729 949 660 1028 q 778 733 799 869 l 707 282 q 590 66 685 146 q 353 -14 494 -14 m 374 119 q 497 161 450 119 q 557 282 544 203 l 628 732 q 607 853 640 811 q 497 894 574 894 q 374 853 421 894 q 315 732 328 811 l 244 282 q 265 161 232 203 q 374 119 299 119 m 272 1125 l 494 1319 l 633 1319 l 794 1125 l 646 1125 l 553 1231 l 431 1125 l 272 1125 z "},"Ố":{"ha":833,"x_min":72,"x_max":1044,"o":"m 353 -14 q 142 66 211 -14 q 94 282 72 146 l 165 732 q 282 948 188 868 q 518 1028 376 1028 q 729 949 660 1028 q 778 733 799 869 l 707 282 q 590 66 685 146 q 353 -14 494 -14 m 374 119 q 497 161 450 119 q 557 282 544 203 l 628 732 q 607 853 640 811 q 497 894 574 894 q 374 853 421 894 q 315 732 328 811 l 244 282 q 265 161 232 203 q 374 119 299 119 m 706 1253 l 878 1417 l 1044 1417 l 863 1253 l 706 1253 m 268 1083 l 489 1278 l 628 1278 l 789 1083 l 639 1083 l 549 1189 l 425 1083 l 268 1083 z "},"Ộ":{"ha":833,"x_min":72,"x_max":799,"o":"m 353 -14 q 142 66 211 -14 q 94 282 72 146 l 165 732 q 282 948 188 868 q 518 1028 376 1028 q 729 949 660 1028 q 778 733 799 869 l 707 282 q 590 66 685 146 q 353 -14 494 -14 m 374 119 q 497 161 450 119 q 557 282 544 203 l 628 732 q 607 853 640 811 q 497 894 574 894 q 374 853 421 894 q 315 732 328 811 l 244 282 q 265 161 232 203 q 374 119 299 119 m 307 -304 q 233 -279 258 -304 q 215 -210 208 -254 q 256 -141 222 -167 q 338 -115 289 -115 q 412 -141 388 -115 q 428 -210 436 -167 q 390 -279 422 -254 q 307 -304 357 -304 m 272 1125 l 494 1319 l 633 1319 l 794 1125 l 646 1125 l 553 1231 l 431 1125 l 272 1125 z "},"Ồ":{"ha":833,"x_min":72,"x_max":904,"o":"m 353 -14 q 142 66 211 -14 q 94 282 72 146 l 165 732 q 282 948 188 868 q 518 1028 376 1028 q 729 949 660 1028 q 778 733 799 869 l 707 282 q 590 66 685 146 q 353 -14 494 -14 m 374 119 q 497 161 450 119 q 557 282 544 203 l 628 732 q 607 853 640 811 q 497 894 574 894 q 374 853 421 894 q 315 732 328 811 l 244 282 q 265 161 232 203 q 374 119 299 119 m 763 1253 l 625 1417 l 775 1417 l 904 1253 l 763 1253 m 268 1083 l 489 1278 l 628 1278 l 789 1083 l 639 1083 l 549 1189 l 425 1083 l 268 1083 z "},"Ổ":{"ha":833,"x_min":72,"x_max":936,"o":"m 353 -14 q 142 66 211 -14 q 94 282 72 146 l 165 732 q 282 948 188 868 q 518 1028 376 1028 q 729 949 660 1028 q 778 733 799 869 l 707 282 q 590 66 685 146 q 353 -14 494 -14 m 374 119 q 497 161 450 119 q 557 282 544 203 l 628 732 q 607 853 640 811 q 497 894 574 894 q 374 853 421 894 q 315 732 328 811 l 244 282 q 265 161 232 203 q 374 119 299 119 m 718 1218 l 789 1278 q 806 1306 804 1290 q 785 1329 810 1329 l 696 1329 l 711 1417 l 833 1417 q 910 1391 883 1417 q 929 1322 936 1365 q 893 1258 924 1282 l 846 1218 l 718 1218 m 268 1083 l 489 1278 l 628 1278 l 789 1083 l 639 1083 l 549 1189 l 425 1083 l 268 1083 z "},"Ỗ":{"ha":833,"x_min":72,"x_max":814,"o":"m 353 -14 q 142 66 211 -14 q 94 282 72 146 l 165 732 q 282 948 188 868 q 518 1028 376 1028 q 729 949 660 1028 q 778 733 799 869 l 707 282 q 590 66 685 146 q 353 -14 494 -14 m 374 119 q 497 161 450 119 q 557 282 544 203 l 628 732 q 607 853 640 811 q 497 894 574 894 q 374 853 421 894 q 315 732 328 811 l 244 282 q 265 161 232 203 q 374 119 299 119 m 665 1274 q 582 1289 613 1274 q 527 1319 551 1304 q 469 1333 503 1333 q 424 1294 431 1333 l 422 1286 l 324 1286 l 325 1294 q 374 1383 333 1350 q 475 1417 415 1417 q 540 1408 514 1417 q 586 1387 567 1399 q 624 1366 606 1375 q 668 1357 642 1357 q 714 1396 707 1357 l 715 1406 l 814 1406 l 813 1396 q 763 1307 803 1340 q 665 1274 724 1274 m 268 1083 l 443 1233 l 660 1233 l 789 1083 l 636 1083 l 546 1186 l 424 1083 l 268 1083 z "},"Ö":{"ha":833,"x_min":72,"x_max":811,"o":"m 353 -14 q 142 66 211 -14 q 94 282 72 146 l 165 732 q 282 948 188 868 q 518 1028 376 1028 q 729 949 660 1028 q 778 733 799 869 l 707 282 q 590 66 685 146 q 353 -14 494 -14 m 374 119 q 497 161 450 119 q 557 282 544 203 l 628 732 q 607 853 640 811 q 497 894 574 894 q 374 853 421 894 q 315 732 328 811 l 244 282 q 265 161 232 203 q 374 119 299 119 m 693 1129 q 627 1154 649 1129 q 613 1222 606 1179 q 649 1292 619 1267 q 724 1318 679 1318 q 789 1292 767 1318 q 803 1222 811 1267 q 766 1154 796 1179 q 693 1129 736 1129 m 375 1129 q 310 1154 332 1129 q 294 1222 288 1179 q 332 1292 301 1267 q 406 1318 363 1318 q 472 1292 450 1318 q 486 1222 493 1267 q 449 1154 479 1179 q 375 1129 419 1129 z "},"Ọ":{"ha":833,"x_min":72,"x_max":799,"o":"m 353 -14 q 142 66 211 -14 q 94 282 72 146 l 165 732 q 282 948 188 868 q 518 1028 376 1028 q 729 949 660 1028 q 778 733 799 869 l 707 282 q 590 66 685 146 q 353 -14 494 -14 m 374 119 q 497 161 450 119 q 557 282 544 203 l 628 732 q 607 853 640 811 q 497 894 574 894 q 374 853 421 894 q 315 732 328 811 l 244 282 q 265 161 232 203 q 374 119 299 119 m 307 -304 q 233 -279 258 -304 q 215 -210 208 -254 q 256 -141 222 -167 q 338 -115 289 -115 q 412 -141 388 -115 q 428 -210 436 -167 q 390 -279 422 -254 q 307 -304 357 -304 z "},"Ò":{"ha":833,"x_min":72,"x_max":799,"o":"m 353 -14 q 142 66 211 -14 q 94 282 72 146 l 165 732 q 282 948 188 868 q 518 1028 376 1028 q 729 949 660 1028 q 778 733 799 869 l 707 282 q 590 66 685 146 q 353 -14 494 -14 m 374 119 q 497 161 450 119 q 557 282 544 203 l 628 732 q 607 853 640 811 q 497 894 574 894 q 374 853 421 894 q 315 732 328 811 l 244 282 q 265 161 232 203 q 374 119 299 119 m 479 1125 l 349 1319 l 507 1319 l 626 1125 l 479 1125 z "},"Ỏ":{"ha":833,"x_min":72,"x_max":799,"o":"m 353 -14 q 142 66 211 -14 q 94 282 72 146 l 165 732 q 282 948 188 868 q 518 1028 376 1028 q 729 949 660 1028 q 778 733 799 869 l 707 282 q 590 66 685 146 q 353 -14 494 -14 m 374 119 q 497 161 450 119 q 557 282 544 203 l 628 732 q 607 853 640 811 q 497 894 574 894 q 374 853 421 894 q 315 732 328 811 l 244 282 q 265 161 232 203 q 374 119 299 119 m 458 1110 l 540 1194 q 567 1238 565 1221 q 533 1265 571 1265 l 426 1265 l 442 1364 l 588 1364 q 674 1335 644 1364 q 697 1256 704 1306 q 658 1178 690 1213 l 594 1110 l 458 1110 z "},"Ơ":{"ha":833,"x_min":72,"x_max":876,"o":"m 353 -14 q 142 66 211 -14 q 94 282 72 146 l 165 732 q 282 948 188 868 q 518 1028 376 1028 q 700 975 632 1028 q 736 1021 732 985 l 753 1125 l 876 1125 l 860 1017 q 765 888 844 926 q 778 733 792 821 l 707 282 q 590 66 685 146 q 353 -14 494 -14 m 374 119 q 497 161 450 119 q 557 282 544 203 l 628 732 q 607 853 640 811 q 497 894 574 894 q 374 853 421 894 q 315 732 328 811 l 244 282 q 265 161 232 203 q 374 119 299 119 z "},"Ớ":{"ha":833,"x_min":72,"x_max":876,"o":"m 353 -14 q 142 66 211 -14 q 94 282 72 146 l 165 732 q 282 948 188 868 q 518 1028 376 1028 q 700 975 632 1028 q 736 1021 732 985 l 753 1125 l 876 1125 l 860 1017 q 765 888 844 926 q 778 733 792 821 l 707 282 q 590 66 685 146 q 353 -14 494 -14 m 374 119 q 497 161 450 119 q 557 282 544 203 l 628 732 q 607 853 640 811 q 497 894 574 894 q 374 853 421 894 q 315 732 328 811 l 244 282 q 265 161 232 203 q 374 119 299 119 m 422 1125 l 599 1319 l 768 1319 l 581 1125 l 422 1125 z "},"Ợ":{"ha":833,"x_min":72,"x_max":876,"o":"m 353 -14 q 142 66 211 -14 q 94 282 72 146 l 165 732 q 282 948 188 868 q 518 1028 376 1028 q 700 975 632 1028 q 736 1021 732 985 l 753 1125 l 876 1125 l 860 1017 q 765 888 844 926 q 778 733 792 821 l 707 282 q 590 66 685 146 q 353 -14 494 -14 m 374 119 q 497 161 450 119 q 557 282 544 203 l 628 732 q 607 853 640 811 q 497 894 574 894 q 374 853 421 894 q 315 732 328 811 l 244 282 q 265 161 232 203 q 374 119 299 119 m 307 -304 q 233 -279 258 -304 q 215 -210 208 -254 q 256 -141 222 -167 q 338 -115 289 -115 q 412 -141 388 -115 q 428 -210 436 -167 q 390 -279 422 -254 q 307 -304 357 -304 z "},"Ờ":{"ha":833,"x_min":72,"x_max":876,"o":"m 353 -14 q 142 66 211 -14 q 94 282 72 146 l 165 732 q 282 948 188 868 q 518 1028 376 1028 q 700 975 632 1028 q 736 1021 732 985 l 753 1125 l 876 1125 l 860 1017 q 765 888 844 926 q 778 733 792 821 l 707 282 q 590 66 685 146 q 353 -14 494 -14 m 374 119 q 497 161 450 119 q 557 282 544 203 l 628 732 q 607 853 640 811 q 497 894 574 894 q 374 853 421 894 q 315 732 328 811 l 244 282 q 265 161 232 203 q 374 119 299 119 m 465 1125 l 335 1319 l 493 1319 l 613 1125 l 465 1125 z "},"Ở":{"ha":833,"x_min":72,"x_max":876,"o":"m 353 -14 q 142 66 211 -14 q 94 282 72 146 l 165 732 q 282 948 188 868 q 518 1028 376 1028 q 700 975 632 1028 q 736 1021 732 985 l 753 1125 l 876 1125 l 860 1017 q 765 888 844 926 q 778 733 792 821 l 707 282 q 590 66 685 146 q 353 -14 494 -14 m 374 119 q 497 161 450 119 q 557 282 544 203 l 628 732 q 607 853 640 811 q 497 894 574 894 q 374 853 421 894 q 315 732 328 811 l 244 282 q 265 161 232 203 q 374 119 299 119 m 444 1110 l 526 1194 q 553 1238 551 1221 q 519 1265 557 1265 l 413 1265 l 428 1364 l 574 1364 q 660 1335 631 1364 q 683 1256 690 1306 q 644 1178 676 1213 l 581 1110 l 444 1110 z "},"Ỡ":{"ha":833,"x_min":72,"x_max":876,"o":"m 353 -14 q 142 66 211 -14 q 94 282 72 146 l 165 732 q 282 948 188 868 q 518 1028 376 1028 q 700 975 632 1028 q 736 1021 732 985 l 753 1125 l 876 1125 l 860 1017 q 765 888 844 926 q 778 733 792 821 l 707 282 q 590 66 685 146 q 353 -14 494 -14 m 374 119 q 497 161 450 119 q 557 282 544 203 l 628 732 q 607 853 640 811 q 497 894 574 894 q 374 853 421 894 q 315 732 328 811 l 244 282 q 265 161 232 203 q 374 119 299 119 m 617 1126 q 551 1140 575 1126 q 511 1172 526 1154 q 481 1205 496 1190 q 444 1219 467 1219 q 412 1207 425 1219 q 396 1171 399 1194 l 389 1133 l 290 1133 l 297 1176 q 351 1281 308 1242 q 454 1319 393 1319 q 520 1305 496 1319 q 560 1272 544 1290 q 590 1240 575 1254 q 626 1226 604 1226 q 675 1271 667 1226 l 682 1313 l 781 1313 l 774 1268 q 720 1165 763 1203 q 617 1126 678 1126 z "},"Ő":{"ha":833,"x_min":72,"x_max":903,"o":"m 353 -14 q 142 66 211 -14 q 94 282 72 146 l 165 732 q 282 948 188 868 q 518 1028 376 1028 q 729 949 660 1028 q 778 733 799 869 l 707 282 q 590 66 685 146 q 353 -14 494 -14 m 374 119 q 497 161 450 119 q 557 282 544 203 l 628 732 q 607 853 640 811 q 497 894 574 894 q 374 853 421 894 q 315 732 328 811 l 244 282 q 265 161 232 203 q 374 119 299 119 m 568 1125 l 749 1319 l 903 1319 l 713 1125 l 568 1125 m 299 1125 l 481 1319 l 633 1319 l 443 1125 l 299 1125 z "},"Ō":{"ha":833,"x_min":72,"x_max":799,"o":"m 353 -14 q 142 66 211 -14 q 94 282 72 146 l 165 732 q 282 948 188 868 q 518 1028 376 1028 q 729 949 660 1028 q 778 733 799 869 l 707 282 q 590 66 685 146 q 353 -14 494 -14 m 374 119 q 497 161 450 119 q 557 282 544 203 l 628 732 q 607 853 640 811 q 497 894 574 894 q 374 853 421 894 q 315 732 328 811 l 244 282 q 265 161 232 203 q 374 119 299 119 m 308 1158 l 328 1278 l 789 1278 l 769 1158 l 308 1158 z "},"Ǫ":{"ha":833,"x_min":72,"x_max":800,"o":"m 410 -292 q 290 -253 331 -292 q 258 -154 249 -214 q 296 -81 263 -121 q 378 -8 329 -42 q 353 -14 367 -14 q 142 66 211 -14 q 94 282 72 146 l 165 732 q 282 948 188 868 q 518 1028 376 1028 q 730 949 660 1028 q 778 733 800 869 l 707 282 q 650 135 693 199 q 543 33 607 71 l 489 -6 q 422 -69 443 -40 q 396 -125 401 -99 q 409 -171 393 -153 q 458 -189 425 -189 l 546 -189 l 531 -292 l 410 -292 m 375 119 q 497 161 450 119 q 557 282 544 203 l 628 732 q 607 853 640 811 q 497 894 574 894 q 375 853 422 894 q 315 732 328 811 l 244 282 q 265 161 232 203 q 375 119 299 119 z "},"Ø":{"ha":833,"x_min":-29,"x_max":897,"o":"m -29 -56 l 104 129 q 94 282 81 194 l 165 732 q 282 948 188 868 q 518 1028 376 1028 q 710 967 640 1028 l 764 1042 l 897 1042 l 772 868 q 778 733 789 808 l 707 282 q 590 66 685 146 q 353 -14 494 -14 q 171 38 240 -14 l 104 -56 l -29 -56 m 314 732 l 250 331 l 617 839 q 497 894 586 894 q 374 853 421 894 q 314 732 326 811 m 374 119 q 498 161 450 119 q 558 282 546 203 l 618 654 l 263 164 q 374 119 296 119 z "},"Ǿ":{"ha":833,"x_min":-29,"x_max":897,"o":"m -29 -56 l 104 129 q 94 282 81 194 l 165 732 q 282 948 188 868 q 518 1028 376 1028 q 710 967 640 1028 l 764 1042 l 897 1042 l 772 868 q 778 733 789 808 l 707 282 q 590 66 685 146 q 353 -14 494 -14 q 171 38 240 -14 l 104 -56 l -29 -56 m 314 732 l 250 331 l 617 839 q 497 894 586 894 q 374 853 421 894 q 314 732 326 811 m 374 119 q 498 161 450 119 q 558 282 546 203 l 618 654 l 263 164 q 374 119 296 119 m 436 1125 l 613 1319 l 782 1319 l 594 1125 l 436 1125 z "},"Õ":{"ha":833,"x_min":72,"x_max":799,"o":"m 353 -14 q 142 66 211 -14 q 94 282 72 146 l 165 732 q 282 948 188 868 q 518 1028 376 1028 q 729 949 660 1028 q 778 733 799 869 l 707 282 q 590 66 685 146 q 353 -14 494 -14 m 374 119 q 497 161 450 119 q 557 282 544 203 l 628 732 q 607 853 640 811 q 497 894 574 894 q 374 853 421 894 q 315 732 328 811 l 244 282 q 265 161 232 203 q 374 119 299 119 m 631 1126 q 565 1140 589 1126 q 525 1172 540 1154 q 495 1205 510 1190 q 458 1219 481 1219 q 426 1207 439 1219 q 410 1171 413 1194 l 403 1133 l 304 1133 l 311 1176 q 365 1281 322 1242 q 468 1319 407 1319 q 534 1305 510 1319 q 574 1272 558 1290 q 603 1240 589 1254 q 640 1226 618 1226 q 689 1271 681 1226 l 696 1313 l 794 1313 l 788 1268 q 734 1165 776 1203 q 631 1126 692 1126 z "},"Œ":{"ha":833,"x_min":11,"x_max":901,"o":"m 199 -11 q 56 60 100 -11 q 32 257 11 132 l 111 760 q 198 956 131 885 q 364 1028 265 1028 q 442 1008 413 1028 q 484 959 471 988 q 497 903 497 931 l 504 903 l 522 1014 l 901 1014 l 879 882 l 640 882 l 593 589 l 797 589 l 776 457 l 572 457 l 521 132 l 761 132 l 740 0 l 361 0 l 379 114 l 372 114 q 342 58 364 86 q 283 9 319 29 q 199 -11 247 -11 m 267 118 q 353 155 318 118 q 400 257 389 192 l 479 760 q 465 862 489 825 q 390 899 442 899 q 302 861 338 899 q 257 760 267 824 l 178 257 q 190 155 167 192 q 267 118 214 118 z "},"P":{"ha":833,"x_min":56,"x_max":846,"o":"m 56 0 l 217 1014 l 549 1014 q 771 931 696 1014 q 824 708 846 847 q 758 547 808 615 q 628 440 707 478 q 453 403 550 403 l 269 403 l 206 0 l 56 0 m 290 538 l 474 538 q 604 584 550 538 q 671 708 658 631 q 644 833 683 786 q 528 879 606 879 l 346 879 l 290 538 z "},"Þ":{"ha":833,"x_min":56,"x_max":815,"o":"m 56 0 l 217 1014 l 367 1014 l 335 813 l 533 813 q 744 735 674 813 q 794 528 815 657 q 679 321 774 397 q 443 244 585 244 l 244 244 l 206 0 l 56 0 m 265 374 l 453 374 q 581 415 531 374 q 642 528 631 456 q 615 641 653 600 q 501 682 578 682 l 314 682 l 265 374 z "},"Q":{"ha":833,"x_min":65,"x_max":806,"o":"m 481 -250 l 375 -12 q 353 -14 363 -14 q 138 68 210 -14 q 86 288 65 150 l 157 728 q 220 886 171 818 q 346 991 269 954 q 518 1028 422 1028 q 733 946 661 1028 q 785 728 806 864 l 714 288 q 648 124 700 193 q 517 19 596 54 l 638 -250 l 481 -250 m 374 118 q 501 164 451 118 q 564 288 551 210 l 635 728 q 610 851 647 806 q 499 896 574 896 q 371 851 422 896 q 307 728 319 806 l 236 288 q 260 164 224 210 q 374 118 297 118 z "},"R":{"ha":833,"x_min":56,"x_max":818,"o":"m 56 0 l 217 1014 l 535 1014 q 694 977 629 1014 q 789 874 760 940 q 803 717 818 807 q 722 538 788 614 q 563 435 657 463 l 704 0 l 540 0 l 414 417 l 271 417 l 206 0 l 56 0 m 292 550 l 460 550 q 587 594 535 550 q 650 714 639 639 q 625 835 663 790 q 513 881 588 881 l 344 881 l 292 550 z "},"Ŕ":{"ha":833,"x_min":56,"x_max":818,"o":"m 56 0 l 217 1014 l 535 1014 q 694 977 629 1014 q 789 874 760 940 q 803 717 818 807 q 722 538 788 614 q 563 435 657 463 l 704 0 l 540 0 l 414 417 l 271 417 l 206 0 l 56 0 m 292 550 l 460 550 q 587 594 535 550 q 650 714 639 639 q 625 835 663 790 q 513 881 588 881 l 344 881 l 292 550 m 436 1125 l 613 1319 l 782 1319 l 594 1125 l 436 1125 z "},"Ř":{"ha":833,"x_min":56,"x_max":825,"o":"m 56 0 l 217 1014 l 535 1014 q 694 977 629 1014 q 789 874 760 940 q 803 717 818 807 q 722 538 788 614 q 563 435 657 463 l 704 0 l 540 0 l 414 417 l 271 417 l 206 0 l 56 0 m 292 550 l 460 550 q 587 594 535 550 q 650 714 639 639 q 625 835 663 790 q 513 881 588 881 l 344 881 l 292 550 m 464 1125 l 303 1319 l 451 1319 l 546 1214 l 667 1319 l 825 1319 l 603 1125 l 464 1125 z "},"Ŗ":{"ha":833,"x_min":56,"x_max":818,"o":"m 56 0 l 217 1014 l 535 1014 q 694 977 629 1014 q 789 874 760 940 q 803 717 818 807 q 722 538 788 614 q 563 435 657 463 l 704 0 l 540 0 l 414 417 l 271 417 l 206 0 l 56 0 m 292 550 l 460 550 q 587 594 535 550 q 650 714 639 639 q 625 835 663 790 q 513 881 588 881 l 344 881 l 292 550 m 144 -333 l 308 -132 l 472 -132 l 290 -333 l 144 -333 z "},"S":{"ha":833,"x_min":51,"x_max":807,"o":"m 357 -14 q 128 62 204 -14 q 71 268 51 138 l 221 268 q 251 159 210 199 q 379 119 293 119 q 512 158 460 119 q 575 265 564 197 q 559 367 583 325 q 482 426 535 410 l 361 463 q 206 571 256 494 q 171 751 156 647 q 232 897 185 835 q 354 994 279 960 q 524 1029 429 1029 q 735 953 663 1029 q 788 753 807 878 l 638 753 q 613 858 649 819 q 501 896 578 896 q 379 860 426 896 q 324 761 332 825 q 338 659 314 701 q 415 600 361 617 l 539 561 q 692 453 643 529 q 725 271 742 376 q 661 121 711 185 q 533 22 611 57 q 357 -14 454 -14 z "},"Ś":{"ha":833,"x_min":51,"x_max":807,"o":"m 357 -14 q 128 62 204 -14 q 71 268 51 138 l 221 268 q 251 159 210 199 q 379 119 293 119 q 512 158 460 119 q 575 265 564 197 q 559 367 583 325 q 482 426 535 410 l 361 463 q 206 571 256 494 q 171 751 156 647 q 232 897 185 835 q 354 994 279 960 q 524 1029 429 1029 q 735 953 663 1029 q 788 753 807 878 l 638 753 q 613 858 649 819 q 501 896 578 896 q 379 860 426 896 q 324 761 332 825 q 338 659 314 701 q 415 600 361 617 l 539 561 q 692 453 643 529 q 725 271 742 376 q 661 121 711 185 q 533 22 611 57 q 357 -14 454 -14 m 436 1125 l 613 1319 l 782 1319 l 594 1125 l 436 1125 z "},"Š":{"ha":833,"x_min":51,"x_max":825,"o":"m 357 -14 q 128 62 204 -14 q 71 268 51 138 l 221 268 q 251 159 210 199 q 379 119 293 119 q 512 158 460 119 q 575 265 564 197 q 559 367 583 325 q 482 426 535 410 l 361 463 q 206 571 256 494 q 171 751 156 647 q 232 897 185 835 q 354 994 279 960 q 524 1029 429 1029 q 735 953 663 1029 q 788 753 807 878 l 638 753 q 613 858 649 819 q 501 896 578 896 q 379 860 426 896 q 324 761 332 825 q 338 659 314 701 q 415 600 361 617 l 539 561 q 692 453 643 529 q 725 271 742 376 q 661 121 711 185 q 533 22 611 57 q 357 -14 454 -14 m 464 1125 l 303 1319 l 451 1319 l 546 1214 l 667 1319 l 825 1319 l 603 1125 l 464 1125 z "},"Ş":{"ha":833,"x_min":54,"x_max":807,"o":"m 174 -292 l 186 -208 l 288 -208 q 341 -192 319 -208 q 367 -158 363 -176 q 334 -114 371 -132 q 226 -96 297 -96 l 274 -7 q 108 85 163 13 q 71 268 54 157 l 221 268 q 251 159 210 199 q 379 119 293 119 q 512 158 460 119 q 575 265 564 197 q 559 367 583 325 q 482 426 535 410 l 361 463 q 206 571 256 494 q 171 751 156 647 q 232 897 185 835 q 354 994 279 960 q 524 1029 429 1029 q 735 953 663 1029 q 788 753 807 878 l 638 753 q 613 858 649 819 q 501 896 578 896 q 379 860 426 896 q 324 761 332 825 q 338 659 314 701 q 415 600 361 617 l 539 561 q 692 453 643 529 q 725 271 742 376 q 661 121 711 185 q 533 22 611 57 q 357 -14 454 -14 l 339 -50 q 415 -69 376 -54 q 478 -109 454 -83 q 496 -172 501 -135 q 434 -256 488 -221 q 301 -292 381 -292 l 174 -292 z "},"Ŝ":{"ha":833,"x_min":51,"x_max":807,"o":"m 357 -14 q 128 62 204 -14 q 71 268 51 138 l 221 268 q 251 159 210 199 q 379 119 293 119 q 512 158 460 119 q 575 265 564 197 q 559 367 583 325 q 482 426 535 410 l 361 463 q 206 571 256 494 q 171 751 156 647 q 232 897 185 835 q 354 994 279 960 q 524 1029 429 1029 q 735 953 663 1029 q 788 753 807 878 l 638 753 q 613 858 649 819 q 501 896 578 896 q 379 860 426 896 q 324 761 332 825 q 338 659 314 701 q 415 600 361 617 l 539 561 q 692 453 643 529 q 725 271 742 376 q 661 121 711 185 q 533 22 611 57 q 357 -14 454 -14 m 272 1125 l 494 1319 l 633 1319 l 794 1125 l 646 1125 l 553 1231 l 431 1125 l 272 1125 z "},"Ș":{"ha":833,"x_min":51,"x_max":807,"o":"m 357 -14 q 128 62 204 -14 q 71 268 51 138 l 221 268 q 251 159 210 199 q 379 119 293 119 q 512 158 460 119 q 575 265 564 197 q 559 367 583 325 q 482 426 535 410 l 361 463 q 206 571 256 494 q 171 751 156 647 q 232 897 185 835 q 354 994 279 960 q 524 1029 429 1029 q 735 953 663 1029 q 788 753 807 878 l 638 753 q 613 858 649 819 q 501 896 578 896 q 379 860 426 896 q 324 761 332 825 q 338 659 314 701 q 415 600 361 617 l 539 561 q 692 453 643 529 q 725 271 742 376 q 661 121 711 185 q 533 22 611 57 q 357 -14 454 -14 m 144 -333 l 308 -132 l 472 -132 l 290 -333 l 144 -333 z "},"ẞ":{"ha":833,"x_min":53,"x_max":842,"o":"m 53 0 l 168 722 q 230 876 182 810 q 352 978 278 942 q 517 1014 426 1014 l 842 1014 l 818 869 l 554 586 q 711 497 660 575 q 744 299 763 419 q 681 142 731 208 q 555 38 631 75 q 385 0 479 0 l 297 0 l 318 132 l 393 132 q 524 178 472 132 q 590 304 576 225 q 564 426 601 381 q 447 472 526 472 l 385 472 l 403 594 l 667 882 l 496 882 q 373 839 422 882 q 311 722 324 796 l 197 0 l 53 0 z "},"Ə":{"ha":833,"x_min":75,"x_max":797,"o":"m 353 -14 q 144 67 213 -14 q 96 282 75 149 l 140 563 l 599 563 l 625 733 q 606 853 638 811 q 499 896 575 896 q 376 853 422 896 q 318 732 331 811 l 168 732 q 283 948 189 868 q 518 1028 378 1028 q 729 949 661 1028 q 775 732 797 869 l 704 282 q 643 126 690 193 q 522 23 596 60 q 353 -14 447 -14 m 372 107 q 497 152 453 107 q 554 282 540 197 l 581 449 l 272 449 l 246 282 q 372 107 218 107 z "},"T":{"ha":833,"x_min":149,"x_max":864,"o":"m 281 0 l 419 876 l 149 876 l 171 1014 l 864 1014 l 842 876 l 569 876 l 431 0 l 281 0 z "},"Ŧ":{"ha":833,"x_min":149,"x_max":864,"o":"m 281 0 l 344 401 l 151 401 l 171 522 l 364 522 l 419 876 l 149 876 l 171 1014 l 864 1014 l 842 876 l 569 876 l 514 522 l 707 522 l 688 401 l 494 401 l 431 0 l 281 0 z "},"Ť":{"ha":833,"x_min":149,"x_max":864,"o":"m 281 0 l 419 876 l 149 876 l 171 1014 l 864 1014 l 842 876 l 569 876 l 431 0 l 281 0 m 464 1125 l 303 1319 l 451 1319 l 546 1214 l 667 1319 l 825 1319 l 603 1125 l 464 1125 z "},"Ţ":{"ha":833,"x_min":149,"x_max":864,"o":"m 281 0 l 419 876 l 149 876 l 171 1014 l 864 1014 l 842 876 l 569 876 l 431 0 l 406 -50 q 481 -69 443 -54 q 544 -109 519 -83 q 563 -172 568 -135 q 501 -256 554 -221 q 368 -292 447 -292 l 240 -292 l 253 -208 l 354 -208 q 408 -192 386 -208 q 432 -158 429 -176 q 401 -114 438 -132 q 292 -96 364 -96 l 344 0 l 281 0 z "},"Ț":{"ha":833,"x_min":144,"x_max":864,"o":"m 281 0 l 419 876 l 149 876 l 171 1014 l 864 1014 l 842 876 l 569 876 l 431 0 l 281 0 m 144 -333 l 308 -132 l 472 -132 l 290 -333 l 144 -333 z "},"U":{"ha":833,"x_min":75,"x_max":821,"o":"m 353 -14 q 141 66 207 -14 q 97 283 75 146 l 213 1014 l 363 1014 l 247 285 q 266 163 235 207 q 374 118 297 118 q 497 163 450 118 q 556 285 543 207 l 671 1014 l 821 1014 l 706 283 q 591 65 683 144 q 353 -14 499 -14 z "},"Ú":{"ha":833,"x_min":75,"x_max":821,"o":"m 353 -14 q 141 66 207 -14 q 97 283 75 146 l 213 1014 l 363 1014 l 247 285 q 266 163 235 207 q 374 118 297 118 q 497 163 450 118 q 556 285 543 207 l 671 1014 l 821 1014 l 706 283 q 591 65 683 144 q 353 -14 499 -14 m 436 1125 l 613 1319 l 782 1319 l 594 1125 l 436 1125 z "},"Ŭ":{"ha":833,"x_min":75,"x_max":821,"o":"m 353 -14 q 141 66 207 -14 q 97 283 75 146 l 213 1014 l 363 1014 l 247 285 q 266 163 235 207 q 374 118 297 118 q 497 163 450 118 q 556 285 543 207 l 671 1014 l 821 1014 l 706 283 q 591 65 683 144 q 353 -14 499 -14 m 532 1117 q 373 1172 428 1117 q 332 1319 318 1228 l 446 1319 q 466 1239 439 1269 q 544 1208 493 1208 q 633 1239 596 1208 q 678 1319 669 1269 l 796 1319 q 709 1172 782 1228 q 532 1117 636 1117 z "},"Û":{"ha":833,"x_min":75,"x_max":821,"o":"m 353 -14 q 141 66 207 -14 q 97 283 75 146 l 213 1014 l 363 1014 l 247 285 q 266 163 235 207 q 374 118 297 118 q 497 163 450 118 q 556 285 543 207 l 671 1014 l 821 1014 l 706 283 q 591 65 683 144 q 353 -14 499 -14 m 272 1125 l 494 1319 l 633 1319 l 794 1125 l 646 1125 l 553 1231 l 431 1125 l 272 1125 z "},"Ü":{"ha":833,"x_min":75,"x_max":821,"o":"m 353 -14 q 141 66 207 -14 q 97 283 75 146 l 213 1014 l 363 1014 l 247 285 q 266 163 235 207 q 374 118 297 118 q 497 163 450 118 q 556 285 543 207 l 671 1014 l 821 1014 l 706 283 q 591 65 683 144 q 353 -14 499 -14 m 693 1129 q 627 1154 649 1129 q 613 1222 606 1179 q 649 1292 619 1267 q 724 1318 679 1318 q 789 1292 767 1318 q 803 1222 811 1267 q 766 1154 796 1179 q 693 1129 736 1129 m 375 1129 q 310 1154 332 1129 q 294 1222 288 1179 q 332 1292 301 1267 q 406 1318 363 1318 q 472 1292 450 1318 q 486 1222 493 1267 q 449 1154 479 1179 q 375 1129 419 1129 z "},"Ụ":{"ha":833,"x_min":75,"x_max":821,"o":"m 353 -14 q 141 66 207 -14 q 97 283 75 146 l 213 1014 l 363 1014 l 247 285 q 266 163 235 207 q 374 118 297 118 q 497 163 450 118 q 556 285 543 207 l 671 1014 l 821 1014 l 706 283 q 591 65 683 144 q 353 -14 499 -14 m 307 -304 q 233 -279 258 -304 q 215 -210 208 -254 q 256 -141 222 -167 q 338 -115 289 -115 q 412 -141 388 -115 q 428 -210 436 -167 q 390 -279 422 -254 q 307 -304 357 -304 z "},"Ù":{"ha":833,"x_min":75,"x_max":821,"o":"m 353 -14 q 141 66 207 -14 q 97 283 75 146 l 213 1014 l 363 1014 l 247 285 q 266 163 235 207 q 374 118 297 118 q 497 163 450 118 q 556 285 543 207 l 671 1014 l 821 1014 l 706 283 q 591 65 683 144 q 353 -14 499 -14 m 479 1125 l 349 1319 l 507 1319 l 626 1125 l 479 1125 z "},"Ủ":{"ha":833,"x_min":75,"x_max":821,"o":"m 353 -14 q 141 66 207 -14 q 97 283 75 146 l 213 1014 l 363 1014 l 247 285 q 266 163 235 207 q 374 118 297 118 q 497 163 450 118 q 556 285 543 207 l 671 1014 l 821 1014 l 706 283 q 591 65 683 144 q 353 -14 499 -14 m 458 1110 l 540 1194 q 567 1238 565 1221 q 533 1265 571 1265 l 426 1265 l 442 1364 l 588 1364 q 674 1335 644 1364 q 697 1256 704 1306 q 658 1178 690 1213 l 594 1110 l 458 1110 z "},"Ư":{"ha":833,"x_min":75,"x_max":974,"o":"m 353 -14 q 141 66 207 -14 q 97 283 75 146 l 213 1014 l 363 1014 l 247 285 q 266 163 235 207 q 374 118 297 118 q 497 163 450 118 q 556 285 543 207 l 671 1014 l 778 1014 q 815 1027 800 1014 q 833 1063 831 1040 l 850 1167 l 974 1167 l 956 1057 q 906 960 946 999 q 804 911 865 921 l 706 283 q 591 65 683 144 q 353 -14 499 -14 z "},"Ứ":{"ha":833,"x_min":75,"x_max":974,"o":"m 353 -14 q 141 66 207 -14 q 97 283 75 146 l 213 1014 l 363 1014 l 247 285 q 266 163 235 207 q 374 118 297 118 q 497 163 450 118 q 556 285 543 207 l 671 1014 l 778 1014 q 815 1027 800 1014 q 833 1063 831 1040 l 850 1167 l 974 1167 l 956 1057 q 906 960 946 999 q 804 911 865 921 l 706 283 q 591 65 683 144 q 353 -14 499 -14 m 436 1125 l 613 1319 l 782 1319 l 594 1125 l 436 1125 z "},"Ự":{"ha":833,"x_min":75,"x_max":974,"o":"m 353 -14 q 141 66 207 -14 q 97 283 75 146 l 213 1014 l 363 1014 l 247 285 q 266 163 235 207 q 374 118 297 118 q 497 163 450 118 q 556 285 543 207 l 671 1014 l 778 1014 q 815 1027 800 1014 q 833 1063 831 1040 l 850 1167 l 974 1167 l 956 1057 q 906 960 946 999 q 804 911 865 921 l 706 283 q 591 65 683 144 q 353 -14 499 -14 m 307 -304 q 233 -279 258 -304 q 215 -210 208 -254 q 256 -141 222 -167 q 338 -115 289 -115 q 412 -141 388 -115 q 428 -210 436 -167 q 390 -279 422 -254 q 307 -304 357 -304 z "},"Ừ":{"ha":833,"x_min":75,"x_max":974,"o":"m 353 -14 q 141 66 207 -14 q 97 283 75 146 l 213 1014 l 363 1014 l 247 285 q 266 163 235 207 q 374 118 297 118 q 497 163 450 118 q 556 285 543 207 l 671 1014 l 778 1014 q 815 1027 800 1014 q 833 1063 831 1040 l 850 1167 l 974 1167 l 956 1057 q 906 960 946 999 q 804 911 865 921 l 706 283 q 591 65 683 144 q 353 -14 499 -14 m 479 1125 l 349 1319 l 507 1319 l 626 1125 l 479 1125 z "},"Ử":{"ha":833,"x_min":75,"x_max":974,"o":"m 353 -14 q 141 66 207 -14 q 97 283 75 146 l 213 1014 l 363 1014 l 247 285 q 266 163 235 207 q 374 118 297 118 q 497 163 450 118 q 556 285 543 207 l 671 1014 l 778 1014 q 815 1027 800 1014 q 833 1063 831 1040 l 850 1167 l 974 1167 l 956 1057 q 906 960 946 999 q 804 911 865 921 l 706 283 q 591 65 683 144 q 353 -14 499 -14 m 458 1110 l 540 1194 q 567 1238 565 1221 q 533 1265 571 1265 l 426 1265 l 442 1364 l 588 1364 q 674 1335 644 1364 q 697 1256 704 1306 q 658 1178 690 1213 l 594 1110 l 458 1110 z "},"Ữ":{"ha":833,"x_min":75,"x_max":974,"o":"m 353 -14 q 141 66 207 -14 q 97 283 75 146 l 213 1014 l 363 1014 l 247 285 q 266 163 235 207 q 374 118 297 118 q 497 163 450 118 q 556 285 543 207 l 671 1014 l 778 1014 q 815 1027 800 1014 q 833 1063 831 1040 l 850 1167 l 974 1167 l 956 1057 q 906 960 946 999 q 804 911 865 921 l 706 283 q 591 65 683 144 q 353 -14 499 -14 m 631 1126 q 565 1140 589 1126 q 525 1172 540 1154 q 495 1205 510 1190 q 458 1219 481 1219 q 426 1207 439 1219 q 410 1171 413 1194 l 403 1133 l 304 1133 l 311 1176 q 365 1281 322 1242 q 468 1319 407 1319 q 534 1305 510 1319 q 574 1272 558 1290 q 603 1240 589 1254 q 640 1226 618 1226 q 689 1271 681 1226 l 696 1313 l 794 1313 l 788 1268 q 734 1165 776 1203 q 631 1126 692 1126 z "},"Ű":{"ha":833,"x_min":75,"x_max":903,"o":"m 353 -14 q 141 66 207 -14 q 97 283 75 146 l 213 1014 l 363 1014 l 247 285 q 266 163 235 207 q 374 118 297 118 q 497 163 450 118 q 556 285 543 207 l 671 1014 l 821 1014 l 706 283 q 591 65 683 144 q 353 -14 499 -14 m 568 1125 l 749 1319 l 903 1319 l 713 1125 l 568 1125 m 299 1125 l 481 1319 l 633 1319 l 443 1125 l 299 1125 z "},"Ū":{"ha":833,"x_min":75,"x_max":821,"o":"m 353 -14 q 141 66 207 -14 q 97 283 75 146 l 213 1014 l 363 1014 l 247 285 q 266 163 235 207 q 374 118 297 118 q 497 163 450 118 q 556 285 543 207 l 671 1014 l 821 1014 l 706 283 q 591 65 683 144 q 353 -14 499 -14 m 308 1158 l 328 1278 l 789 1278 l 769 1158 l 308 1158 z "},"Ų":{"ha":833,"x_min":75,"x_max":821,"o":"m 408 -292 q 288 -253 329 -292 q 257 -154 247 -214 q 296 -81 263 -121 q 378 -8 329 -42 q 353 -14 365 -14 q 143 66 211 -14 q 96 282 75 146 l 213 1014 l 363 1014 l 246 282 q 266 161 233 203 q 374 119 299 119 q 496 161 450 119 q 554 282 542 203 l 671 1014 l 821 1014 l 704 282 q 649 135 692 199 q 543 33 607 71 l 489 -6 q 422 -69 443 -40 q 396 -125 400 -99 q 408 -171 392 -153 q 458 -189 425 -189 l 546 -189 l 529 -292 l 408 -292 z "},"Ů":{"ha":833,"x_min":75,"x_max":821,"o":"m 353 -14 q 141 66 207 -14 q 97 283 75 146 l 213 1014 l 363 1014 l 247 285 q 266 163 235 207 q 374 118 297 118 q 497 163 450 118 q 556 285 543 207 l 671 1014 l 821 1014 l 706 283 q 591 65 683 144 q 353 -14 499 -14 m 522 1058 q 403 1103 444 1058 q 374 1222 363 1149 q 440 1341 385 1296 q 575 1386 496 1386 q 694 1341 653 1386 q 724 1222 735 1296 q 657 1103 713 1149 q 522 1058 601 1058 m 536 1139 q 600 1162 574 1139 q 632 1222 626 1185 q 619 1283 639 1260 q 563 1307 600 1307 q 499 1283 525 1307 q 465 1222 472 1260 q 479 1162 460 1185 q 536 1139 499 1139 z "},"Ũ":{"ha":833,"x_min":75,"x_max":821,"o":"m 353 -14 q 141 66 207 -14 q 97 283 75 146 l 213 1014 l 363 1014 l 247 285 q 266 163 235 207 q 374 118 297 118 q 497 163 450 118 q 556 285 543 207 l 671 1014 l 821 1014 l 706 283 q 591 65 683 144 q 353 -14 499 -14 m 631 1126 q 565 1140 589 1126 q 525 1172 540 1154 q 495 1205 510 1190 q 458 1219 481 1219 q 426 1207 439 1219 q 410 1171 413 1194 l 403 1133 l 304 1133 l 311 1176 q 365 1281 322 1242 q 468 1319 407 1319 q 534 1305 510 1319 q 574 1272 558 1290 q 603 1240 589 1254 q 640 1226 618 1226 q 689 1271 681 1226 l 696 1313 l 794 1313 l 788 1268 q 734 1165 776 1203 q 631 1126 692 1126 z "},"V":{"ha":833,"x_min":160,"x_max":875,"o":"m 256 0 l 160 1014 l 311 1014 l 367 340 q 374 220 371 279 q 378 128 378 161 q 408 220 388 161 q 453 340 428 279 l 719 1014 l 875 1014 l 456 0 l 256 0 z "},"W":{"ha":833,"x_min":78,"x_max":906,"o":"m 78 0 l 129 1014 l 260 1014 l 213 286 q 205 192 210 244 q 196 106 200 139 q 217 192 204 139 q 243 286 231 244 l 447 1014 l 589 1014 l 554 286 q 551 192 553 244 q 546 106 549 139 q 565 192 554 139 q 588 286 576 244 l 774 1014 l 906 1014 l 629 0 l 456 0 l 490 738 q 497 832 493 781 q 503 915 500 883 q 482 832 494 883 q 457 738 469 781 l 253 0 l 78 0 z "},"Ẃ":{"ha":833,"x_min":78,"x_max":906,"o":"m 78 0 l 129 1014 l 260 1014 l 213 286 q 205 192 210 244 q 196 106 200 139 q 217 192 204 139 q 243 286 231 244 l 447 1014 l 589 1014 l 554 286 q 551 192 553 244 q 546 106 549 139 q 565 192 554 139 q 588 286 576 244 l 774 1014 l 906 1014 l 629 0 l 456 0 l 490 738 q 497 832 493 781 q 503 915 500 883 q 482 832 494 883 q 457 738 469 781 l 253 0 l 78 0 m 436 1125 l 613 1319 l 782 1319 l 594 1125 l 436 1125 z "},"Ŵ":{"ha":833,"x_min":78,"x_max":906,"o":"m 78 0 l 129 1014 l 260 1014 l 213 286 q 205 192 210 244 q 196 106 200 139 q 217 192 204 139 q 243 286 231 244 l 447 1014 l 589 1014 l 554 286 q 551 192 553 244 q 546 106 549 139 q 565 192 554 139 q 588 286 576 244 l 774 1014 l 906 1014 l 629 0 l 456 0 l 490 738 q 497 832 493 781 q 503 915 500 883 q 482 832 494 883 q 457 738 469 781 l 253 0 l 78 0 m 272 1125 l 494 1319 l 633 1319 l 794 1125 l 646 1125 l 553 1231 l 431 1125 l 272 1125 z "},"Ẅ":{"ha":833,"x_min":78,"x_max":906,"o":"m 78 0 l 129 1014 l 260 1014 l 213 286 q 205 192 210 244 q 196 106 200 139 q 217 192 204 139 q 243 286 231 244 l 447 1014 l 589 1014 l 554 286 q 551 192 553 244 q 546 106 549 139 q 565 192 554 139 q 588 286 576 244 l 774 1014 l 906 1014 l 629 0 l 456 0 l 490 738 q 497 832 493 781 q 503 915 500 883 q 482 832 494 883 q 457 738 469 781 l 253 0 l 78 0 m 693 1129 q 627 1154 649 1129 q 613 1222 606 1179 q 649 1292 619 1267 q 724 1318 679 1318 q 789 1292 767 1318 q 803 1222 811 1267 q 766 1154 796 1179 q 693 1129 736 1129 m 375 1129 q 310 1154 332 1129 q 294 1222 288 1179 q 332 1292 301 1267 q 406 1318 363 1318 q 472 1292 450 1318 q 486 1222 493 1267 q 449 1154 479 1179 q 375 1129 419 1129 z "},"Ẁ":{"ha":833,"x_min":78,"x_max":906,"o":"m 78 0 l 129 1014 l 260 1014 l 213 286 q 205 192 210 244 q 196 106 200 139 q 217 192 204 139 q 243 286 231 244 l 447 1014 l 589 1014 l 554 286 q 551 192 553 244 q 546 106 549 139 q 565 192 554 139 q 588 286 576 244 l 774 1014 l 906 1014 l 629 0 l 456 0 l 490 738 q 497 832 493 781 q 503 915 500 883 q 482 832 494 883 q 457 738 469 781 l 253 0 l 78 0 m 479 1125 l 349 1319 l 507 1319 l 626 1125 l 479 1125 z "},"X":{"ha":833,"x_min":-14,"x_max":869,"o":"m -14 0 l 353 521 l 164 1014 l 328 1014 l 425 738 q 443 685 433 711 q 457 644 453 658 q 480 685 465 658 q 513 738 494 711 l 701 1014 l 869 1014 l 524 519 l 725 0 l 563 0 l 451 300 q 433 353 442 326 q 421 396 424 381 q 395 353 411 381 q 363 301 379 326 l 157 0 l -14 0 z "},"Y":{"ha":833,"x_min":140,"x_max":893,"o":"m 281 0 l 339 374 l 140 1014 l 293 1014 l 411 631 q 428 560 422 593 q 436 510 435 526 q 459 560 443 526 q 497 631 475 593 l 735 1014 l 893 1014 l 489 374 l 431 0 l 281 0 z "},"Ý":{"ha":833,"x_min":140,"x_max":893,"o":"m 281 0 l 339 374 l 140 1014 l 293 1014 l 411 631 q 428 560 422 593 q 436 510 435 526 q 459 560 443 526 q 497 631 475 593 l 735 1014 l 893 1014 l 489 374 l 431 0 l 281 0 m 436 1125 l 613 1319 l 782 1319 l 594 1125 l 436 1125 z "},"Ŷ":{"ha":833,"x_min":140,"x_max":893,"o":"m 281 0 l 339 374 l 140 1014 l 293 1014 l 411 631 q 428 560 422 593 q 436 510 435 526 q 459 560 443 526 q 497 631 475 593 l 735 1014 l 893 1014 l 489 374 l 431 0 l 281 0 m 272 1125 l 494 1319 l 633 1319 l 794 1125 l 646 1125 l 553 1231 l 431 1125 l 272 1125 z "},"Ÿ":{"ha":833,"x_min":140,"x_max":893,"o":"m 281 0 l 339 374 l 140 1014 l 293 1014 l 411 631 q 428 560 422 593 q 436 510 435 526 q 459 560 443 526 q 497 631 475 593 l 735 1014 l 893 1014 l 489 374 l 431 0 l 281 0 m 693 1129 q 627 1154 649 1129 q 613 1222 606 1179 q 649 1292 619 1267 q 724 1318 679 1318 q 789 1292 767 1318 q 803 1222 811 1267 q 766 1154 796 1179 q 693 1129 736 1129 m 375 1129 q 310 1154 332 1129 q 294 1222 288 1179 q 332 1292 301 1267 q 406 1318 363 1318 q 472 1292 450 1318 q 486 1222 493 1267 q 449 1154 479 1179 q 375 1129 419 1129 z "},"Ỵ":{"ha":833,"x_min":140,"x_max":893,"o":"m 281 0 l 339 374 l 140 1014 l 293 1014 l 411 631 q 428 560 422 593 q 436 510 435 526 q 459 560 443 526 q 497 631 475 593 l 735 1014 l 893 1014 l 489 374 l 431 0 l 281 0 m 307 -304 q 233 -279 258 -304 q 215 -210 208 -254 q 256 -141 222 -167 q 338 -115 289 -115 q 412 -141 388 -115 q 428 -210 436 -167 q 390 -279 422 -254 q 307 -304 357 -304 z "},"Ỳ":{"ha":833,"x_min":140,"x_max":893,"o":"m 281 0 l 339 374 l 140 1014 l 293 1014 l 411 631 q 428 560 422 593 q 436 510 435 526 q 459 560 443 526 q 497 631 475 593 l 735 1014 l 893 1014 l 489 374 l 431 0 l 281 0 m 479 1125 l 349 1319 l 507 1319 l 626 1125 l 479 1125 z "},"Ỷ":{"ha":833,"x_min":140,"x_max":893,"o":"m 281 0 l 339 374 l 140 1014 l 293 1014 l 411 631 q 428 560 422 593 q 436 510 435 526 q 459 560 443 526 q 497 631 475 593 l 735 1014 l 893 1014 l 489 374 l 431 0 l 281 0 m 458 1110 l 540 1194 q 567 1238 565 1221 q 533 1265 571 1265 l 426 1265 l 442 1364 l 588 1364 q 674 1335 644 1364 q 697 1256 704 1306 q 658 1178 690 1213 l 594 1110 l 458 1110 z "},"Ȳ":{"ha":833,"x_min":140,"x_max":893,"o":"m 281 0 l 339 374 l 140 1014 l 293 1014 l 411 631 q 428 560 422 593 q 436 510 435 526 q 459 560 443 526 q 497 631 475 593 l 735 1014 l 893 1014 l 489 374 l 431 0 l 281 0 m 308 1158 l 328 1278 l 789 1278 l 769 1158 l 308 1158 z "},"Ỹ":{"ha":833,"x_min":140,"x_max":893,"o":"m 281 0 l 339 374 l 140 1014 l 293 1014 l 411 631 q 428 560 422 593 q 436 510 435 526 q 459 560 443 526 q 497 631 475 593 l 735 1014 l 893 1014 l 489 374 l 431 0 l 281 0 m 631 1126 q 565 1140 589 1126 q 525 1172 540 1154 q 495 1205 510 1190 q 458 1219 481 1219 q 426 1207 439 1219 q 410 1171 413 1194 l 403 1133 l 304 1133 l 311 1176 q 365 1281 322 1242 q 468 1319 407 1319 q 534 1305 510 1319 q 574 1272 558 1290 q 603 1240 589 1254 q 640 1226 618 1226 q 689 1271 681 1226 l 696 1313 l 794 1313 l 788 1268 q 734 1165 776 1203 q 631 1126 692 1126 z "},"Z":{"ha":833,"x_min":53,"x_max":806,"o":"m 53 0 l 76 146 l 618 876 l 200 876 l 222 1014 l 806 1014 l 781 868 l 239 138 l 681 138 l 658 0 l 53 0 z "},"Ź":{"ha":833,"x_min":53,"x_max":806,"o":"m 53 0 l 76 146 l 618 876 l 200 876 l 222 1014 l 806 1014 l 781 868 l 239 138 l 681 138 l 658 0 l 53 0 m 436 1125 l 613 1319 l 782 1319 l 594 1125 l 436 1125 z "},"Ž":{"ha":833,"x_min":53,"x_max":825,"o":"m 53 0 l 76 146 l 618 876 l 200 876 l 222 1014 l 806 1014 l 781 868 l 239 138 l 681 138 l 658 0 l 53 0 m 464 1125 l 303 1319 l 451 1319 l 546 1214 l 667 1319 l 825 1319 l 603 1125 l 464 1125 z "},"Ż":{"ha":833,"x_min":53,"x_max":806,"o":"m 53 0 l 76 146 l 618 876 l 200 876 l 222 1014 l 806 1014 l 781 868 l 239 138 l 681 138 l 658 0 l 53 0 m 533 1128 q 460 1153 485 1128 q 442 1222 436 1179 q 483 1291 450 1265 q 565 1317 515 1317 q 638 1291 614 1317 q 656 1222 663 1265 q 616 1153 649 1179 q 533 1128 583 1128 z "},"a":{"ha":833,"x_min":72,"x_max":778,"o":"m 299 -14 q 128 63 183 -14 q 94 274 72 140 l 128 489 q 229 700 149 622 q 425 778 310 778 q 558 735 510 778 q 604 618 606 692 l 607 618 l 628 764 l 778 764 l 657 0 l 508 0 l 532 146 l 529 146 q 446 28 507 71 q 299 -14 385 -14 m 372 117 q 491 160 443 117 q 551 282 539 203 l 582 482 q 560 603 594 560 q 456 647 526 647 q 336 604 383 647 q 276 482 289 561 l 246 282 q 266 159 233 201 q 372 117 299 117 z "},"á":{"ha":833,"x_min":72,"x_max":778,"o":"m 299 -14 q 128 63 183 -14 q 94 274 72 140 l 128 489 q 229 700 149 622 q 425 778 310 778 q 558 735 510 778 q 604 618 606 692 l 607 618 l 628 764 l 778 764 l 657 0 l 508 0 l 532 146 l 529 146 q 446 28 507 71 q 299 -14 385 -14 m 372 117 q 491 160 443 117 q 551 282 539 203 l 582 482 q 560 603 594 560 q 456 647 526 647 q 336 604 383 647 q 276 482 289 561 l 246 282 q 266 159 233 201 q 372 117 299 117 m 407 896 l 583 1090 l 753 1090 l 565 896 l 407 896 z "},"ă":{"ha":833,"x_min":72,"x_max":778,"o":"m 299 -14 q 128 63 183 -14 q 94 274 72 140 l 128 489 q 229 700 149 622 q 425 778 310 778 q 558 735 510 778 q 604 618 606 692 l 607 618 l 628 764 l 778 764 l 657 0 l 508 0 l 532 146 l 529 146 q 446 28 507 71 q 299 -14 385 -14 m 372 117 q 491 160 443 117 q 551 282 539 203 l 582 482 q 560 603 594 560 q 456 647 526 647 q 336 604 383 647 q 276 482 289 561 l 246 282 q 266 159 233 201 q 372 117 299 117 m 503 888 q 344 943 399 888 q 303 1090 289 999 l 417 1090 q 437 1010 410 1040 q 515 979 464 979 q 604 1010 568 979 q 649 1090 640 1040 l 768 1090 q 681 943 754 999 q 503 888 607 888 z "},"ắ":{"ha":833,"x_min":72,"x_max":781,"o":"m 299 -14 q 128 63 183 -14 q 94 274 72 140 l 128 489 q 229 700 149 622 q 425 778 310 778 q 558 735 510 778 q 604 618 606 692 l 607 618 l 628 764 l 778 764 l 657 0 l 508 0 l 532 146 l 529 146 q 446 28 507 71 q 299 -14 385 -14 m 372 117 q 491 160 443 117 q 551 282 539 203 l 582 482 q 560 603 594 560 q 456 647 526 647 q 336 604 383 647 q 276 482 289 561 l 246 282 q 266 159 233 201 q 372 117 299 117 m 440 1067 l 629 1251 l 781 1251 l 582 1067 l 440 1067 m 501 888 q 335 938 396 888 q 289 1072 275 989 l 401 1072 q 425 1006 394 1029 q 515 983 456 983 q 613 1006 575 983 q 658 1072 651 1029 l 774 1072 q 727 975 765 1017 q 631 910 689 933 q 501 888 572 888 z "},"ặ":{"ha":833,"x_min":72,"x_max":778,"o":"m 299 -14 q 128 63 183 -14 q 94 274 72 140 l 128 489 q 229 700 149 622 q 425 778 310 778 q 558 735 510 778 q 604 618 606 692 l 607 618 l 628 764 l 778 764 l 657 0 l 508 0 l 532 146 l 529 146 q 446 28 507 71 q 299 -14 385 -14 m 372 117 q 491 160 443 117 q 551 282 539 203 l 582 482 q 560 603 594 560 q 456 647 526 647 q 336 604 383 647 q 276 482 289 561 l 246 282 q 266 159 233 201 q 372 117 299 117 m 314 -304 q 240 -279 265 -304 q 222 -210 215 -254 q 263 -141 229 -167 q 344 -115 296 -115 q 419 -141 394 -115 q 435 -210 443 -167 q 397 -279 429 -254 q 314 -304 364 -304 m 503 888 q 344 943 399 888 q 303 1090 289 999 l 417 1090 q 437 1010 410 1040 q 515 979 464 979 q 604 1010 568 979 q 649 1090 640 1040 l 768 1090 q 681 943 754 999 q 503 888 607 888 z "},"ằ":{"ha":833,"x_min":72,"x_max":778,"o":"m 299 -14 q 128 63 183 -14 q 94 274 72 140 l 128 489 q 229 700 149 622 q 425 778 310 778 q 558 735 510 778 q 604 618 606 692 l 607 618 l 628 764 l 778 764 l 657 0 l 508 0 l 532 146 l 529 146 q 446 28 507 71 q 299 -14 385 -14 m 372 117 q 491 160 443 117 q 551 282 539 203 l 582 482 q 560 603 594 560 q 456 647 526 647 q 336 604 383 647 q 276 482 289 561 l 246 282 q 266 159 233 201 q 372 117 299 117 m 482 1067 l 343 1251 l 486 1251 l 617 1067 l 482 1067 m 501 888 q 335 938 396 888 q 289 1072 275 989 l 401 1072 q 425 1006 394 1029 q 515 983 456 983 q 613 1006 575 983 q 658 1072 651 1029 l 774 1072 q 727 975 765 1017 q 631 910 689 933 q 501 888 572 888 z "},"ẳ":{"ha":833,"x_min":72,"x_max":778,"o":"m 299 -14 q 128 63 183 -14 q 94 274 72 140 l 128 489 q 229 700 149 622 q 425 778 310 778 q 558 735 510 778 q 604 618 606 692 l 607 618 l 628 764 l 778 764 l 657 0 l 508 0 l 532 146 l 529 146 q 446 28 507 71 q 299 -14 385 -14 m 372 117 q 491 160 443 117 q 551 282 539 203 l 582 482 q 560 603 594 560 q 456 647 526 647 q 336 604 383 647 q 276 482 289 561 l 246 282 q 266 159 233 201 q 372 117 299 117 m 451 1064 l 529 1147 q 550 1183 547 1167 q 518 1215 554 1215 l 439 1215 l 454 1308 l 560 1308 q 653 1279 621 1308 q 679 1204 686 1250 q 666 1165 676 1183 q 642 1131 656 1147 l 582 1064 l 451 1064 m 501 888 q 335 938 396 888 q 289 1072 275 989 l 401 1072 q 426 1006 394 1029 q 515 983 457 983 q 614 1006 576 983 q 658 1072 651 1029 l 774 1072 q 727 975 765 1017 q 631 910 689 933 q 501 888 572 888 z "},"ẵ":{"ha":833,"x_min":72,"x_max":796,"o":"m 299 -14 q 128 63 183 -14 q 94 274 72 140 l 128 489 q 229 700 149 622 q 425 778 310 778 q 558 735 510 778 q 604 618 606 692 l 607 618 l 628 764 l 778 764 l 657 0 l 508 0 l 532 146 l 529 146 q 446 28 507 71 q 299 -14 385 -14 m 372 117 q 491 160 443 117 q 551 282 539 203 l 582 482 q 560 603 594 560 q 456 647 526 647 q 336 604 383 647 q 276 482 289 561 l 246 282 q 266 159 233 201 q 372 117 299 117 m 633 1122 q 567 1136 590 1122 q 530 1168 544 1150 q 501 1200 515 1186 q 464 1214 488 1214 q 415 1171 422 1214 l 408 1133 l 310 1133 l 315 1167 q 369 1263 325 1226 q 474 1300 413 1300 q 540 1286 517 1300 q 576 1255 563 1272 q 605 1224 590 1238 q 643 1210 619 1210 q 692 1250 686 1210 l 697 1290 l 796 1290 l 792 1257 q 738 1159 782 1196 q 633 1122 694 1122 m 503 892 q 342 942 399 892 q 300 1076 286 993 l 407 1076 q 427 1009 399 1033 q 514 985 456 985 q 609 1009 572 985 q 654 1076 646 1033 l 765 1076 q 678 942 751 993 q 503 892 606 892 z "},"ǎ":{"ha":833,"x_min":72,"x_max":797,"o":"m 299 -14 q 128 63 183 -14 q 94 274 72 140 l 128 489 q 229 700 149 622 q 425 778 310 778 q 558 735 510 778 q 604 618 606 692 l 607 618 l 628 764 l 778 764 l 657 0 l 508 0 l 532 146 l 529 146 q 446 28 507 71 q 299 -14 385 -14 m 372 117 q 491 160 443 117 q 551 282 539 203 l 582 482 q 560 603 594 560 q 456 647 526 647 q 336 604 383 647 q 276 482 289 561 l 246 282 q 266 159 233 201 q 372 117 299 117 m 436 896 l 275 1090 l 424 1090 l 518 985 l 639 1090 l 797 1090 l 575 896 l 436 896 z "},"â":{"ha":833,"x_min":72,"x_max":778,"o":"m 299 -14 q 128 63 183 -14 q 94 274 72 140 l 128 489 q 229 700 149 622 q 425 778 310 778 q 558 735 510 778 q 604 618 606 692 l 607 618 l 628 764 l 778 764 l 657 0 l 508 0 l 532 146 l 529 146 q 446 28 507 71 q 299 -14 385 -14 m 372 117 q 491 160 443 117 q 551 282 539 203 l 582 482 q 560 603 594 560 q 456 647 526 647 q 336 604 383 647 q 276 482 289 561 l 246 282 q 266 159 233 201 q 372 117 299 117 m 243 896 l 465 1090 l 604 1090 l 765 896 l 617 896 l 524 1001 l 401 896 l 243 896 z "},"ấ":{"ha":833,"x_min":72,"x_max":1036,"o":"m 299 -14 q 128 63 183 -14 q 94 274 72 140 l 128 489 q 229 700 149 622 q 425 778 310 778 q 558 735 510 778 q 604 618 606 692 l 607 618 l 628 764 l 778 764 l 657 0 l 508 0 l 532 146 l 529 146 q 446 28 507 71 q 299 -14 385 -14 m 372 117 q 491 160 443 117 q 551 282 539 203 l 582 482 q 560 603 594 560 q 456 647 526 647 q 336 604 383 647 q 276 482 289 561 l 246 282 q 266 159 233 201 q 372 117 299 117 m 682 1054 l 874 1249 l 1036 1249 l 835 1054 l 682 1054 m 242 896 l 464 1090 l 603 1090 l 764 896 l 614 896 l 522 1001 l 399 896 l 242 896 z "},"ậ":{"ha":833,"x_min":72,"x_max":778,"o":"m 299 -14 q 128 63 183 -14 q 94 274 72 140 l 128 489 q 229 700 149 622 q 425 778 310 778 q 558 735 510 778 q 604 618 606 692 l 607 618 l 628 764 l 778 764 l 657 0 l 508 0 l 532 146 l 529 146 q 446 28 507 71 q 299 -14 385 -14 m 372 117 q 491 160 443 117 q 551 282 539 203 l 582 482 q 560 603 594 560 q 456 647 526 647 q 336 604 383 647 q 276 482 289 561 l 246 282 q 266 159 233 201 q 372 117 299 117 m 314 -304 q 240 -279 265 -304 q 222 -210 215 -254 q 263 -141 229 -167 q 344 -115 296 -115 q 419 -141 394 -115 q 435 -210 443 -167 q 397 -279 429 -254 q 314 -304 364 -304 m 243 896 l 465 1090 l 604 1090 l 765 896 l 617 896 l 524 1001 l 401 896 l 243 896 z "},"ầ":{"ha":833,"x_min":72,"x_max":901,"o":"m 299 -14 q 128 63 183 -14 q 94 274 72 140 l 128 489 q 229 700 149 622 q 425 778 310 778 q 558 735 510 778 q 604 618 606 692 l 607 618 l 628 764 l 778 764 l 657 0 l 508 0 l 532 146 l 529 146 q 446 28 507 71 q 299 -14 385 -14 m 372 117 q 491 160 443 117 q 551 282 539 203 l 582 482 q 560 603 594 560 q 456 647 526 647 q 336 604 383 647 q 276 482 289 561 l 246 282 q 266 159 233 201 q 372 117 299 117 m 757 1054 l 607 1249 l 760 1249 l 901 1054 l 757 1054 m 242 896 l 464 1090 l 603 1090 l 764 896 l 614 896 l 522 1001 l 399 896 l 242 896 z "},"ẩ":{"ha":833,"x_min":72,"x_max":928,"o":"m 299 -14 q 128 63 183 -14 q 94 274 72 140 l 128 489 q 229 700 149 622 q 425 778 310 778 q 558 735 510 778 q 604 618 606 692 l 607 618 l 628 764 l 778 764 l 657 0 l 508 0 l 532 146 l 529 146 q 446 28 507 71 q 299 -14 385 -14 m 372 117 q 491 160 443 117 q 551 282 539 203 l 582 482 q 560 603 594 560 q 456 647 526 647 q 336 604 383 647 q 276 482 289 561 l 246 282 q 266 159 233 201 q 372 117 299 117 m 693 1054 l 771 1138 q 792 1174 789 1157 q 758 1204 796 1204 l 681 1204 l 694 1297 l 801 1297 q 895 1268 863 1297 q 921 1193 928 1239 q 882 1119 914 1154 l 824 1054 l 693 1054 m 242 896 l 464 1090 l 603 1090 l 764 896 l 614 896 l 522 1001 l 399 896 l 242 896 z "},"ẫ":{"ha":833,"x_min":72,"x_max":797,"o":"m 299 -14 q 128 63 183 -14 q 94 274 72 140 l 128 489 q 229 700 149 622 q 425 778 310 778 q 558 735 510 778 q 604 618 606 692 l 607 618 l 628 764 l 778 764 l 657 0 l 508 0 l 532 146 l 529 146 q 446 28 507 71 q 299 -14 385 -14 m 372 117 q 491 160 443 117 q 551 282 539 203 l 582 482 q 560 603 594 560 q 456 647 526 647 q 336 604 383 647 q 276 482 289 561 l 246 282 q 266 159 233 201 q 372 117 299 117 m 635 1133 q 567 1147 590 1133 q 528 1176 543 1160 q 501 1206 514 1193 q 464 1219 488 1219 q 415 1176 422 1219 l 410 1143 l 311 1143 l 317 1174 q 369 1270 325 1233 q 475 1307 414 1307 q 543 1294 519 1307 q 581 1263 567 1281 q 609 1233 596 1246 q 644 1221 622 1221 q 693 1261 686 1221 l 699 1296 l 797 1296 l 793 1267 q 740 1170 783 1207 q 635 1133 696 1133 m 242 896 l 464 1090 l 603 1090 l 764 896 l 614 896 l 522 1001 l 399 896 l 242 896 z "},"ä":{"ha":833,"x_min":72,"x_max":781,"o":"m 299 -14 q 128 63 183 -14 q 94 274 72 140 l 128 489 q 229 700 149 622 q 425 778 310 778 q 558 735 510 778 q 604 618 606 692 l 607 618 l 628 764 l 778 764 l 657 0 l 508 0 l 532 146 l 529 146 q 446 28 507 71 q 299 -14 385 -14 m 372 117 q 491 160 443 117 q 551 282 539 203 l 582 482 q 560 603 594 560 q 456 647 526 647 q 336 604 383 647 q 276 482 289 561 l 246 282 q 266 159 233 201 q 372 117 299 117 m 664 896 q 599 922 621 896 q 583 990 576 947 q 620 1060 590 1035 q 694 1086 650 1086 q 759 1060 738 1086 q 774 990 781 1035 q 738 922 768 947 q 664 896 708 896 m 346 896 q 281 922 303 896 q 265 990 258 947 q 302 1060 272 1035 q 376 1086 332 1086 q 442 1060 419 1086 q 457 990 464 1035 q 420 922 450 947 q 346 896 390 896 z "},"ạ":{"ha":833,"x_min":72,"x_max":778,"o":"m 299 -14 q 128 63 183 -14 q 94 274 72 140 l 128 489 q 229 700 149 622 q 425 778 310 778 q 558 735 510 778 q 604 618 606 692 l 607 618 l 628 764 l 778 764 l 657 0 l 508 0 l 532 146 l 529 146 q 446 28 507 71 q 299 -14 385 -14 m 372 117 q 491 160 443 117 q 551 282 539 203 l 582 482 q 560 603 594 560 q 456 647 526 647 q 336 604 383 647 q 276 482 289 561 l 246 282 q 266 159 233 201 q 372 117 299 117 m 314 -304 q 240 -279 265 -304 q 222 -210 215 -254 q 263 -141 229 -167 q 344 -115 296 -115 q 419 -141 394 -115 q 435 -210 443 -167 q 397 -279 429 -254 q 314 -304 364 -304 z "},"à":{"ha":833,"x_min":72,"x_max":778,"o":"m 299 -14 q 128 63 183 -14 q 94 274 72 140 l 128 489 q 229 700 149 622 q 425 778 310 778 q 558 735 510 778 q 604 618 606 692 l 607 618 l 628 764 l 778 764 l 657 0 l 508 0 l 532 146 l 529 146 q 446 28 507 71 q 299 -14 385 -14 m 372 117 q 491 160 443 117 q 551 282 539 203 l 582 482 q 560 603 594 560 q 456 647 526 647 q 336 604 383 647 q 276 482 289 561 l 246 282 q 266 159 233 201 q 372 117 299 117 m 450 896 l 319 1090 l 478 1090 l 597 896 l 450 896 z "},"ả":{"ha":833,"x_min":72,"x_max":778,"o":"m 299 -14 q 128 63 183 -14 q 94 274 72 140 l 128 489 q 229 700 149 622 q 425 778 310 778 q 558 735 510 778 q 604 618 606 692 l 607 618 l 628 764 l 778 764 l 657 0 l 508 0 l 532 146 l 529 146 q 446 28 507 71 q 299 -14 385 -14 m 372 117 q 491 160 443 117 q 551 282 539 203 l 582 482 q 560 603 594 560 q 456 647 526 647 q 336 604 383 647 q 276 482 289 561 l 246 282 q 266 159 233 201 q 372 117 299 117 m 432 896 l 514 982 q 540 1025 539 1007 q 507 1051 544 1051 l 400 1051 l 415 1150 l 561 1150 q 648 1121 618 1150 q 671 1042 678 1092 q 632 964 664 999 l 568 896 l 432 896 z "},"ā":{"ha":833,"x_min":72,"x_max":778,"o":"m 299 -14 q 128 63 183 -14 q 94 274 72 140 l 128 489 q 229 700 149 622 q 425 778 310 778 q 558 735 510 778 q 604 618 606 692 l 607 618 l 628 764 l 778 764 l 657 0 l 508 0 l 532 146 l 529 146 q 446 28 507 71 q 299 -14 385 -14 m 372 117 q 491 160 443 117 q 551 282 539 203 l 582 482 q 560 603 594 560 q 456 647 526 647 q 336 604 383 647 q 276 482 289 561 l 246 282 q 266 159 233 201 q 372 117 299 117 m 278 925 l 297 1043 l 758 1043 l 739 925 l 278 925 z "},"ą":{"ha":833,"x_min":72,"x_max":778,"o":"m 299 -14 q 128 63 183 -14 q 94 274 72 140 l 128 489 q 229 700 149 622 q 425 778 310 778 q 558 735 510 778 q 604 618 606 692 l 607 618 l 628 764 l 778 764 l 657 0 l 656 0 q 578 -69 603 -40 q 549 -125 553 -99 q 560 -171 544 -153 q 611 -189 576 -189 l 699 -189 l 682 -292 l 561 -292 q 441 -253 482 -292 q 410 -154 400 -214 q 449 -77 417 -117 q 542 0 481 -37 l 508 0 l 532 146 l 529 146 q 446 28 507 71 q 299 -14 385 -14 m 372 117 q 491 160 443 117 q 551 282 539 203 l 582 482 q 560 603 594 560 q 456 647 526 647 q 336 604 383 647 q 276 482 289 561 l 246 282 q 266 159 233 201 q 372 117 299 117 z "},"å":{"ha":833,"x_min":72,"x_max":778,"o":"m 299 -14 q 128 63 183 -14 q 94 274 72 140 l 128 489 q 229 700 149 622 q 425 778 310 778 q 558 735 510 778 q 604 618 606 692 l 607 618 l 628 764 l 778 764 l 657 0 l 508 0 l 532 146 l 529 146 q 446 28 507 71 q 299 -14 385 -14 m 372 117 q 491 160 443 117 q 551 282 539 203 l 582 482 q 560 603 594 560 q 456 647 526 647 q 336 604 383 647 q 276 482 289 561 l 246 282 q 266 159 233 201 q 372 117 299 117 m 494 840 q 376 885 417 840 q 346 1004 335 931 q 413 1123 357 1078 q 547 1168 468 1168 q 666 1123 625 1168 q 696 1004 707 1078 q 629 885 685 931 q 494 840 574 840 m 508 921 q 572 944 546 921 q 604 1004 599 967 q 591 1065 610 1042 q 535 1089 572 1089 q 470 1065 497 1089 q 438 1004 443 1042 q 451 944 432 967 q 508 921 471 921 z "},"ã":{"ha":833,"x_min":72,"x_max":778,"o":"m 299 -14 q 128 63 183 -14 q 94 274 72 140 l 128 489 q 229 700 149 622 q 425 778 310 778 q 558 735 510 778 q 604 618 606 692 l 607 618 l 628 764 l 778 764 l 657 0 l 508 0 l 532 146 l 529 146 q 446 28 507 71 q 299 -14 385 -14 m 372 117 q 491 160 443 117 q 551 282 539 203 l 582 482 q 560 603 594 560 q 456 647 526 647 q 336 604 383 647 q 276 482 289 561 l 246 282 q 266 159 233 201 q 372 117 299 117 m 601 897 q 535 911 560 897 q 496 943 511 925 q 466 976 481 961 q 429 990 451 990 q 379 942 388 990 l 374 904 l 275 904 l 282 947 q 335 1051 292 1013 q 439 1090 378 1090 q 505 1076 481 1090 q 544 1043 529 1061 q 573 1011 558 1025 q 610 997 588 997 q 660 1042 651 997 l 667 1083 l 765 1083 l 758 1039 q 705 935 747 974 q 601 897 663 897 z "},"æ":{"ha":833,"x_min":3,"x_max":828,"o":"m 174 -14 q 45 40 88 -14 q 17 185 3 94 l 29 264 q 110 402 43 350 q 276 454 178 454 l 367 454 l 383 558 q 315 663 399 663 q 253 639 278 663 q 221 575 228 615 l 90 575 q 167 722 106 667 q 313 778 228 778 q 399 760 367 778 q 446 717 432 743 q 461 669 460 692 l 468 669 q 497 717 475 692 q 557 760 519 743 q 646 778 594 778 q 783 719 739 778 q 813 560 828 660 l 779 353 l 476 353 l 454 204 q 465 129 446 157 q 522 101 485 101 q 590 124 563 101 q 622 185 617 146 l 753 185 q 674 41 739 96 q 519 -14 610 -14 q 435 3 467 -14 q 390 47 404 21 q 376 96 376 72 l 369 96 q 338 47 363 72 q 273 3 314 21 q 174 -14 232 -14 m 493 454 l 664 454 l 682 560 q 670 635 689 607 q 610 663 651 663 q 544 635 571 663 q 510 560 517 607 l 493 454 m 224 101 q 291 129 263 101 q 328 204 319 157 l 350 353 l 263 353 q 197 329 224 353 q 165 264 171 306 l 153 185 q 165 124 146 146 q 224 101 185 101 z "},"ǽ":{"ha":833,"x_min":3,"x_max":828,"o":"m 174 -14 q 45 40 88 -14 q 17 185 3 94 l 29 264 q 110 402 43 350 q 276 454 178 454 l 367 454 l 383 558 q 315 663 399 663 q 253 639 278 663 q 221 575 228 615 l 90 575 q 167 722 106 667 q 313 778 228 778 q 399 760 367 778 q 446 717 432 743 q 461 669 460 692 l 468 669 q 497 717 475 692 q 557 760 519 743 q 646 778 594 778 q 783 719 739 778 q 813 560 828 660 l 779 353 l 476 353 l 454 204 q 465 129 446 157 q 522 101 485 101 q 590 124 563 101 q 622 185 617 146 l 753 185 q 674 41 739 96 q 519 -14 610 -14 q 435 3 467 -14 q 390 47 404 21 q 376 96 376 72 l 369 96 q 338 47 363 72 q 273 3 314 21 q 174 -14 232 -14 m 493 454 l 664 454 l 682 560 q 670 635 689 607 q 610 663 651 663 q 544 635 571 663 q 510 560 517 607 l 493 454 m 224 101 q 291 129 263 101 q 328 204 319 157 l 350 353 l 263 353 q 197 329 224 353 q 165 264 171 306 l 153 185 q 165 124 146 146 q 224 101 185 101 m 400 896 l 576 1090 l 746 1090 l 558 896 l 400 896 z "},"b":{"ha":833,"x_min":56,"x_max":760,"o":"m 408 -14 q 275 28 322 -14 q 229 146 228 71 l 228 146 l 204 0 l 56 0 l 217 1014 l 367 1014 l 332 796 l 299 618 l 304 618 q 388 735 326 693 q 535 778 450 778 q 705 700 650 778 q 739 489 760 622 l 706 274 q 603 63 685 140 q 408 -14 522 -14 m 378 117 q 497 159 450 117 q 557 282 543 201 l 588 482 q 567 604 600 561 q 461 647 533 647 q 342 603 390 647 q 282 482 294 560 l 251 282 q 272 160 239 203 q 378 117 306 117 z "},"c":{"ha":833,"x_min":72,"x_max":765,"o":"m 358 -14 q 144 65 215 -14 q 94 282 72 144 l 125 482 q 244 699 147 619 q 485 778 342 778 q 694 706 622 778 q 751 508 765 633 l 601 508 q 570 610 607 574 q 463 646 533 646 q 338 603 386 646 q 276 483 289 561 l 244 282 q 267 160 232 203 q 379 118 303 118 q 498 154 450 118 q 561 257 546 190 l 711 257 q 591 59 686 132 q 358 -14 496 -14 z "},"ć":{"ha":833,"x_min":72,"x_max":765,"o":"m 358 -14 q 144 65 215 -14 q 94 282 72 144 l 125 482 q 244 699 147 619 q 485 778 342 778 q 694 706 622 778 q 751 508 765 633 l 601 508 q 570 610 607 574 q 463 646 533 646 q 338 603 386 646 q 276 483 289 561 l 244 282 q 267 160 232 203 q 379 118 303 118 q 498 154 450 118 q 561 257 546 190 l 711 257 q 591 59 686 132 q 358 -14 496 -14 m 406 896 l 582 1090 l 751 1090 l 564 896 l 406 896 z "},"č":{"ha":833,"x_min":72,"x_max":796,"o":"m 358 -14 q 144 65 215 -14 q 94 282 72 144 l 125 482 q 244 699 147 619 q 485 778 342 778 q 694 706 622 778 q 751 508 765 633 l 601 508 q 570 610 607 574 q 463 646 533 646 q 338 603 386 646 q 276 483 289 561 l 244 282 q 267 160 232 203 q 379 118 303 118 q 498 154 450 118 q 561 257 546 190 l 711 257 q 591 59 686 132 q 358 -14 496 -14 m 435 896 l 274 1090 l 422 1090 l 517 985 l 638 1090 l 796 1090 l 574 896 l 435 896 z "},"ç":{"ha":833,"x_min":76,"x_max":765,"o":"m 176 -292 l 190 -208 l 292 -208 q 344 -192 322 -208 q 369 -158 367 -176 q 337 -114 374 -132 q 229 -96 300 -96 l 278 -6 q 125 90 174 15 q 94 282 76 165 l 125 482 q 244 699 147 619 q 485 778 342 778 q 694 706 622 778 q 751 508 765 633 l 601 508 q 570 610 607 574 q 463 646 533 646 q 338 603 386 646 q 276 483 289 561 l 244 282 q 267 160 232 203 q 379 118 303 118 q 498 154 450 118 q 561 257 546 190 l 711 257 q 591 59 686 132 q 360 -14 496 -14 l 342 -50 q 418 -69 379 -54 q 481 -109 457 -83 q 499 -172 504 -135 q 438 -256 492 -221 q 306 -292 383 -292 l 176 -292 z "},"ĉ":{"ha":833,"x_min":72,"x_max":765,"o":"m 358 -14 q 144 65 215 -14 q 94 282 72 144 l 125 482 q 244 699 147 619 q 485 778 342 778 q 694 706 622 778 q 751 508 765 633 l 601 508 q 570 610 607 574 q 463 646 533 646 q 338 603 386 646 q 276 483 289 561 l 244 282 q 267 160 232 203 q 379 118 303 118 q 498 154 450 118 q 561 257 546 190 l 711 257 q 591 59 686 132 q 358 -14 496 -14 m 242 896 l 464 1090 l 603 1090 l 764 896 l 615 896 l 522 1001 l 400 896 l 242 896 z "},"ċ":{"ha":833,"x_min":72,"x_max":765,"o":"m 358 -14 q 144 65 215 -14 q 94 282 72 144 l 125 482 q 244 699 147 619 q 485 778 342 778 q 694 706 622 778 q 751 508 765 633 l 601 508 q 570 610 607 574 q 463 646 533 646 q 338 603 386 646 q 276 483 289 561 l 244 282 q 267 160 232 203 q 379 118 303 118 q 498 154 450 118 q 561 257 546 190 l 711 257 q 591 59 686 132 q 358 -14 496 -14 m 503 896 q 430 922 454 896 q 411 990 406 947 q 451 1060 418 1035 q 533 1086 483 1086 q 607 1060 582 1086 q 625 990 632 1035 q 585 922 618 947 q 503 896 553 896 z "},"d":{"ha":833,"x_min":74,"x_max":818,"o":"m 299 -14 q 128 63 183 -14 q 94 274 74 140 l 128 489 q 229 700 149 622 q 425 778 310 778 q 558 735 510 778 q 604 618 606 692 l 607 618 l 632 796 l 668 1014 l 818 1014 l 657 0 l 508 0 l 532 146 l 529 146 q 446 28 507 71 q 299 -14 385 -14 m 372 117 q 491 160 443 117 q 551 282 539 203 l 582 482 q 561 603 596 560 q 456 647 526 647 q 336 604 383 647 q 276 482 289 561 l 246 282 q 265 159 232 201 q 372 117 299 117 z "},"ð":{"ha":833,"x_min":57,"x_max":754,"o":"m 353 -10 q 185 30 253 -10 q 87 141 117 69 q 72 307 57 213 q 133 469 86 400 q 252 576 181 538 q 411 614 324 614 q 514 584 474 614 q 567 526 554 554 l 582 526 q 565 573 581 536 q 514 671 549 610 l 449 786 l 207 692 l 225 814 l 393 883 l 317 1014 l 474 1014 l 517 936 l 754 1026 l 736 901 l 572 839 l 653 703 q 731 509 710 608 q 739 321 753 410 q 669 147 722 221 q 535 31 617 72 q 353 -10 453 -10 m 374 121 q 515 172 457 121 q 586 307 572 222 q 558 443 600 392 q 433 494 515 494 q 294 443 351 494 q 222 307 236 392 q 250 172 208 222 q 374 121 292 121 z "},"ď":{"ha":833,"x_min":39,"x_max":940,"o":"m 767 764 l 807 1014 l 940 1014 l 886 764 l 767 764 m 243 -14 q 88 62 138 -14 q 60 267 39 138 l 96 496 q 190 702 115 626 q 369 778 264 778 q 485 735 444 778 q 525 618 526 692 l 528 618 l 553 796 l 588 1014 l 733 1014 l 572 0 l 429 0 l 453 146 l 450 146 q 374 29 429 72 q 243 -14 318 -14 m 315 113 q 417 156 376 113 q 471 275 458 199 l 504 489 q 489 609 517 567 q 400 651 461 651 q 294 609 336 651 q 240 489 253 567 l 206 275 q 223 156 194 199 q 315 113 251 113 z "},"đ":{"ha":833,"x_min":74,"x_max":914,"o":"m 94 274 l 115 406 q 216 617 138 539 q 411 694 294 694 q 542 652 494 694 q 588 535 589 610 l 592 535 l 617 713 l 628 786 l 406 786 l 424 896 l 644 896 l 664 1014 l 814 1014 l 794 896 l 914 896 l 896 786 l 778 786 l 653 0 l 506 0 l 529 146 l 526 146 q 444 28 504 71 q 299 -14 383 -14 q 128 63 183 -14 q 94 274 74 140 m 246 282 q 266 159 233 201 q 371 117 299 117 q 489 160 442 117 q 549 282 536 203 l 567 399 q 547 520 579 476 q 442 564 514 564 q 323 521 369 564 q 264 399 276 478 l 246 282 z "},"e":{"ha":833,"x_min":74,"x_max":760,"o":"m 353 -14 q 143 67 213 -14 q 94 282 74 149 l 125 482 q 188 638 140 571 q 311 741 236 704 q 479 778 386 778 q 690 697 619 778 q 738 482 760 615 l 717 346 l 250 346 l 239 282 q 374 108 211 108 q 540 199 504 108 l 689 199 q 567 44 658 101 q 353 -14 475 -14 m 271 482 l 265 447 l 588 449 l 593 483 q 573 613 606 568 q 461 658 540 658 q 333 613 381 658 q 271 482 285 567 z "},"é":{"ha":833,"x_min":74,"x_max":760,"o":"m 353 -14 q 143 67 213 -14 q 94 282 74 149 l 125 482 q 188 638 140 571 q 311 741 236 704 q 479 778 386 778 q 690 697 619 778 q 738 482 760 615 l 717 346 l 250 346 l 239 282 q 374 108 211 108 q 540 199 504 108 l 689 199 q 567 44 658 101 q 353 -14 475 -14 m 271 482 l 265 447 l 588 449 l 593 483 q 573 613 606 568 q 461 658 540 658 q 333 613 381 658 q 271 482 285 567 m 400 896 l 576 1090 l 746 1090 l 558 896 l 400 896 z "},"ĕ":{"ha":833,"x_min":74,"x_max":761,"o":"m 353 -14 q 143 67 213 -14 q 94 282 74 149 l 125 482 q 188 638 140 571 q 311 741 236 704 q 479 778 386 778 q 690 697 619 778 q 738 482 760 615 l 717 346 l 250 346 l 239 282 q 374 108 211 108 q 540 199 504 108 l 689 199 q 567 44 658 101 q 353 -14 475 -14 m 271 482 l 265 447 l 588 449 l 593 483 q 573 613 606 568 q 461 658 540 658 q 333 613 381 658 q 271 482 285 567 m 496 888 q 337 943 392 888 q 296 1090 282 999 l 410 1090 q 430 1010 403 1040 q 508 979 457 979 q 597 1010 561 979 q 642 1090 633 1040 l 761 1090 q 674 943 747 999 q 496 888 600 888 z "},"ě":{"ha":833,"x_min":74,"x_max":790,"o":"m 353 -14 q 143 67 213 -14 q 94 282 74 149 l 125 482 q 188 638 140 571 q 311 741 236 704 q 479 778 386 778 q 690 697 619 778 q 738 482 760 615 l 717 346 l 250 346 l 239 282 q 374 108 211 108 q 540 199 504 108 l 689 199 q 567 44 658 101 q 353 -14 475 -14 m 271 482 l 265 447 l 588 449 l 593 483 q 573 613 606 568 q 461 658 540 658 q 333 613 381 658 q 271 482 285 567 m 429 896 l 268 1090 l 417 1090 l 511 985 l 632 1090 l 790 1090 l 568 896 l 429 896 z "},"ê":{"ha":833,"x_min":74,"x_max":760,"o":"m 353 -14 q 143 67 213 -14 q 94 282 74 149 l 125 482 q 188 638 140 571 q 311 741 236 704 q 479 778 386 778 q 690 697 619 778 q 738 482 760 615 l 717 346 l 250 346 l 239 282 q 374 108 211 108 q 540 199 504 108 l 689 199 q 567 44 658 101 q 353 -14 475 -14 m 271 482 l 265 447 l 588 449 l 593 483 q 573 613 606 568 q 461 658 540 658 q 333 613 381 658 q 271 482 285 567 m 236 896 l 458 1090 l 597 1090 l 758 896 l 610 896 l 517 1001 l 394 896 l 236 896 z "},"ế":{"ha":833,"x_min":74,"x_max":1029,"o":"m 353 -14 q 143 67 213 -14 q 94 282 74 149 l 125 482 q 188 638 140 571 q 311 741 236 704 q 479 778 386 778 q 690 697 619 778 q 738 482 760 615 l 717 346 l 250 346 l 239 282 q 374 108 211 108 q 540 199 504 108 l 689 199 q 567 44 658 101 q 353 -14 475 -14 m 271 482 l 265 447 l 588 449 l 593 483 q 573 613 606 568 q 461 658 540 658 q 333 613 381 658 q 271 482 285 567 m 675 1054 l 867 1249 l 1029 1249 l 828 1054 l 675 1054 m 235 896 l 457 1090 l 596 1090 l 757 896 l 607 896 l 515 1001 l 392 896 l 235 896 z "},"ệ":{"ha":833,"x_min":74,"x_max":760,"o":"m 353 -14 q 143 67 213 -14 q 94 282 74 149 l 125 482 q 188 638 140 571 q 311 741 236 704 q 479 778 386 778 q 690 697 619 778 q 738 482 760 615 l 717 346 l 250 346 l 239 282 q 374 108 211 108 q 540 199 504 108 l 689 199 q 567 44 658 101 q 353 -14 475 -14 m 271 482 l 265 447 l 588 449 l 593 483 q 573 613 606 568 q 461 658 540 658 q 333 613 381 658 q 271 482 285 567 m 307 -304 q 233 -279 258 -304 q 215 -210 208 -254 q 256 -141 222 -167 q 338 -115 289 -115 q 412 -141 388 -115 q 428 -210 436 -167 q 390 -279 422 -254 q 307 -304 357 -304 m 236 896 l 458 1090 l 597 1090 l 758 896 l 610 896 l 517 1001 l 394 896 l 236 896 z "},"ề":{"ha":833,"x_min":74,"x_max":894,"o":"m 353 -14 q 143 67 213 -14 q 94 282 74 149 l 125 482 q 188 638 140 571 q 311 741 236 704 q 479 778 386 778 q 690 697 619 778 q 738 482 760 615 l 717 346 l 250 346 l 239 282 q 374 108 211 108 q 540 199 504 108 l 689 199 q 567 44 658 101 q 353 -14 475 -14 m 271 482 l 265 447 l 588 449 l 593 483 q 573 613 606 568 q 461 658 540 658 q 333 613 381 658 q 271 482 285 567 m 750 1054 l 600 1249 l 753 1249 l 894 1054 l 750 1054 m 235 896 l 457 1090 l 596 1090 l 757 896 l 607 896 l 515 1001 l 392 896 l 235 896 z "},"ể":{"ha":833,"x_min":74,"x_max":921,"o":"m 353 -14 q 143 67 213 -14 q 94 282 74 149 l 125 482 q 188 638 140 571 q 311 741 236 704 q 479 778 386 778 q 690 697 619 778 q 738 482 760 615 l 717 346 l 250 346 l 239 282 q 374 108 211 108 q 540 199 504 108 l 689 199 q 567 44 658 101 q 353 -14 475 -14 m 271 482 l 265 447 l 588 449 l 593 483 q 573 613 606 568 q 461 658 540 658 q 333 613 381 658 q 271 482 285 567 m 686 1054 l 764 1138 q 785 1174 782 1157 q 751 1204 789 1204 l 674 1204 l 688 1297 l 794 1297 q 888 1268 856 1297 q 914 1193 921 1239 q 875 1119 907 1154 l 817 1054 l 686 1054 m 235 896 l 457 1090 l 596 1090 l 757 896 l 607 896 l 515 1001 l 392 896 l 235 896 z "},"ễ":{"ha":833,"x_min":74,"x_max":790,"o":"m 353 -14 q 143 67 213 -14 q 94 282 74 149 l 125 482 q 188 638 140 571 q 311 741 236 704 q 479 778 386 778 q 690 697 619 778 q 738 482 760 615 l 717 346 l 250 346 l 239 282 q 374 108 211 108 q 540 199 504 108 l 689 199 q 567 44 658 101 q 353 -14 475 -14 m 271 482 l 265 447 l 588 449 l 593 483 q 573 613 606 568 q 461 658 540 658 q 333 613 381 658 q 271 482 285 567 m 628 1133 q 560 1147 583 1133 q 522 1176 536 1160 q 494 1206 507 1193 q 457 1219 481 1219 q 408 1176 415 1219 l 403 1143 l 304 1143 l 310 1174 q 363 1270 318 1233 q 468 1307 407 1307 q 536 1294 513 1307 q 574 1263 560 1281 q 602 1233 589 1246 q 638 1221 615 1221 q 686 1261 679 1221 l 692 1296 l 790 1296 l 786 1267 q 733 1170 776 1207 q 628 1133 689 1133 m 235 896 l 457 1090 l 596 1090 l 757 896 l 607 896 l 515 1001 l 392 896 l 235 896 z "},"ë":{"ha":833,"x_min":74,"x_max":774,"o":"m 353 -14 q 143 67 213 -14 q 94 282 74 149 l 125 482 q 188 638 140 571 q 311 741 236 704 q 479 778 386 778 q 690 697 619 778 q 738 482 760 615 l 717 346 l 250 346 l 239 282 q 374 108 211 108 q 540 199 504 108 l 689 199 q 567 44 658 101 q 353 -14 475 -14 m 271 482 l 265 447 l 588 449 l 593 483 q 573 613 606 568 q 461 658 540 658 q 333 613 381 658 q 271 482 285 567 m 657 896 q 592 922 614 896 q 576 990 569 947 q 613 1060 583 1035 q 688 1086 643 1086 q 752 1060 731 1086 q 767 990 774 1035 q 731 922 761 947 q 657 896 701 896 m 339 896 q 274 922 296 896 q 258 990 251 947 q 295 1060 265 1035 q 369 1086 325 1086 q 435 1060 413 1086 q 450 990 457 1035 q 413 922 443 947 q 339 896 383 896 z "},"ė":{"ha":833,"x_min":74,"x_max":760,"o":"m 353 -14 q 143 67 213 -14 q 94 282 74 149 l 125 482 q 188 638 140 571 q 311 741 236 704 q 479 778 386 778 q 690 697 619 778 q 738 482 760 615 l 717 346 l 250 346 l 239 282 q 374 108 211 108 q 540 199 504 108 l 689 199 q 567 44 658 101 q 353 -14 475 -14 m 271 482 l 265 447 l 588 449 l 593 483 q 573 613 606 568 q 461 658 540 658 q 333 613 381 658 q 271 482 285 567 m 497 896 q 424 922 449 896 q 406 990 400 947 q 445 1060 413 1035 q 528 1086 478 1086 q 601 1060 576 1086 q 619 990 626 1035 q 580 922 613 947 q 497 896 547 896 z "},"ẹ":{"ha":833,"x_min":74,"x_max":760,"o":"m 353 -14 q 143 67 213 -14 q 94 282 74 149 l 125 482 q 188 638 140 571 q 311 741 236 704 q 479 778 386 778 q 690 697 619 778 q 738 482 760 615 l 717 346 l 250 346 l 239 282 q 374 108 211 108 q 540 199 504 108 l 689 199 q 567 44 658 101 q 353 -14 475 -14 m 271 482 l 265 447 l 588 449 l 593 483 q 573 613 606 568 q 461 658 540 658 q 333 613 381 658 q 271 482 285 567 m 307 -304 q 233 -279 258 -304 q 215 -210 208 -254 q 256 -141 222 -167 q 338 -115 289 -115 q 412 -141 388 -115 q 428 -210 436 -167 q 390 -279 422 -254 q 307 -304 357 -304 z "},"è":{"ha":833,"x_min":74,"x_max":760,"o":"m 353 -14 q 143 67 213 -14 q 94 282 74 149 l 125 482 q 188 638 140 571 q 311 741 236 704 q 479 778 386 778 q 690 697 619 778 q 738 482 760 615 l 717 346 l 250 346 l 239 282 q 374 108 211 108 q 540 199 504 108 l 689 199 q 567 44 658 101 q 353 -14 475 -14 m 271 482 l 265 447 l 588 449 l 593 483 q 573 613 606 568 q 461 658 540 658 q 333 613 381 658 q 271 482 285 567 m 443 896 l 313 1090 l 471 1090 l 590 896 l 443 896 z "},"ẻ":{"ha":833,"x_min":74,"x_max":760,"o":"m 353 -14 q 143 67 213 -14 q 94 282 74 149 l 125 482 q 188 638 140 571 q 311 741 236 704 q 479 778 386 778 q 690 697 619 778 q 738 482 760 615 l 717 346 l 250 346 l 239 282 q 374 108 211 108 q 540 199 504 108 l 689 199 q 567 44 658 101 q 353 -14 475 -14 m 271 482 l 265 447 l 588 449 l 593 483 q 573 613 606 568 q 461 658 540 658 q 333 613 381 658 q 271 482 285 567 m 425 896 l 507 982 q 533 1025 532 1007 q 500 1051 538 1051 l 393 1051 l 408 1150 l 554 1150 q 641 1121 611 1150 q 664 1042 671 1092 q 625 964 657 999 l 561 896 l 425 896 z "},"ē":{"ha":833,"x_min":74,"x_max":760,"o":"m 353 -14 q 143 67 213 -14 q 94 282 74 149 l 125 482 q 188 638 140 571 q 311 741 236 704 q 479 778 386 778 q 690 697 619 778 q 738 482 760 615 l 717 346 l 250 346 l 239 282 q 374 108 211 108 q 540 199 504 108 l 689 199 q 567 44 658 101 q 353 -14 475 -14 m 271 482 l 265 447 l 588 449 l 593 483 q 573 613 606 568 q 461 658 540 658 q 333 613 381 658 q 271 482 285 567 m 271 925 l 290 1043 l 751 1043 l 732 925 l 271 925 z "},"ę":{"ha":833,"x_min":74,"x_max":760,"o":"m 406 -292 q 285 -253 326 -292 q 254 -154 244 -214 q 369 -11 264 -86 q 353 -14 363 -14 q 143 67 213 -14 q 94 282 74 149 l 125 482 q 188 638 140 571 q 311 741 236 704 q 479 778 386 778 q 690 697 619 778 q 738 482 760 615 l 717 346 l 250 346 l 239 282 q 374 108 211 108 q 540 199 504 108 l 689 199 q 630 97 671 142 q 533 26 589 53 l 490 -7 q 421 -70 444 -42 q 393 -125 397 -99 q 405 -171 389 -153 q 456 -189 421 -189 l 542 -189 l 526 -292 l 406 -292 m 271 482 l 265 447 l 588 449 l 593 483 q 573 613 606 568 q 461 658 540 658 q 333 613 381 658 q 271 482 285 567 z "},"ẽ":{"ha":833,"x_min":74,"x_max":760,"o":"m 353 -14 q 143 67 213 -14 q 94 282 74 149 l 125 482 q 188 638 140 571 q 311 741 236 704 q 479 778 386 778 q 690 697 619 778 q 738 482 760 615 l 717 346 l 250 346 l 239 282 q 374 108 211 108 q 540 199 504 108 l 689 199 q 567 44 658 101 q 353 -14 475 -14 m 271 482 l 265 447 l 588 449 l 593 483 q 573 613 606 568 q 461 658 540 658 q 333 613 381 658 q 271 482 285 567 m 594 897 q 528 911 553 897 q 489 943 504 925 q 459 976 474 961 q 422 990 444 990 q 372 942 381 990 l 367 904 l 268 904 l 275 947 q 328 1051 285 1013 q 432 1090 371 1090 q 498 1076 474 1090 q 537 1043 522 1061 q 566 1011 551 1025 q 603 997 581 997 q 653 1042 644 997 l 660 1083 l 758 1083 l 751 1039 q 698 935 740 974 q 594 897 656 897 z "},"ə":{"ha":833,"x_min":75,"x_max":757,"o":"m 353 -14 q 144 67 213 -14 q 96 282 75 149 l 118 418 l 581 418 l 590 482 q 458 656 618 656 q 293 565 329 656 l 144 565 q 267 720 176 663 q 479 778 357 778 q 688 697 619 778 q 736 482 757 615 l 704 282 q 642 126 690 193 q 520 23 594 60 q 353 -14 446 -14 m 372 107 q 499 152 453 107 q 560 282 546 197 l 565 317 l 247 317 l 242 282 q 260 152 228 197 q 372 107 292 107 z "},"f":{"ha":833,"x_min":0,"x_max":833,"o":"m 0 -250 l 21 -121 l 111 -121 q 242 -11 224 -121 l 333 547 l 104 547 l 125 683 l 356 683 l 372 788 q 465 953 389 892 q 654 1014 540 1014 l 833 1014 l 813 881 l 635 881 q 521 786 536 881 l 506 683 l 794 683 l 772 547 l 483 547 l 392 -14 q 294 -187 374 -124 q 92 -250 214 -250 l 0 -250 z "},"g":{"ha":833,"x_min":83,"x_max":778,"o":"m 118 -250 l 138 -121 l 372 -121 q 506 -11 488 -121 l 518 65 l 543 207 l 540 207 q 459 90 519 132 q 314 47 399 47 q 140 125 196 47 q 104 336 83 203 l 129 490 q 231 700 150 622 q 429 778 313 778 q 562 735 515 778 q 606 618 608 693 l 607 618 l 628 764 l 778 764 l 654 -14 q 556 -187 636 -124 q 353 -250 476 -250 l 118 -250 m 382 176 q 501 220 453 176 q 563 343 549 264 l 583 482 q 562 603 596 560 q 457 647 528 647 q 337 604 383 647 q 278 482 290 561 l 256 343 q 276 219 243 263 q 382 176 310 176 z "},"ǵ":{"ha":833,"x_min":83,"x_max":778,"o":"m 118 -250 l 138 -121 l 372 -121 q 506 -11 488 -121 l 518 65 l 543 207 l 540 207 q 459 90 519 132 q 314 47 399 47 q 140 125 196 47 q 104 336 83 203 l 129 490 q 231 700 150 622 q 429 778 313 778 q 562 735 515 778 q 606 618 608 693 l 607 618 l 628 764 l 778 764 l 654 -14 q 556 -187 636 -124 q 353 -250 476 -250 l 118 -250 m 382 176 q 501 220 453 176 q 563 343 549 264 l 583 482 q 562 603 596 560 q 457 647 528 647 q 337 604 383 647 q 278 482 290 561 l 256 343 q 276 219 243 263 q 382 176 310 176 m 396 896 l 572 1090 l 742 1090 l 554 896 l 396 896 z "},"ğ":{"ha":833,"x_min":83,"x_max":778,"o":"m 118 -250 l 138 -121 l 372 -121 q 506 -11 488 -121 l 518 65 l 543 207 l 540 207 q 459 90 519 132 q 314 47 399 47 q 140 125 196 47 q 104 336 83 203 l 129 490 q 231 700 150 622 q 429 778 313 778 q 562 735 515 778 q 606 618 608 693 l 607 618 l 628 764 l 778 764 l 654 -14 q 556 -187 636 -124 q 353 -250 476 -250 l 118 -250 m 382 176 q 501 220 453 176 q 563 343 549 264 l 583 482 q 562 603 596 560 q 457 647 528 647 q 337 604 383 647 q 278 482 290 561 l 256 343 q 276 219 243 263 q 382 176 310 176 m 492 888 q 333 943 388 888 q 292 1090 278 999 l 406 1090 q 426 1010 399 1040 q 504 979 453 979 q 593 1010 557 979 q 638 1090 629 1040 l 757 1090 q 669 943 743 999 q 492 888 596 888 z "},"ǧ":{"ha":833,"x_min":83,"x_max":786,"o":"m 118 -250 l 138 -121 l 372 -121 q 506 -11 488 -121 l 518 65 l 543 207 l 540 207 q 459 90 519 132 q 314 47 399 47 q 140 125 196 47 q 104 336 83 203 l 129 490 q 231 700 150 622 q 429 778 313 778 q 562 735 515 778 q 606 618 608 693 l 607 618 l 628 764 l 778 764 l 654 -14 q 556 -187 636 -124 q 353 -250 476 -250 l 118 -250 m 382 176 q 501 220 453 176 q 563 343 549 264 l 583 482 q 562 603 596 560 q 457 647 528 647 q 337 604 383 647 q 278 482 290 561 l 256 343 q 276 219 243 263 q 382 176 310 176 m 425 896 l 264 1090 l 413 1090 l 507 985 l 628 1090 l 786 1090 l 564 896 l 425 896 z "},"ĝ":{"ha":833,"x_min":83,"x_max":778,"o":"m 118 -250 l 138 -121 l 372 -121 q 506 -11 488 -121 l 518 65 l 543 207 l 540 207 q 459 90 519 132 q 314 47 399 47 q 140 125 196 47 q 104 336 83 203 l 129 490 q 231 700 150 622 q 429 778 313 778 q 562 735 515 778 q 606 618 608 693 l 607 618 l 628 764 l 778 764 l 654 -14 q 556 -187 636 -124 q 353 -250 476 -250 l 118 -250 m 382 176 q 501 220 453 176 q 563 343 549 264 l 583 482 q 562 603 596 560 q 457 647 528 647 q 337 604 383 647 q 278 482 290 561 l 256 343 q 276 219 243 263 q 382 176 310 176 m 232 896 l 454 1090 l 593 1090 l 754 896 l 606 896 l 513 1001 l 390 896 l 232 896 z "},"ģ":{"ha":833,"x_min":83,"x_max":778,"o":"m 118 -250 l 138 -121 l 372 -121 q 506 -11 488 -121 l 518 65 l 543 207 l 540 207 q 459 90 519 132 q 314 47 399 47 q 140 125 196 47 q 104 336 83 203 l 129 490 q 231 700 150 622 q 429 778 313 778 q 562 735 515 778 q 606 618 608 693 l 607 618 l 628 764 l 778 764 l 654 -14 q 556 -187 636 -124 q 353 -250 476 -250 l 118 -250 m 382 176 q 501 220 453 176 q 563 343 549 264 l 583 482 q 562 603 596 560 q 457 647 528 647 q 337 604 383 647 q 278 482 290 561 l 256 343 q 276 219 243 263 q 382 176 310 176 m 713 1222 l 550 896 l 361 896 l 593 1222 l 713 1222 z "},"ġ":{"ha":833,"x_min":83,"x_max":778,"o":"m 118 -250 l 138 -121 l 372 -121 q 506 -11 488 -121 l 518 65 l 543 207 l 540 207 q 459 90 519 132 q 314 47 399 47 q 140 125 196 47 q 104 336 83 203 l 129 490 q 231 700 150 622 q 429 778 313 778 q 562 735 515 778 q 606 618 608 693 l 607 618 l 628 764 l 778 764 l 654 -14 q 556 -187 636 -124 q 353 -250 476 -250 l 118 -250 m 382 176 q 501 220 453 176 q 563 343 549 264 l 583 482 q 562 603 596 560 q 457 647 528 647 q 337 604 383 647 q 278 482 290 561 l 256 343 q 276 219 243 263 q 382 176 310 176 m 493 896 q 420 922 444 896 q 401 990 396 947 q 441 1060 408 1035 q 524 1086 474 1086 q 597 1060 572 1086 q 615 990 622 1035 q 576 922 608 947 q 493 896 543 896 z "},"h":{"ha":833,"x_min":56,"x_max":758,"o":"m 56 0 l 217 1014 l 367 1014 l 326 764 l 301 618 l 304 618 q 386 736 326 694 q 532 778 446 778 q 702 705 646 778 q 739 508 758 632 l 658 0 l 508 0 l 586 492 q 564 608 597 567 q 461 650 531 650 q 342 606 390 650 q 282 482 294 561 l 206 0 l 56 0 z "},"ħ":{"ha":833,"x_min":56,"x_max":744,"o":"m 63 786 l 81 896 l 197 896 l 217 1014 l 367 1014 l 347 896 l 571 896 l 553 786 l 331 786 l 314 681 l 289 535 l 290 535 q 373 653 314 611 q 518 694 432 694 q 688 622 632 694 q 725 425 744 549 l 658 0 l 508 0 l 574 408 q 551 525 585 483 q 449 567 518 567 q 328 522 376 567 q 269 399 281 478 l 206 0 l 56 0 l 181 786 l 63 786 z "},"ĥ":{"ha":833,"x_min":56,"x_max":758,"o":"m 56 0 l 217 1014 l 367 1014 l 326 764 l 301 618 l 304 618 q 386 736 326 694 q 532 778 446 778 q 702 705 646 778 q 739 508 758 632 l 658 0 l 508 0 l 586 492 q 564 608 597 567 q 461 650 531 650 q 342 606 390 650 q 282 482 294 561 l 206 0 l 56 0 m 103 1126 l 325 1321 l 464 1321 l 625 1126 l 476 1126 l 383 1232 l 261 1126 l 103 1126 z "},"i":{"ha":833,"x_min":46,"x_max":729,"o":"m 46 0 l 68 136 l 336 136 l 414 628 l 181 628 l 201 764 l 582 764 l 482 136 l 729 136 l 707 0 l 46 0 m 521 896 q 448 922 472 896 q 429 990 424 947 q 469 1060 436 1035 q 551 1086 501 1086 q 625 1060 600 1086 q 643 990 650 1035 q 603 922 636 947 q 521 896 571 896 z "},"ı":{"ha":833,"x_min":46,"x_max":729,"o":"m 46 0 l 68 136 l 336 136 l 414 628 l 181 628 l 201 764 l 582 764 l 482 136 l 729 136 l 707 0 l 46 0 z "},"í":{"ha":833,"x_min":46,"x_max":769,"o":"m 46 0 l 68 136 l 336 136 l 414 628 l 181 628 l 201 764 l 582 764 l 482 136 l 729 136 l 707 0 l 46 0 m 424 896 l 600 1090 l 769 1090 l 582 896 l 424 896 z "},"ĭ":{"ha":833,"x_min":46,"x_max":785,"o":"m 46 0 l 68 136 l 336 136 l 414 628 l 181 628 l 201 764 l 582 764 l 482 136 l 729 136 l 707 0 l 46 0 m 519 888 q 360 943 415 888 q 319 1090 306 999 l 433 1090 q 453 1010 426 1040 q 532 979 481 979 q 621 1010 585 979 q 665 1090 657 1040 l 785 1090 q 697 943 771 999 q 519 888 624 888 z "},"ǐ":{"ha":833,"x_min":46,"x_max":814,"o":"m 46 0 l 68 136 l 336 136 l 414 628 l 181 628 l 201 764 l 582 764 l 482 136 l 729 136 l 707 0 l 46 0 m 453 896 l 292 1090 l 440 1090 l 535 985 l 656 1090 l 814 1090 l 592 896 l 453 896 z "},"î":{"ha":833,"x_min":46,"x_max":782,"o":"m 46 0 l 68 136 l 336 136 l 414 628 l 181 628 l 201 764 l 582 764 l 482 136 l 729 136 l 707 0 l 46 0 m 260 896 l 482 1090 l 621 1090 l 782 896 l 633 896 l 540 1001 l 418 896 l 260 896 z "},"ï":{"ha":833,"x_min":46,"x_max":796,"o":"m 46 0 l 68 136 l 336 136 l 414 628 l 181 628 l 201 764 l 582 764 l 482 136 l 729 136 l 707 0 l 46 0 m 679 896 q 614 922 636 896 q 599 990 592 947 q 635 1060 606 1035 q 710 1086 665 1086 q 774 1060 753 1086 q 789 990 796 1035 q 753 922 783 947 q 679 896 724 896 m 361 896 q 296 922 318 896 q 281 990 274 947 q 317 1060 288 1035 q 392 1086 347 1086 q 457 1060 435 1086 q 472 990 479 1035 q 435 922 465 947 q 361 896 406 896 z "},"ị":{"ha":833,"x_min":46,"x_max":729,"o":"m 46 0 l 68 136 l 336 136 l 414 628 l 181 628 l 201 764 l 582 764 l 482 136 l 729 136 l 707 0 l 46 0 m 521 896 q 448 922 472 896 q 429 990 424 947 q 469 1060 436 1035 q 551 1086 501 1086 q 625 1060 600 1086 q 643 990 650 1035 q 603 922 636 947 q 521 896 571 896 m 331 -304 q 257 -279 282 -304 q 239 -210 232 -254 q 279 -141 246 -167 q 361 -115 313 -115 q 435 -141 411 -115 q 451 -210 460 -167 q 413 -279 446 -254 q 331 -304 381 -304 z "},"ì":{"ha":833,"x_min":46,"x_max":729,"o":"m 46 0 l 68 136 l 336 136 l 414 628 l 181 628 l 201 764 l 582 764 l 482 136 l 729 136 l 707 0 l 46 0 m 467 896 l 336 1090 l 494 1090 l 614 896 l 467 896 z "},"ỉ":{"ha":833,"x_min":46,"x_max":729,"o":"m 46 0 l 68 136 l 336 136 l 414 628 l 181 628 l 201 764 l 582 764 l 482 136 l 729 136 l 707 0 l 46 0 m 449 896 l 531 982 q 557 1025 556 1007 q 524 1051 561 1051 l 417 1051 l 432 1150 l 578 1150 q 665 1121 635 1150 q 688 1042 694 1092 q 649 964 681 999 l 585 896 l 449 896 z "},"ī":{"ha":833,"x_min":46,"x_max":775,"o":"m 46 0 l 68 136 l 336 136 l 414 628 l 181 628 l 201 764 l 582 764 l 482 136 l 729 136 l 707 0 l 46 0 m 294 925 l 314 1043 l 775 1043 l 756 925 l 294 925 z "},"į":{"ha":833,"x_min":46,"x_max":729,"o":"m 521 896 q 447 922 471 896 q 429 990 422 947 q 469 1060 436 1035 q 550 1086 501 1086 q 624 1060 600 1086 q 642 990 649 1035 q 602 922 635 947 q 521 896 569 896 m 46 0 l 68 136 l 336 136 l 414 628 l 181 628 l 201 764 l 582 764 l 482 136 l 729 136 l 707 0 l 432 0 l 422 -7 q 353 -70 376 -42 q 325 -125 329 -99 q 337 -171 321 -153 q 388 -189 353 -189 l 474 -189 l 458 -292 l 338 -292 q 217 -253 258 -292 q 186 -154 176 -214 q 224 -77 193 -117 q 318 0 256 -37 l 46 0 z "},"ĩ":{"ha":833,"x_min":46,"x_max":782,"o":"m 46 0 l 68 136 l 336 136 l 414 628 l 181 628 l 201 764 l 582 764 l 482 136 l 729 136 l 707 0 l 46 0 m 618 897 q 552 911 576 897 q 513 943 528 925 q 483 976 497 961 q 446 990 468 990 q 396 942 404 990 l 390 904 l 292 904 l 299 947 q 351 1051 308 1013 q 456 1090 394 1090 q 522 1076 497 1090 q 560 1043 546 1061 q 590 1011 575 1025 q 626 997 604 997 q 676 1042 668 997 l 683 1083 l 782 1083 l 775 1039 q 722 935 764 974 q 618 897 679 897 z "},"j":{"ha":833,"x_min":15,"x_max":749,"o":"m 15 -250 l 38 -111 l 231 -111 q 356 -69 307 -111 q 418 49 406 -28 l 508 626 l 196 626 l 218 764 l 681 764 l 567 47 q 449 -170 546 -90 q 211 -250 353 -250 l 15 -250 m 619 896 q 547 922 571 896 q 528 990 522 947 q 567 1060 535 1035 q 650 1086 600 1086 q 724 1060 699 1086 q 742 990 749 1035 q 702 922 735 947 q 619 896 669 896 z "},"ȷ":{"ha":833,"x_min":15,"x_max":681,"o":"m 15 -250 l 38 -111 l 231 -111 q 356 -69 307 -111 q 418 49 406 -28 l 508 626 l 196 626 l 218 764 l 681 764 l 567 47 q 449 -170 546 -90 q 211 -250 353 -250 l 15 -250 z "},"ĵ":{"ha":833,"x_min":15,"x_max":881,"o":"m 15 -250 l 38 -111 l 231 -111 q 356 -69 307 -111 q 418 49 406 -28 l 508 626 l 196 626 l 218 764 l 681 764 l 567 47 q 449 -170 546 -90 q 211 -250 353 -250 l 15 -250 m 358 896 l 581 1090 l 719 1090 l 881 896 l 732 896 l 639 1001 l 517 896 l 358 896 z "},"k":{"ha":833,"x_min":60,"x_max":828,"o":"m 60 0 l 221 1014 l 371 1014 l 282 457 l 403 457 l 656 764 l 828 764 l 526 392 l 711 0 l 543 0 l 390 328 l 263 328 l 210 0 l 60 0 z "},"ķ":{"ha":833,"x_min":60,"x_max":828,"o":"m 60 0 l 221 1014 l 371 1014 l 282 457 l 403 457 l 656 764 l 828 764 l 526 392 l 711 0 l 543 0 l 390 328 l 263 328 l 210 0 l 60 0 m 144 -333 l 308 -132 l 472 -132 l 290 -333 l 144 -333 z "},"ĸ":{"ha":833,"x_min":63,"x_max":828,"o":"m 63 0 l 183 764 l 333 764 l 285 457 l 403 457 l 656 764 l 828 764 l 526 392 l 711 0 l 542 0 l 390 328 l 264 328 l 213 0 l 63 0 z "},"l":{"ha":833,"x_min":128,"x_max":731,"o":"m 457 0 q 294 63 349 0 q 257 232 240 126 l 358 878 l 128 878 l 150 1014 l 531 1014 l 407 232 q 421 162 400 188 q 483 136 442 136 l 731 136 l 710 0 l 457 0 z "},"ĺ":{"ha":833,"x_min":128,"x_max":731,"o":"m 457 0 q 294 63 349 0 q 257 232 240 126 l 358 878 l 128 878 l 150 1014 l 531 1014 l 407 232 q 421 162 400 188 q 483 136 442 136 l 731 136 l 710 0 l 457 0 m 365 1125 l 542 1319 l 711 1319 l 524 1125 l 365 1125 z "},"ƛ":{"ha":833,"x_min":0,"x_max":753,"o":"m 0 0 l 406 753 l 404 754 l 164 643 l 183 764 l 381 856 l 343 1014 l 503 1014 l 522 921 l 753 1028 l 733 907 l 543 818 l 715 0 l 561 0 l 471 471 q 458 553 461 514 q 451 617 454 593 q 436 553 447 593 q 403 471 425 514 l 167 0 l 0 0 z "},"ľ":{"ha":833,"x_min":128,"x_max":1129,"o":"m 457 0 q 294 63 349 0 q 257 232 240 126 l 358 878 l 128 878 l 150 1014 l 531 1014 l 407 232 q 421 162 400 188 q 483 136 442 136 l 731 136 l 710 0 l 457 0 m 933 1014 l 988 1264 l 1129 1264 l 1061 1014 l 933 1014 z "},"ļ":{"ha":833,"x_min":128,"x_max":731,"o":"m 457 0 q 294 63 349 0 q 257 232 240 126 l 358 878 l 128 878 l 150 1014 l 531 1014 l 407 232 q 421 162 400 188 q 483 136 442 136 l 731 136 l 710 0 l 457 0 m 139 -333 l 303 -132 l 467 -132 l 285 -333 l 139 -333 z "},"ŀ":{"ha":833,"x_min":100,"x_max":897,"o":"m 429 0 q 267 63 321 0 q 229 232 213 126 l 331 878 l 100 878 l 122 1014 l 503 1014 l 379 232 q 393 162 372 188 q 456 136 414 136 l 703 136 l 682 0 l 429 0 m 746 368 q 661 401 689 368 q 643 489 633 433 q 690 580 651 546 q 786 614 729 614 q 869 580 842 614 q 888 489 897 546 q 841 401 879 433 q 746 368 803 368 z "},"ł":{"ha":833,"x_min":128,"x_max":731,"o":"m 139 319 l 139 456 l 308 561 l 358 878 l 128 878 l 150 1014 l 531 1014 l 475 665 l 657 778 l 657 642 l 451 514 l 407 232 q 421 162 400 188 q 483 136 442 136 l 731 136 l 710 0 l 457 0 q 294 63 349 0 q 257 232 240 126 l 285 410 l 139 319 z "},"m":{"ha":833,"x_min":21,"x_max":796,"o":"m 21 0 l 142 764 l 268 764 l 251 667 l 260 667 q 313 748 275 718 q 401 778 350 778 q 477 749 449 778 q 510 667 506 719 l 515 667 q 571 748 532 718 q 661 778 610 778 q 763 724 731 778 q 783 582 796 669 l 692 0 l 557 0 l 647 575 q 639 642 654 618 q 589 665 624 665 q 533 642 556 665 q 503 576 510 619 l 413 0 l 300 0 l 390 575 q 381 642 396 618 q 331 665 365 665 q 246 576 260 665 l 156 0 l 21 0 z "},"n":{"ha":833,"x_min":56,"x_max":758,"o":"m 56 0 l 176 764 l 325 764 l 301 618 l 304 618 q 386 736 326 694 q 532 778 446 778 q 702 705 646 778 q 739 508 758 632 l 658 0 l 508 0 l 586 492 q 564 608 597 567 q 461 650 531 650 q 342 606 390 650 q 282 482 294 561 l 206 0 l 56 0 z "},"ń":{"ha":833,"x_min":56,"x_max":758,"o":"m 56 0 l 176 764 l 325 764 l 301 618 l 304 618 q 386 736 326 694 q 532 778 446 778 q 702 705 646 778 q 739 508 758 632 l 658 0 l 508 0 l 586 492 q 564 608 597 567 q 461 650 531 650 q 342 606 390 650 q 282 482 294 561 l 206 0 l 56 0 m 401 896 l 578 1090 l 747 1090 l 560 896 l 401 896 z "},"ŉ":{"ha":833,"x_min":47,"x_max":758,"o":"m 56 0 l 176 764 l 325 764 l 301 618 l 304 618 q 386 736 326 694 q 532 778 446 778 q 702 705 646 778 q 739 508 758 632 l 658 0 l 508 0 l 586 492 q 564 608 597 567 q 461 650 531 650 q 342 606 390 650 q 282 482 294 561 l 206 0 l 56 0 m 47 896 l 211 1097 l 375 1097 l 193 896 l 47 896 z "},"ň":{"ha":833,"x_min":56,"x_max":792,"o":"m 56 0 l 176 764 l 325 764 l 301 618 l 304 618 q 386 736 326 694 q 532 778 446 778 q 702 705 646 778 q 739 508 758 632 l 658 0 l 508 0 l 586 492 q 564 608 597 567 q 461 650 531 650 q 342 606 390 650 q 282 482 294 561 l 206 0 l 56 0 m 431 896 l 269 1090 l 418 1090 l 513 985 l 633 1090 l 792 1090 l 569 896 l 431 896 z "},"ņ":{"ha":833,"x_min":56,"x_max":758,"o":"m 56 0 l 176 764 l 325 764 l 301 618 l 304 618 q 386 736 326 694 q 532 778 446 778 q 702 705 646 778 q 739 508 758 632 l 658 0 l 508 0 l 586 492 q 564 608 597 567 q 461 650 531 650 q 342 606 390 650 q 282 482 294 561 l 206 0 l 56 0 m 144 -333 l 308 -132 l 472 -132 l 290 -333 l 144 -333 z "},"ŋ":{"ha":833,"x_min":58,"x_max":756,"o":"m 235 -250 l 257 -110 l 343 -110 q 456 -72 411 -110 q 511 32 500 -35 l 585 492 q 563 608 596 567 q 461 650 531 650 q 344 606 390 650 q 283 482 297 561 l 208 0 l 58 0 l 179 764 l 326 764 l 303 618 l 306 618 q 387 736 328 694 q 532 778 446 778 q 701 705 646 778 q 738 508 756 632 l 660 25 q 600 -119 647 -57 q 479 -216 553 -182 q 317 -250 406 -250 l 235 -250 z "},"ñ":{"ha":833,"x_min":56,"x_max":760,"o":"m 56 0 l 176 764 l 325 764 l 301 618 l 304 618 q 386 736 326 694 q 532 778 446 778 q 702 705 646 778 q 739 508 758 632 l 658 0 l 508 0 l 586 492 q 564 608 597 567 q 461 650 531 650 q 342 606 390 650 q 282 482 294 561 l 206 0 l 56 0 m 596 897 q 530 911 554 897 q 490 943 506 925 q 460 976 475 961 q 424 990 446 990 q 374 942 382 990 l 368 904 l 269 904 l 276 947 q 329 1051 286 1013 q 433 1090 372 1090 q 499 1076 475 1090 q 538 1043 524 1061 q 567 1011 553 1025 q 604 997 582 997 q 654 1042 646 997 l 661 1083 l 760 1083 l 753 1039 q 699 935 742 974 q 596 897 657 897 z "},"o":{"ha":833,"x_min":72,"x_max":760,"o":"m 353 -14 q 142 66 211 -14 q 94 282 72 146 l 125 482 q 242 698 147 618 q 479 778 338 778 q 690 699 621 778 q 739 483 760 619 l 707 282 q 590 66 685 146 q 353 -14 494 -14 m 374 118 q 496 160 449 118 q 557 282 543 201 l 588 482 q 567 604 600 563 q 458 646 533 646 q 336 604 383 646 q 275 482 289 563 l 244 282 q 265 160 232 201 q 374 118 299 118 z "},"ó":{"ha":833,"x_min":72,"x_max":760,"o":"m 353 -14 q 142 66 211 -14 q 94 282 72 146 l 125 482 q 242 698 147 618 q 479 778 338 778 q 690 699 621 778 q 739 483 760 619 l 707 282 q 590 66 685 146 q 353 -14 494 -14 m 374 118 q 496 160 449 118 q 557 282 543 201 l 588 482 q 567 604 600 563 q 458 646 533 646 q 336 604 383 646 q 275 482 289 563 l 244 282 q 265 160 232 201 q 374 118 299 118 m 400 896 l 576 1090 l 746 1090 l 558 896 l 400 896 z "},"ŏ":{"ha":833,"x_min":72,"x_max":761,"o":"m 353 -14 q 142 66 211 -14 q 94 282 72 146 l 125 482 q 242 698 147 618 q 479 778 338 778 q 690 699 621 778 q 739 483 760 619 l 707 282 q 590 66 685 146 q 353 -14 494 -14 m 374 118 q 496 160 449 118 q 557 282 543 201 l 588 482 q 567 604 600 563 q 458 646 533 646 q 336 604 383 646 q 275 482 289 563 l 244 282 q 265 160 232 201 q 374 118 299 118 m 496 888 q 337 943 392 888 q 296 1090 282 999 l 410 1090 q 430 1010 403 1040 q 508 979 457 979 q 597 1010 561 979 q 642 1090 633 1040 l 761 1090 q 674 943 747 999 q 496 888 600 888 z "},"ǒ":{"ha":833,"x_min":72,"x_max":790,"o":"m 353 -14 q 142 66 211 -14 q 94 282 72 146 l 125 482 q 242 698 147 618 q 479 778 338 778 q 690 699 621 778 q 739 483 760 619 l 707 282 q 590 66 685 146 q 353 -14 494 -14 m 374 118 q 496 160 449 118 q 557 282 543 201 l 588 482 q 567 604 600 563 q 458 646 533 646 q 336 604 383 646 q 275 482 289 563 l 244 282 q 265 160 232 201 q 374 118 299 118 m 429 896 l 268 1090 l 417 1090 l 511 985 l 632 1090 l 790 1090 l 568 896 l 429 896 z "},"ô":{"ha":833,"x_min":72,"x_max":760,"o":"m 353 -14 q 142 66 211 -14 q 94 282 72 146 l 125 482 q 242 698 147 618 q 479 778 338 778 q 690 699 621 778 q 739 483 760 619 l 707 282 q 590 66 685 146 q 353 -14 494 -14 m 374 118 q 496 160 449 118 q 557 282 543 201 l 588 482 q 567 604 600 563 q 458 646 533 646 q 336 604 383 646 q 275 482 289 563 l 244 282 q 265 160 232 201 q 374 118 299 118 m 236 896 l 458 1090 l 597 1090 l 758 896 l 610 896 l 517 1001 l 394 896 l 236 896 z "},"ố":{"ha":833,"x_min":72,"x_max":1029,"o":"m 353 -14 q 142 66 211 -14 q 94 282 72 146 l 125 482 q 242 698 147 618 q 479 778 338 778 q 690 699 621 778 q 739 483 760 619 l 707 282 q 590 66 685 146 q 353 -14 494 -14 m 374 118 q 496 160 449 118 q 557 282 543 201 l 588 482 q 567 604 600 563 q 458 646 533 646 q 336 604 383 646 q 275 482 289 563 l 244 282 q 265 160 232 201 q 374 118 299 118 m 675 1054 l 867 1249 l 1029 1249 l 828 1054 l 675 1054 m 235 896 l 457 1090 l 596 1090 l 757 896 l 607 896 l 515 1001 l 392 896 l 235 896 z "},"ộ":{"ha":833,"x_min":72,"x_max":760,"o":"m 353 -14 q 142 66 211 -14 q 94 282 72 146 l 125 482 q 242 698 147 618 q 479 778 338 778 q 690 699 621 778 q 739 483 760 619 l 707 282 q 590 66 685 146 q 353 -14 494 -14 m 374 118 q 496 160 449 118 q 557 282 543 201 l 588 482 q 567 604 600 563 q 458 646 533 646 q 336 604 383 646 q 275 482 289 563 l 244 282 q 265 160 232 201 q 374 118 299 118 m 307 -304 q 233 -279 258 -304 q 215 -210 208 -254 q 256 -141 222 -167 q 338 -115 289 -115 q 412 -141 388 -115 q 428 -210 436 -167 q 390 -279 422 -254 q 307 -304 357 -304 m 236 896 l 458 1090 l 597 1090 l 758 896 l 610 896 l 517 1001 l 394 896 l 236 896 z "},"ồ":{"ha":833,"x_min":72,"x_max":894,"o":"m 353 -14 q 142 66 211 -14 q 94 282 72 146 l 125 482 q 242 698 147 618 q 479 778 338 778 q 690 699 621 778 q 739 483 760 619 l 707 282 q 590 66 685 146 q 353 -14 494 -14 m 374 118 q 496 160 449 118 q 557 282 543 201 l 588 482 q 567 604 600 563 q 458 646 533 646 q 336 604 383 646 q 275 482 289 563 l 244 282 q 265 160 232 201 q 374 118 299 118 m 750 1054 l 600 1249 l 753 1249 l 894 1054 l 750 1054 m 235 896 l 457 1090 l 596 1090 l 757 896 l 607 896 l 515 1001 l 392 896 l 235 896 z "},"ổ":{"ha":833,"x_min":72,"x_max":921,"o":"m 353 -14 q 142 66 211 -14 q 94 282 72 146 l 125 482 q 242 698 147 618 q 479 778 338 778 q 690 699 621 778 q 739 483 760 619 l 707 282 q 590 66 685 146 q 353 -14 494 -14 m 374 118 q 496 160 449 118 q 557 282 543 201 l 588 482 q 567 604 600 563 q 458 646 533 646 q 336 604 383 646 q 275 482 289 563 l 244 282 q 265 160 232 201 q 374 118 299 118 m 686 1054 l 764 1138 q 785 1174 782 1157 q 751 1204 789 1204 l 674 1204 l 688 1297 l 794 1297 q 888 1268 856 1297 q 914 1193 921 1239 q 875 1119 907 1154 l 817 1054 l 686 1054 m 235 896 l 457 1090 l 596 1090 l 757 896 l 607 896 l 515 1001 l 392 896 l 235 896 z "},"ỗ":{"ha":833,"x_min":72,"x_max":790,"o":"m 353 -14 q 142 66 211 -14 q 94 282 72 146 l 125 482 q 242 698 147 618 q 479 778 338 778 q 690 699 621 778 q 739 483 760 619 l 707 282 q 590 66 685 146 q 353 -14 494 -14 m 374 118 q 496 160 449 118 q 557 282 543 201 l 588 482 q 567 604 600 563 q 458 646 533 646 q 336 604 383 646 q 275 482 289 563 l 244 282 q 265 160 232 201 q 374 118 299 118 m 628 1133 q 560 1147 583 1133 q 522 1176 536 1160 q 494 1206 507 1193 q 457 1219 481 1219 q 408 1176 415 1219 l 403 1143 l 304 1143 l 310 1174 q 363 1270 318 1233 q 468 1307 407 1307 q 536 1294 513 1307 q 574 1263 560 1281 q 602 1233 589 1246 q 638 1221 615 1221 q 686 1261 679 1221 l 692 1296 l 790 1296 l 786 1267 q 733 1170 776 1207 q 628 1133 689 1133 m 235 896 l 457 1090 l 596 1090 l 757 896 l 607 896 l 515 1001 l 392 896 l 235 896 z "},"ö":{"ha":833,"x_min":72,"x_max":774,"o":"m 353 -14 q 142 66 211 -14 q 94 282 72 146 l 125 482 q 242 698 147 618 q 479 778 338 778 q 690 699 621 778 q 739 483 760 619 l 707 282 q 590 66 685 146 q 353 -14 494 -14 m 374 118 q 496 160 449 118 q 557 282 543 201 l 588 482 q 567 604 600 563 q 458 646 533 646 q 336 604 383 646 q 275 482 289 563 l 244 282 q 265 160 232 201 q 374 118 299 118 m 657 896 q 592 922 614 896 q 576 990 569 947 q 613 1060 583 1035 q 688 1086 643 1086 q 752 1060 731 1086 q 767 990 774 1035 q 731 922 761 947 q 657 896 701 896 m 339 896 q 274 922 296 896 q 258 990 251 947 q 295 1060 265 1035 q 369 1086 325 1086 q 435 1060 413 1086 q 450 990 457 1035 q 413 922 443 947 q 339 896 383 896 z "},"ọ":{"ha":833,"x_min":72,"x_max":760,"o":"m 353 -14 q 142 66 211 -14 q 94 282 72 146 l 125 482 q 242 698 147 618 q 479 778 338 778 q 690 699 621 778 q 739 483 760 619 l 707 282 q 590 66 685 146 q 353 -14 494 -14 m 374 118 q 496 160 449 118 q 557 282 543 201 l 588 482 q 567 604 600 563 q 458 646 533 646 q 336 604 383 646 q 275 482 289 563 l 244 282 q 265 160 232 201 q 374 118 299 118 m 307 -304 q 233 -279 258 -304 q 215 -210 208 -254 q 256 -141 222 -167 q 338 -115 289 -115 q 412 -141 388 -115 q 428 -210 436 -167 q 390 -279 422 -254 q 307 -304 357 -304 z "},"ò":{"ha":833,"x_min":72,"x_max":760,"o":"m 353 -14 q 142 66 211 -14 q 94 282 72 146 l 125 482 q 242 698 147 618 q 479 778 338 778 q 690 699 621 778 q 739 483 760 619 l 707 282 q 590 66 685 146 q 353 -14 494 -14 m 374 118 q 496 160 449 118 q 557 282 543 201 l 588 482 q 567 604 600 563 q 458 646 533 646 q 336 604 383 646 q 275 482 289 563 l 244 282 q 265 160 232 201 q 374 118 299 118 m 443 896 l 313 1090 l 471 1090 l 590 896 l 443 896 z "},"ỏ":{"ha":833,"x_min":72,"x_max":760,"o":"m 353 -14 q 142 66 211 -14 q 94 282 72 146 l 125 482 q 242 698 147 618 q 479 778 338 778 q 690 699 621 778 q 739 483 760 619 l 707 282 q 590 66 685 146 q 353 -14 494 -14 m 374 118 q 496 160 449 118 q 557 282 543 201 l 588 482 q 567 604 600 563 q 458 646 533 646 q 336 604 383 646 q 275 482 289 563 l 244 282 q 265 160 232 201 q 374 118 299 118 m 425 896 l 507 982 q 533 1025 532 1007 q 500 1051 538 1051 l 393 1051 l 408 1150 l 554 1150 q 641 1121 611 1150 q 664 1042 671 1092 q 625 964 657 999 l 561 896 l 425 896 z "},"ơ":{"ha":833,"x_min":72,"x_max":846,"o":"m 353 -14 q 142 66 211 -14 q 94 282 72 146 l 125 482 q 242 698 147 618 q 479 778 338 778 q 646 736 579 778 l 651 736 q 707 785 700 736 l 724 889 l 846 889 l 829 781 q 794 699 822 733 q 724 646 765 664 q 739 483 753 578 l 707 282 q 590 66 685 146 q 353 -14 494 -14 m 374 118 q 496 160 449 118 q 557 282 543 201 l 588 482 q 567 604 600 563 q 458 646 533 646 q 336 604 383 646 q 275 482 289 563 l 244 282 q 265 160 232 201 q 374 118 299 118 z "},"ớ":{"ha":833,"x_min":72,"x_max":846,"o":"m 353 -14 q 142 66 211 -14 q 94 282 72 146 l 125 482 q 242 698 147 618 q 479 778 338 778 q 646 736 579 778 l 651 736 q 707 785 700 736 l 724 889 l 846 889 l 829 781 q 794 699 822 733 q 724 646 765 664 q 739 483 753 578 l 707 282 q 590 66 685 146 q 353 -14 494 -14 m 374 118 q 496 160 449 118 q 557 282 543 201 l 588 482 q 567 604 600 563 q 458 646 533 646 q 336 604 383 646 q 275 482 289 563 l 244 282 q 265 160 232 201 q 374 118 299 118 m 386 896 l 563 1090 l 732 1090 l 544 896 l 386 896 z "},"ợ":{"ha":833,"x_min":72,"x_max":846,"o":"m 353 -14 q 142 66 211 -14 q 94 282 72 146 l 125 482 q 242 698 147 618 q 479 778 338 778 q 646 736 579 778 l 651 736 q 707 785 700 736 l 724 889 l 846 889 l 829 781 q 794 699 822 733 q 724 646 765 664 q 739 483 753 578 l 707 282 q 590 66 685 146 q 353 -14 494 -14 m 374 118 q 496 160 449 118 q 557 282 543 201 l 588 482 q 567 604 600 563 q 458 646 533 646 q 336 604 383 646 q 275 482 289 563 l 244 282 q 265 160 232 201 q 374 118 299 118 m 307 -304 q 233 -279 258 -304 q 215 -210 208 -254 q 256 -141 222 -167 q 338 -115 289 -115 q 412 -141 388 -115 q 428 -210 436 -167 q 390 -279 422 -254 q 307 -304 357 -304 z "},"ờ":{"ha":833,"x_min":72,"x_max":846,"o":"m 353 -14 q 142 66 211 -14 q 94 282 72 146 l 125 482 q 242 698 147 618 q 479 778 338 778 q 646 736 579 778 l 651 736 q 707 785 700 736 l 724 889 l 846 889 l 829 781 q 794 699 822 733 q 724 646 765 664 q 739 483 753 578 l 707 282 q 590 66 685 146 q 353 -14 494 -14 m 374 118 q 496 160 449 118 q 557 282 543 201 l 588 482 q 567 604 600 563 q 458 646 533 646 q 336 604 383 646 q 275 482 289 563 l 244 282 q 265 160 232 201 q 374 118 299 118 m 429 896 l 299 1090 l 457 1090 l 576 896 l 429 896 z "},"ở":{"ha":833,"x_min":72,"x_max":846,"o":"m 353 -14 q 142 66 211 -14 q 94 282 72 146 l 125 482 q 242 698 147 618 q 479 778 338 778 q 646 736 579 778 l 651 736 q 707 785 700 736 l 724 889 l 846 889 l 829 781 q 794 699 822 733 q 724 646 765 664 q 739 483 753 578 l 707 282 q 590 66 685 146 q 353 -14 494 -14 m 374 118 q 496 160 449 118 q 557 282 543 201 l 588 482 q 567 604 600 563 q 458 646 533 646 q 336 604 383 646 q 275 482 289 563 l 244 282 q 265 160 232 201 q 374 118 299 118 m 411 896 l 493 982 q 519 1025 518 1007 q 486 1051 524 1051 l 379 1051 l 394 1150 l 540 1150 q 627 1121 597 1150 q 650 1042 657 1092 q 611 964 643 999 l 547 896 l 411 896 z "},"ỡ":{"ha":833,"x_min":72,"x_max":846,"o":"m 353 -14 q 142 66 211 -14 q 94 282 72 146 l 125 482 q 242 698 147 618 q 479 778 338 778 q 646 736 579 778 l 651 736 q 707 785 700 736 l 724 889 l 846 889 l 829 781 q 794 699 822 733 q 724 646 765 664 q 739 483 753 578 l 707 282 q 590 66 685 146 q 353 -14 494 -14 m 374 118 q 496 160 449 118 q 557 282 543 201 l 588 482 q 567 604 600 563 q 458 646 533 646 q 336 604 383 646 q 275 482 289 563 l 244 282 q 265 160 232 201 q 374 118 299 118 m 581 897 q 515 911 539 897 q 475 943 490 925 q 445 976 460 961 q 408 990 431 990 q 358 942 367 990 l 353 904 l 254 904 l 261 947 q 314 1051 271 1013 q 418 1090 357 1090 q 484 1076 460 1090 q 523 1043 508 1061 q 552 1011 538 1025 q 589 997 567 997 q 639 1042 631 997 l 646 1083 l 744 1083 l 738 1039 q 684 935 726 974 q 581 897 642 897 z "},"ő":{"ha":833,"x_min":72,"x_max":865,"o":"m 353 -14 q 142 66 211 -14 q 94 282 72 146 l 125 482 q 242 698 147 618 q 479 778 338 778 q 690 699 621 778 q 739 483 760 619 l 707 282 q 590 66 685 146 q 353 -14 494 -14 m 374 118 q 496 160 449 118 q 557 282 543 201 l 588 482 q 567 604 600 563 q 458 646 533 646 q 336 604 383 646 q 275 482 289 563 l 244 282 q 265 160 232 201 q 374 118 299 118 m 532 896 l 713 1090 l 865 1090 l 675 896 l 532 896 m 264 896 l 446 1090 l 597 1090 l 407 896 l 264 896 z "},"ō":{"ha":833,"x_min":72,"x_max":760,"o":"m 353 -14 q 142 66 211 -14 q 94 282 72 146 l 125 482 q 242 698 147 618 q 479 778 338 778 q 690 699 621 778 q 739 483 760 619 l 707 282 q 590 66 685 146 q 353 -14 494 -14 m 374 118 q 496 160 449 118 q 557 282 543 201 l 588 482 q 567 604 600 563 q 458 646 533 646 q 336 604 383 646 q 275 482 289 563 l 244 282 q 265 160 232 201 q 374 118 299 118 m 271 925 l 290 1043 l 751 1043 l 732 925 l 271 925 z "},"ǫ":{"ha":833,"x_min":72,"x_max":760,"o":"m 404 -292 q 284 -253 325 -292 q 253 -154 243 -214 q 285 -85 258 -121 q 372 -8 313 -50 q 353 -14 361 -14 q 142 66 211 -14 q 94 282 72 146 l 125 482 q 242 698 147 618 q 479 778 338 778 q 690 699 621 778 q 739 483 760 619 l 707 282 q 650 135 693 199 q 542 33 607 71 l 489 -7 q 419 -69 443 -40 q 392 -125 396 -99 q 403 -171 388 -153 q 454 -189 419 -189 l 540 -189 l 525 -292 l 404 -292 m 374 118 q 496 160 449 118 q 557 282 543 201 l 588 482 q 567 604 600 563 q 458 646 533 646 q 336 604 383 646 q 275 482 289 563 l 244 282 q 265 160 232 201 q 374 118 299 118 z "},"ø":{"ha":833,"x_min":-24,"x_max":857,"o":"m -24 -42 l 111 114 q 94 282 79 185 l 125 482 q 242 698 147 618 q 479 778 338 778 q 646 736 581 778 l 718 819 l 857 819 l 718 658 q 739 483 756 586 l 707 282 q 590 66 685 146 q 353 -14 494 -14 q 178 33 246 -14 l 114 -42 l -24 -42 m 235 282 q 232 256 233 268 l 549 622 q 458 646 514 646 q 329 603 379 646 q 267 482 279 560 l 235 282 m 374 118 q 503 161 453 118 q 565 282 553 204 l 597 482 q 600 521 600 504 l 276 146 q 374 118 313 118 z "},"ǿ":{"ha":833,"x_min":-24,"x_max":857,"o":"m -24 -42 l 111 114 q 94 282 79 185 l 125 482 q 242 698 147 618 q 479 778 338 778 q 646 736 581 778 l 718 819 l 857 819 l 718 658 q 739 483 756 586 l 707 282 q 590 66 685 146 q 353 -14 494 -14 q 178 33 246 -14 l 114 -42 l -24 -42 m 235 282 q 232 256 233 268 l 549 622 q 458 646 514 646 q 329 603 379 646 q 267 482 279 560 l 235 282 m 374 118 q 503 161 453 118 q 565 282 553 204 l 597 482 q 600 521 600 504 l 276 146 q 374 118 313 118 m 400 896 l 576 1090 l 746 1090 l 558 896 l 400 896 z "},"õ":{"ha":833,"x_min":72,"x_max":760,"o":"m 353 -14 q 142 66 211 -14 q 94 282 72 146 l 125 482 q 242 698 147 618 q 479 778 338 778 q 690 699 621 778 q 739 483 760 619 l 707 282 q 590 66 685 146 q 353 -14 494 -14 m 374 118 q 496 160 449 118 q 557 282 543 201 l 588 482 q 567 604 600 563 q 458 646 533 646 q 336 604 383 646 q 275 482 289 563 l 244 282 q 265 160 232 201 q 374 118 299 118 m 594 897 q 528 911 553 897 q 489 943 504 925 q 459 976 474 961 q 422 990 444 990 q 372 942 381 990 l 367 904 l 268 904 l 275 947 q 328 1051 285 1013 q 432 1090 371 1090 q 498 1076 474 1090 q 537 1043 522 1061 q 566 1011 551 1025 q 603 997 581 997 q 653 1042 644 997 l 660 1083 l 758 1083 l 751 1039 q 698 935 740 974 q 594 897 656 897 z "},"œ":{"ha":833,"x_min":4,"x_max":828,"o":"m 186 -14 q 49 45 94 -14 q 19 204 4 104 l 76 560 q 156 719 92 660 q 313 778 221 778 q 399 760 367 778 q 444 717 431 743 q 458 669 458 692 l 465 669 q 493 717 471 692 q 553 760 515 743 q 646 778 590 778 q 783 719 738 778 q 813 560 828 660 l 779 347 l 476 347 l 454 204 q 465 129 446 157 q 522 101 483 101 q 582 122 556 101 q 619 181 608 143 l 750 181 q 663 39 726 92 q 519 -14 600 -14 q 432 3 464 -14 q 387 47 400 21 q 374 96 374 72 l 367 96 q 339 47 361 72 q 278 3 317 21 q 186 -14 240 -14 m 222 101 q 288 129 261 101 q 322 204 315 157 l 378 560 q 367 635 386 607 q 310 663 349 663 q 242 635 269 663 q 207 560 214 607 l 150 204 q 163 129 143 157 q 222 101 182 101 m 493 451 l 664 451 l 682 560 q 669 635 689 607 q 610 663 650 663 q 544 635 571 663 q 510 560 517 607 l 493 451 z "},"p":{"ha":833,"x_min":15,"x_max":760,"o":"m 15 -250 l 176 764 l 325 764 l 301 618 l 304 618 q 388 735 326 693 q 535 778 450 778 q 705 700 650 778 q 739 490 760 622 l 706 275 q 604 64 685 142 q 408 -14 524 -14 q 276 29 324 -14 q 229 146 228 72 l 225 146 l 201 -32 l 165 -250 l 15 -250 m 378 117 q 497 159 451 117 q 557 282 543 201 l 588 482 q 567 605 600 563 q 463 647 535 647 q 342 603 390 647 q 282 482 294 560 l 251 282 q 273 160 239 204 q 378 117 307 117 z "},"þ":{"ha":833,"x_min":11,"x_max":756,"o":"m 11 -250 l 63 78 l 64 78 l 213 1014 l 363 1014 l 326 796 l 294 618 l 299 618 q 383 735 322 693 q 529 778 444 778 q 700 700 644 778 q 735 489 756 622 l 700 274 q 599 63 679 140 q 403 -14 518 -14 q 269 28 317 -14 q 225 146 222 71 l 222 146 l 199 0 l 199 0 l 158 -250 l 11 -250 m 372 117 q 492 159 446 117 q 551 282 539 201 l 583 482 q 563 604 596 561 q 456 647 529 647 q 338 603 385 647 q 276 482 290 560 l 246 282 q 267 160 233 203 q 372 117 301 117 z "},"q":{"ha":833,"x_min":72,"x_max":776,"o":"m 465 -250 l 500 -32 l 533 146 l 528 146 q 443 28 504 71 q 299 -14 382 -14 q 127 64 182 -14 q 93 275 72 142 l 126 490 q 228 700 147 622 q 425 778 310 778 q 557 735 510 778 q 601 618 604 693 l 604 618 l 628 764 l 776 764 l 615 -250 l 465 -250 m 371 117 q 490 160 442 117 q 550 282 538 204 l 582 482 q 560 603 594 560 q 454 647 526 647 q 335 605 382 647 q 275 482 289 563 l 244 282 q 265 159 232 201 q 371 117 299 117 z "},"r":{"ha":833,"x_min":81,"x_max":794,"o":"m 81 0 l 201 764 l 346 764 l 322 619 q 554 778 383 778 q 735 702 676 778 q 774 494 794 626 l 765 443 l 611 443 l 618 482 q 597 608 631 564 q 490 651 564 651 q 368 607 417 651 q 307 482 319 563 l 231 0 l 81 0 z "},"ŕ":{"ha":833,"x_min":81,"x_max":794,"o":"m 81 0 l 201 764 l 346 764 l 322 619 q 554 778 383 778 q 735 702 676 778 q 774 494 794 626 l 765 443 l 611 443 l 618 482 q 597 608 631 564 q 490 651 564 651 q 368 607 417 651 q 307 482 319 563 l 231 0 l 81 0 m 428 896 l 604 1090 l 774 1090 l 586 896 l 428 896 z "},"ř":{"ha":833,"x_min":81,"x_max":818,"o":"m 81 0 l 201 764 l 346 764 l 322 619 q 554 778 383 778 q 735 702 676 778 q 774 494 794 626 l 765 443 l 611 443 l 618 482 q 597 608 631 564 q 490 651 564 651 q 368 607 417 651 q 307 482 319 563 l 231 0 l 81 0 m 457 896 l 296 1090 l 444 1090 l 539 985 l 660 1090 l 818 1090 l 596 896 l 457 896 z "},"ŗ":{"ha":833,"x_min":-85,"x_max":794,"o":"m 81 0 l 201 764 l 346 764 l 322 619 q 554 778 383 778 q 735 702 676 778 q 774 494 794 626 l 765 443 l 611 443 l 618 482 q 597 608 631 564 q 490 651 564 651 q 368 607 417 651 q 307 482 319 563 l 231 0 l 81 0 m -85 -333 l 79 -132 l 243 -132 l 61 -333 l -85 -333 z "},"s":{"ha":833,"x_min":65,"x_max":756,"o":"m 322 -14 q 131 44 197 -14 q 74 199 65 101 l 224 199 q 254 136 224 160 q 343 113 285 113 l 401 113 q 509 141 471 113 q 556 215 547 169 q 450 322 568 304 l 354 338 q 185 406 236 356 q 150 556 133 456 q 244 719 167 660 q 458 778 322 778 l 511 778 q 692 722 629 778 q 750 575 756 667 l 600 575 q 572 631 600 610 q 490 651 543 651 l 438 651 q 339 626 372 651 q 297 554 306 601 q 313 490 292 513 q 389 458 333 467 l 488 443 q 667 372 614 424 q 704 219 719 321 q 604 48 686 110 q 381 -14 522 -14 l 322 -14 z "},"ś":{"ha":833,"x_min":65,"x_max":756,"o":"m 322 -14 q 131 44 197 -14 q 74 199 65 101 l 224 199 q 254 136 224 160 q 343 113 285 113 l 401 113 q 509 141 471 113 q 556 215 547 169 q 450 322 568 304 l 354 338 q 185 406 236 356 q 150 556 133 456 q 244 719 167 660 q 458 778 322 778 l 511 778 q 692 722 629 778 q 750 575 756 667 l 600 575 q 572 631 600 610 q 490 651 543 651 l 438 651 q 339 626 372 651 q 297 554 306 601 q 313 490 292 513 q 389 458 333 467 l 488 443 q 667 372 614 424 q 704 219 719 321 q 604 48 686 110 q 381 -14 522 -14 l 322 -14 m 403 896 l 579 1090 l 749 1090 l 561 896 l 403 896 z "},"š":{"ha":833,"x_min":65,"x_max":792,"o":"m 322 -14 q 131 44 197 -14 q 74 199 65 101 l 224 199 q 254 136 224 160 q 343 113 285 113 l 401 113 q 509 141 471 113 q 556 215 547 169 q 450 322 568 304 l 354 338 q 185 406 236 356 q 150 556 133 456 q 244 719 167 660 q 458 778 322 778 l 511 778 q 692 722 629 778 q 750 575 756 667 l 600 575 q 572 631 600 610 q 490 651 543 651 l 438 651 q 339 626 372 651 q 297 554 306 601 q 313 490 292 513 q 389 458 333 467 l 488 443 q 667 372 614 424 q 704 219 719 321 q 604 48 686 110 q 381 -14 522 -14 l 322 -14 m 431 896 l 269 1090 l 418 1090 l 513 985 l 633 1090 l 792 1090 l 569 896 l 431 896 z "},"ş":{"ha":833,"x_min":65,"x_max":756,"o":"m 322 -14 q 131 44 197 -14 q 74 199 65 101 l 224 199 q 254 136 224 160 q 343 113 285 113 l 401 113 q 509 141 471 113 q 556 215 547 169 q 450 322 568 304 l 354 338 q 185 406 236 356 q 150 556 133 456 q 244 719 167 660 q 458 778 322 778 l 511 778 q 692 722 629 778 q 750 575 756 667 l 600 575 q 572 631 600 610 q 490 651 543 651 l 438 651 q 339 626 372 651 q 297 554 306 601 q 313 490 292 513 q 389 458 333 467 l 488 443 q 667 372 614 424 q 704 219 719 321 q 619 60 688 121 q 433 -11 551 0 l 419 -50 q 499 -69 458 -54 q 567 -109 539 -83 q 596 -172 596 -135 q 548 -256 596 -221 q 421 -292 500 -292 l 293 -292 l 293 -208 l 394 -208 q 444 -192 425 -208 q 464 -158 464 -176 q 425 -114 464 -132 q 314 -96 386 -96 l 344 -14 l 322 -14 z "},"ŝ":{"ha":833,"x_min":65,"x_max":760,"o":"m 322 -14 q 131 44 197 -14 q 74 199 65 101 l 224 199 q 254 136 224 160 q 343 113 285 113 l 401 113 q 509 141 471 113 q 556 215 547 169 q 450 322 568 304 l 354 338 q 185 406 236 356 q 150 556 133 456 q 244 719 167 660 q 458 778 322 778 l 511 778 q 692 722 629 778 q 750 575 756 667 l 600 575 q 572 631 600 610 q 490 651 543 651 l 438 651 q 339 626 372 651 q 297 554 306 601 q 313 490 292 513 q 389 458 333 467 l 488 443 q 667 372 614 424 q 704 219 719 321 q 604 48 686 110 q 381 -14 522 -14 l 322 -14 m 238 896 l 460 1090 l 599 1090 l 760 896 l 611 896 l 518 1001 l 396 896 l 238 896 z "},"ș":{"ha":833,"x_min":65,"x_max":756,"o":"m 322 -14 q 131 44 197 -14 q 74 199 65 101 l 224 199 q 254 136 224 160 q 343 113 285 113 l 401 113 q 509 141 471 113 q 556 215 547 169 q 450 322 568 304 l 354 338 q 185 406 236 356 q 150 556 133 456 q 244 719 167 660 q 458 778 322 778 l 511 778 q 692 722 629 778 q 750 575 756 667 l 600 575 q 572 631 600 610 q 490 651 543 651 l 438 651 q 339 626 372 651 q 297 554 306 601 q 313 490 292 513 q 389 458 333 467 l 488 443 q 667 372 614 424 q 704 219 719 321 q 604 48 686 110 q 381 -14 522 -14 l 322 -14 m 144 -333 l 308 -132 l 472 -132 l 290 -333 l 144 -333 z "},"ß":{"ha":833,"x_min":-183,"x_max":810,"o":"m -183 -250 l -162 -121 l -86 -121 q 51 -11 35 -121 l 171 735 q 233 888 185 822 q 356 991 281 954 q 525 1028 431 1028 q 735 959 661 1028 q 790 765 810 890 q 724 622 776 681 q 590 542 671 563 q 710 453 671 519 q 733 289 749 386 q 670 139 719 204 q 545 37 621 74 q 375 0 469 0 l 289 0 l 310 132 l 385 132 q 515 177 463 132 q 579 297 567 222 q 553 415 592 372 q 436 458 514 458 l 374 458 l 393 581 l 453 581 q 572 624 524 581 q 631 736 621 668 q 607 853 643 811 q 499 896 571 896 q 376 853 425 896 q 314 735 326 810 l 194 -14 q 97 -187 178 -124 q -106 -250 17 -250 l -183 -250 z "},"ſ":{"ha":833,"x_min":-71,"x_max":878,"o":"m -71 -250 l -50 -121 l 100 -121 q 232 -11 215 -121 l 358 788 q 451 953 375 892 q 642 1014 528 1014 l 878 1014 l 857 881 l 621 881 q 508 786 522 881 l 382 -14 q 285 -187 365 -124 q 81 -250 204 -250 l -71 -250 z "},"t":{"ha":833,"x_min":107,"x_max":789,"o":"m 439 0 q 285 57 335 0 q 253 217 236 114 l 318 628 l 107 628 l 128 764 l 339 764 l 372 972 l 522 972 l 489 764 l 789 764 l 767 628 l 468 628 l 403 217 q 467 136 389 136 l 675 136 l 654 0 l 439 0 z "},"ŧ":{"ha":833,"x_min":103,"x_max":789,"o":"m 103 324 l 121 444 l 289 444 l 318 628 l 107 628 l 128 764 l 339 764 l 372 972 l 522 972 l 489 764 l 789 764 l 767 628 l 468 628 l 439 444 l 675 444 l 657 324 l 419 324 l 403 217 q 467 136 389 136 l 675 136 l 654 0 l 439 0 q 285 57 335 0 q 253 217 236 114 l 269 324 l 103 324 z "},"ť":{"ha":833,"x_min":107,"x_max":893,"o":"m 590 861 l 746 1078 l 893 1078 l 724 861 l 590 861 m 439 0 q 285 57 335 0 q 253 217 236 114 l 318 628 l 107 628 l 128 764 l 339 764 l 372 972 l 522 972 l 489 764 l 789 764 l 767 628 l 468 628 l 403 217 q 467 136 389 136 l 675 136 l 654 0 l 439 0 z "},"ţ":{"ha":833,"x_min":107,"x_max":789,"o":"m 363 -292 l 363 -208 l 464 -208 q 514 -192 494 -208 q 533 -158 533 -176 q 494 -114 533 -132 q 383 -96 456 -96 l 419 0 q 281 62 325 6 q 253 217 236 118 l 318 628 l 107 628 l 128 764 l 339 764 l 372 972 l 522 972 l 489 764 l 789 764 l 767 628 l 468 628 l 403 217 q 467 136 389 136 l 675 136 l 654 0 l 507 0 l 489 -50 q 568 -69 528 -54 q 637 -109 608 -83 q 665 -172 665 -135 q 617 -256 665 -221 q 490 -292 569 -292 l 363 -292 z "},"ț":{"ha":833,"x_min":107,"x_max":789,"o":"m 439 0 q 285 57 335 0 q 253 217 236 114 l 318 628 l 107 628 l 128 764 l 339 764 l 372 972 l 522 972 l 489 764 l 789 764 l 767 628 l 468 628 l 403 217 q 467 136 389 136 l 675 136 l 654 0 l 439 0 m 228 -333 l 392 -132 l 556 -132 l 374 -333 l 228 -333 z "},"u":{"ha":833,"x_min":76,"x_max":779,"o":"m 351 -14 q 144 66 213 -14 q 99 283 76 146 l 174 764 l 324 764 l 249 285 q 269 160 236 204 q 374 117 301 117 q 492 160 444 117 q 553 285 540 204 l 629 764 l 779 764 l 703 283 q 641 125 689 192 q 519 22 593 58 q 351 -14 444 -14 z "},"ú":{"ha":833,"x_min":76,"x_max":779,"o":"m 351 -14 q 144 66 213 -14 q 99 283 76 146 l 174 764 l 324 764 l 249 285 q 269 160 236 204 q 374 117 301 117 q 492 160 444 117 q 553 285 540 204 l 629 764 l 779 764 l 703 283 q 641 125 689 192 q 519 22 593 58 q 351 -14 444 -14 m 400 896 l 576 1090 l 746 1090 l 558 896 l 400 896 z "},"ŭ":{"ha":833,"x_min":76,"x_max":779,"o":"m 351 -14 q 144 66 213 -14 q 99 283 76 146 l 174 764 l 324 764 l 249 285 q 269 160 236 204 q 374 117 301 117 q 492 160 444 117 q 553 285 540 204 l 629 764 l 779 764 l 703 283 q 641 125 689 192 q 519 22 593 58 q 351 -14 444 -14 m 496 888 q 337 943 392 888 q 296 1090 282 999 l 410 1090 q 430 1010 403 1040 q 508 979 457 979 q 597 1010 561 979 q 642 1090 633 1040 l 761 1090 q 674 943 747 999 q 496 888 600 888 z "},"ǔ":{"ha":833,"x_min":76,"x_max":790,"o":"m 351 -14 q 144 66 213 -14 q 99 283 76 146 l 174 764 l 324 764 l 249 285 q 269 160 236 204 q 374 117 301 117 q 492 160 444 117 q 553 285 540 204 l 629 764 l 779 764 l 703 283 q 641 125 689 192 q 519 22 593 58 q 351 -14 444 -14 m 429 896 l 268 1090 l 417 1090 l 511 985 l 632 1090 l 790 1090 l 568 896 l 429 896 z "},"û":{"ha":833,"x_min":76,"x_max":779,"o":"m 351 -14 q 144 66 213 -14 q 99 283 76 146 l 174 764 l 324 764 l 249 285 q 269 160 236 204 q 374 117 301 117 q 492 160 444 117 q 553 285 540 204 l 629 764 l 779 764 l 703 283 q 641 125 689 192 q 519 22 593 58 q 351 -14 444 -14 m 236 896 l 458 1090 l 597 1090 l 758 896 l 610 896 l 517 1001 l 394 896 l 236 896 z "},"ü":{"ha":833,"x_min":76,"x_max":779,"o":"m 351 -14 q 144 66 213 -14 q 99 283 76 146 l 174 764 l 324 764 l 249 285 q 269 160 236 204 q 374 117 301 117 q 492 160 444 117 q 553 285 540 204 l 629 764 l 779 764 l 703 283 q 641 125 689 192 q 519 22 593 58 q 351 -14 444 -14 m 657 896 q 592 922 614 896 q 576 990 569 947 q 613 1060 583 1035 q 688 1086 643 1086 q 752 1060 731 1086 q 767 990 774 1035 q 731 922 761 947 q 657 896 701 896 m 339 896 q 274 922 296 896 q 258 990 251 947 q 295 1060 265 1035 q 369 1086 325 1086 q 435 1060 413 1086 q 450 990 457 1035 q 413 922 443 947 q 339 896 383 896 z "},"ǘ":{"ha":833,"x_min":76,"x_max":797,"o":"m 351 -14 q 144 66 213 -14 q 99 283 76 146 l 174 764 l 324 764 l 249 285 q 269 160 236 204 q 374 117 301 117 q 492 160 444 117 q 553 285 540 204 l 629 764 l 779 764 l 703 283 q 641 125 689 192 q 519 22 593 58 q 351 -14 444 -14 m 657 896 q 592 922 614 896 q 576 990 569 947 q 613 1060 583 1035 q 688 1086 643 1086 q 752 1060 731 1086 q 767 990 774 1035 q 731 922 761 947 q 657 896 701 896 m 339 896 q 274 922 296 896 q 258 990 251 947 q 295 1060 265 1035 q 369 1086 325 1086 q 435 1060 413 1086 q 450 990 457 1035 q 413 922 443 947 q 339 896 383 896 m 451 1218 l 628 1413 l 797 1413 l 610 1218 l 451 1218 z "},"ǚ":{"ha":833,"x_min":76,"x_max":842,"o":"m 351 -14 q 144 66 213 -14 q 99 283 76 146 l 174 764 l 324 764 l 249 285 q 269 160 236 204 q 374 117 301 117 q 492 160 444 117 q 553 285 540 204 l 629 764 l 779 764 l 703 283 q 641 125 689 192 q 519 22 593 58 q 351 -14 444 -14 m 657 896 q 592 922 614 896 q 576 990 569 947 q 613 1060 583 1035 q 688 1086 643 1086 q 752 1060 731 1086 q 767 990 774 1035 q 731 922 761 947 q 657 896 701 896 m 339 896 q 274 922 296 896 q 258 990 251 947 q 295 1060 265 1035 q 369 1086 325 1086 q 435 1060 413 1086 q 450 990 457 1035 q 413 922 443 947 q 339 896 383 896 m 481 1218 l 319 1413 l 468 1413 l 563 1307 l 683 1413 l 842 1413 l 619 1218 l 481 1218 z "},"ǜ":{"ha":833,"x_min":76,"x_max":779,"o":"m 351 -14 q 144 66 213 -14 q 99 283 76 146 l 174 764 l 324 764 l 249 285 q 269 160 236 204 q 374 117 301 117 q 492 160 444 117 q 553 285 540 204 l 629 764 l 779 764 l 703 283 q 641 125 689 192 q 519 22 593 58 q 351 -14 444 -14 m 657 896 q 592 922 614 896 q 576 990 569 947 q 613 1060 583 1035 q 688 1086 643 1086 q 752 1060 731 1086 q 767 990 774 1035 q 731 922 761 947 q 657 896 701 896 m 339 896 q 274 922 296 896 q 258 990 251 947 q 295 1060 265 1035 q 369 1086 325 1086 q 435 1060 413 1086 q 450 990 457 1035 q 413 922 443 947 q 339 896 383 896 m 494 1218 l 364 1413 l 522 1413 l 642 1218 l 494 1218 z "},"ǖ":{"ha":833,"x_min":76,"x_max":803,"o":"m 351 -14 q 144 66 213 -14 q 99 283 76 146 l 174 764 l 324 764 l 249 285 q 269 160 236 204 q 374 117 301 117 q 492 160 444 117 q 553 285 540 204 l 629 764 l 779 764 l 703 283 q 641 125 689 192 q 519 22 593 58 q 351 -14 444 -14 m 657 896 q 592 922 614 896 q 576 990 569 947 q 613 1060 583 1035 q 688 1086 643 1086 q 752 1060 731 1086 q 767 990 774 1035 q 731 922 761 947 q 657 896 701 896 m 339 896 q 274 922 296 896 q 258 990 251 947 q 295 1060 265 1035 q 369 1086 325 1086 q 435 1060 413 1086 q 450 990 457 1035 q 413 922 443 947 q 339 896 383 896 m 322 1247 l 342 1365 l 803 1365 l 783 1247 l 322 1247 z "},"ụ":{"ha":833,"x_min":76,"x_max":779,"o":"m 351 -14 q 144 66 213 -14 q 99 283 76 146 l 174 764 l 324 764 l 249 285 q 269 160 236 204 q 374 117 301 117 q 492 160 444 117 q 553 285 540 204 l 629 764 l 779 764 l 703 283 q 641 125 689 192 q 519 22 593 58 q 351 -14 444 -14 m 307 -304 q 233 -279 258 -304 q 215 -210 208 -254 q 256 -141 222 -167 q 338 -115 289 -115 q 412 -141 388 -115 q 428 -210 436 -167 q 390 -279 422 -254 q 307 -304 357 -304 z "},"ù":{"ha":833,"x_min":76,"x_max":779,"o":"m 351 -14 q 144 66 213 -14 q 99 283 76 146 l 174 764 l 324 764 l 249 285 q 269 160 236 204 q 374 117 301 117 q 492 160 444 117 q 553 285 540 204 l 629 764 l 779 764 l 703 283 q 641 125 689 192 q 519 22 593 58 q 351 -14 444 -14 m 443 896 l 313 1090 l 471 1090 l 590 896 l 443 896 z "},"ủ":{"ha":833,"x_min":76,"x_max":779,"o":"m 351 -14 q 144 66 213 -14 q 99 283 76 146 l 174 764 l 324 764 l 249 285 q 269 160 236 204 q 374 117 301 117 q 492 160 444 117 q 553 285 540 204 l 629 764 l 779 764 l 703 283 q 641 125 689 192 q 519 22 593 58 q 351 -14 444 -14 m 425 896 l 507 982 q 533 1025 532 1007 q 500 1051 538 1051 l 393 1051 l 408 1150 l 554 1150 q 641 1121 611 1150 q 664 1042 671 1092 q 625 964 657 999 l 561 896 l 425 896 z "},"ư":{"ha":833,"x_min":76,"x_max":933,"o":"m 99 282 l 174 764 l 324 764 l 249 281 q 267 160 236 203 q 365 117 297 117 q 478 160 433 117 q 536 281 524 203 l 613 764 l 736 764 q 793 813 785 764 l 810 917 l 933 917 l 915 808 q 862 700 904 740 q 746 660 819 660 l 686 282 q 571 65 664 144 q 343 -14 478 -14 q 142 65 208 -14 q 99 282 76 144 z "},"ứ":{"ha":833,"x_min":76,"x_max":933,"o":"m 99 282 l 174 764 l 324 764 l 249 281 q 267 160 236 203 q 365 117 297 117 q 478 160 433 117 q 536 281 524 203 l 613 764 l 736 764 q 793 813 785 764 l 810 917 l 933 917 l 915 808 q 862 700 904 740 q 746 660 819 660 l 686 282 q 571 65 664 144 q 343 -14 478 -14 q 142 65 208 -14 q 99 282 76 144 m 392 896 l 568 1090 l 738 1090 l 550 896 l 392 896 z "},"ự":{"ha":833,"x_min":76,"x_max":933,"o":"m 99 282 l 174 764 l 324 764 l 249 281 q 267 160 236 203 q 365 117 297 117 q 478 160 433 117 q 536 281 524 203 l 613 764 l 736 764 q 793 813 785 764 l 810 917 l 933 917 l 915 808 q 862 700 904 740 q 746 660 819 660 l 686 282 q 571 65 664 144 q 343 -14 478 -14 q 142 65 208 -14 q 99 282 76 144 m 297 -304 q 224 -279 249 -304 q 206 -210 199 -254 q 246 -141 213 -167 q 328 -115 279 -115 q 402 -141 378 -115 q 418 -210 426 -167 q 380 -279 413 -254 q 297 -304 347 -304 z "},"ừ":{"ha":833,"x_min":76,"x_max":933,"o":"m 99 282 l 174 764 l 324 764 l 249 281 q 267 160 236 203 q 365 117 297 117 q 478 160 433 117 q 536 281 524 203 l 613 764 l 736 764 q 793 813 785 764 l 810 917 l 933 917 l 915 808 q 862 700 904 740 q 746 660 819 660 l 686 282 q 571 65 664 144 q 343 -14 478 -14 q 142 65 208 -14 q 99 282 76 144 m 435 896 l 304 1090 l 463 1090 l 582 896 l 435 896 z "},"ử":{"ha":833,"x_min":76,"x_max":933,"o":"m 99 282 l 174 764 l 324 764 l 249 281 q 267 160 236 203 q 365 117 297 117 q 478 160 433 117 q 536 281 524 203 l 613 764 l 736 764 q 793 813 785 764 l 810 917 l 933 917 l 915 808 q 862 700 904 740 q 746 660 819 660 l 686 282 q 571 65 664 144 q 343 -14 478 -14 q 142 65 208 -14 q 99 282 76 144 m 417 896 l 499 982 q 525 1025 524 1007 q 492 1051 529 1051 l 385 1051 l 400 1150 l 546 1150 q 633 1121 603 1150 q 656 1042 663 1092 q 617 964 649 999 l 553 896 l 417 896 z "},"ữ":{"ha":833,"x_min":76,"x_max":933,"o":"m 99 282 l 174 764 l 324 764 l 249 281 q 267 160 236 203 q 365 117 297 117 q 478 160 433 117 q 536 281 524 203 l 613 764 l 736 764 q 793 813 785 764 l 810 917 l 933 917 l 915 808 q 862 700 904 740 q 746 660 819 660 l 686 282 q 571 65 664 144 q 343 -14 478 -14 q 142 65 208 -14 q 99 282 76 144 m 586 897 q 520 911 544 897 q 481 943 496 925 q 451 976 465 961 q 414 990 436 990 q 364 942 372 990 l 358 904 l 260 904 l 267 947 q 319 1051 276 1013 q 424 1090 363 1090 q 490 1076 465 1090 q 528 1043 514 1061 q 558 1011 543 1025 q 594 997 572 997 q 644 1042 636 997 l 651 1083 l 750 1083 l 743 1039 q 690 935 732 974 q 586 897 647 897 z "},"ű":{"ha":833,"x_min":76,"x_max":865,"o":"m 351 -14 q 144 66 213 -14 q 99 283 76 146 l 174 764 l 324 764 l 249 285 q 269 160 236 204 q 374 117 301 117 q 492 160 444 117 q 553 285 540 204 l 629 764 l 779 764 l 703 283 q 641 125 689 192 q 519 22 593 58 q 351 -14 444 -14 m 532 896 l 713 1090 l 865 1090 l 675 896 l 532 896 m 264 896 l 446 1090 l 597 1090 l 407 896 l 264 896 z "},"ū":{"ha":833,"x_min":76,"x_max":779,"o":"m 351 -14 q 144 66 213 -14 q 99 283 76 146 l 174 764 l 324 764 l 249 285 q 269 160 236 204 q 374 117 301 117 q 492 160 444 117 q 553 285 540 204 l 629 764 l 779 764 l 703 283 q 641 125 689 192 q 519 22 593 58 q 351 -14 444 -14 m 271 925 l 290 1043 l 751 1043 l 732 925 l 271 925 z "},"ų":{"ha":833,"x_min":76,"x_max":779,"o":"m 404 -292 q 284 -253 325 -292 q 253 -154 243 -214 q 285 -85 258 -121 q 372 -8 313 -50 q 353 -14 361 -14 q 144 66 211 -14 q 99 282 76 146 l 174 764 l 324 764 l 249 282 q 374 118 221 118 q 553 282 526 118 l 629 764 l 779 764 l 703 282 q 542 33 676 110 l 489 -7 q 419 -69 443 -40 q 392 -125 396 -99 q 403 -171 388 -153 q 454 -189 419 -189 l 540 -189 l 525 -292 l 404 -292 z "},"ů":{"ha":833,"x_min":76,"x_max":779,"o":"m 351 -14 q 144 66 213 -14 q 99 283 76 146 l 174 764 l 324 764 l 249 285 q 269 160 236 204 q 374 117 301 117 q 492 160 444 117 q 553 285 540 204 l 629 764 l 779 764 l 703 283 q 641 125 689 192 q 519 22 593 58 q 351 -14 444 -14 m 488 840 q 369 885 410 840 q 339 1004 328 931 q 406 1123 350 1078 q 540 1168 461 1168 q 659 1123 618 1168 q 689 1004 700 1078 q 622 885 678 931 q 488 840 567 840 m 501 921 q 565 944 539 921 q 597 1004 592 967 q 584 1065 603 1042 q 528 1089 565 1089 q 463 1065 490 1089 q 431 1004 436 1042 q 444 944 425 967 q 501 921 464 921 z "},"ũ":{"ha":833,"x_min":76,"x_max":779,"o":"m 351 -14 q 144 66 213 -14 q 99 283 76 146 l 174 764 l 324 764 l 249 285 q 269 160 236 204 q 374 117 301 117 q 492 160 444 117 q 553 285 540 204 l 629 764 l 779 764 l 703 283 q 641 125 689 192 q 519 22 593 58 q 351 -14 444 -14 m 594 897 q 528 911 553 897 q 489 943 504 925 q 459 976 474 961 q 422 990 444 990 q 372 942 381 990 l 367 904 l 268 904 l 275 947 q 328 1051 285 1013 q 432 1090 371 1090 q 498 1076 474 1090 q 537 1043 522 1061 q 566 1011 551 1025 q 603 997 581 997 q 653 1042 644 997 l 660 1083 l 758 1083 l 751 1039 q 698 935 740 974 q 594 897 656 897 z "},"v":{"ha":833,"x_min":129,"x_max":824,"o":"m 257 0 l 129 764 l 279 764 l 354 275 q 366 188 361 232 q 374 119 371 144 q 402 188 383 144 q 442 275 421 232 l 667 764 l 824 764 l 454 0 l 257 0 z "},"w":{"ha":833,"x_min":96,"x_max":856,"o":"m 96 0 l 99 764 l 222 764 l 213 260 q 210 182 211 225 q 207 113 208 139 q 228 182 215 139 q 251 260 240 225 l 411 764 l 540 764 l 538 260 q 538 182 538 225 q 536 113 538 139 q 557 182 544 139 q 579 260 569 225 l 732 764 l 856 764 l 611 0 l 453 0 l 456 499 q 456 581 456 538 q 457 651 456 625 q 436 581 449 625 q 411 499 424 538 l 256 0 l 96 0 z "},"ẃ":{"ha":833,"x_min":96,"x_max":856,"o":"m 96 0 l 99 764 l 222 764 l 213 260 q 210 182 211 225 q 207 113 208 139 q 228 182 215 139 q 251 260 240 225 l 411 764 l 540 764 l 538 260 q 538 182 538 225 q 536 113 538 139 q 557 182 544 139 q 579 260 569 225 l 732 764 l 856 764 l 611 0 l 453 0 l 456 499 q 456 581 456 538 q 457 651 456 625 q 436 581 449 625 q 411 499 424 538 l 256 0 l 96 0 m 400 896 l 576 1090 l 746 1090 l 558 896 l 400 896 z "},"ŵ":{"ha":833,"x_min":96,"x_max":856,"o":"m 96 0 l 99 764 l 222 764 l 213 260 q 210 182 211 225 q 207 113 208 139 q 228 182 215 139 q 251 260 240 225 l 411 764 l 540 764 l 538 260 q 538 182 538 225 q 536 113 538 139 q 557 182 544 139 q 579 260 569 225 l 732 764 l 856 764 l 611 0 l 453 0 l 456 499 q 456 581 456 538 q 457 651 456 625 q 436 581 449 625 q 411 499 424 538 l 256 0 l 96 0 m 236 896 l 458 1090 l 597 1090 l 758 896 l 610 896 l 517 1001 l 394 896 l 236 896 z "},"ẅ":{"ha":833,"x_min":96,"x_max":856,"o":"m 96 0 l 99 764 l 222 764 l 213 260 q 210 182 211 225 q 207 113 208 139 q 228 182 215 139 q 251 260 240 225 l 411 764 l 540 764 l 538 260 q 538 182 538 225 q 536 113 538 139 q 557 182 544 139 q 579 260 569 225 l 732 764 l 856 764 l 611 0 l 453 0 l 456 499 q 456 581 456 538 q 457 651 456 625 q 436 581 449 625 q 411 499 424 538 l 256 0 l 96 0 m 657 896 q 592 922 614 896 q 576 990 569 947 q 613 1060 583 1035 q 688 1086 643 1086 q 752 1060 731 1086 q 767 990 774 1035 q 731 922 761 947 q 657 896 701 896 m 339 896 q 274 922 296 896 q 258 990 251 947 q 295 1060 265 1035 q 369 1086 325 1086 q 435 1060 413 1086 q 450 990 457 1035 q 413 922 443 947 q 339 896 383 896 z "},"ẁ":{"ha":833,"x_min":96,"x_max":856,"o":"m 96 0 l 99 764 l 222 764 l 213 260 q 210 182 211 225 q 207 113 208 139 q 228 182 215 139 q 251 260 240 225 l 411 764 l 540 764 l 538 260 q 538 182 538 225 q 536 113 538 139 q 557 182 544 139 q 579 260 569 225 l 732 764 l 856 764 l 611 0 l 453 0 l 456 499 q 456 581 456 538 q 457 651 456 625 q 436 581 449 625 q 411 499 424 538 l 256 0 l 96 0 m 443 896 l 313 1090 l 471 1090 l 590 896 l 443 896 z "},"x":{"ha":833,"x_min":3,"x_max":813,"o":"m 3 0 l 329 399 l 142 764 l 310 764 l 407 553 q 432 486 425 514 q 451 517 439 499 q 475 553 463 536 l 638 764 l 813 764 l 508 389 l 708 0 l 539 0 l 432 229 q 416 267 424 246 q 406 300 408 288 q 385 267 397 288 q 360 229 372 246 l 179 0 l 3 0 z "},"y":{"ha":833,"x_min":83,"x_max":775,"o":"m 115 -250 l 136 -121 l 371 -121 q 504 -11 488 -121 l 517 71 l 542 215 l 538 215 q 456 97 515 139 q 310 56 396 56 q 140 128 196 56 q 103 326 83 201 l 174 764 l 324 764 l 256 342 q 278 225 244 267 q 381 183 311 183 q 500 228 451 183 q 560 351 549 272 l 625 764 l 775 764 l 653 -14 q 554 -187 635 -124 q 351 -250 474 -250 l 115 -250 z "},"ý":{"ha":833,"x_min":83,"x_max":775,"o":"m 115 -250 l 136 -121 l 371 -121 q 504 -11 488 -121 l 517 71 l 542 215 l 538 215 q 456 97 515 139 q 310 56 396 56 q 140 128 196 56 q 103 326 83 201 l 174 764 l 324 764 l 256 342 q 278 225 244 267 q 381 183 311 183 q 500 228 451 183 q 560 351 549 272 l 625 764 l 775 764 l 653 -14 q 554 -187 635 -124 q 351 -250 474 -250 l 115 -250 m 400 896 l 576 1090 l 746 1090 l 558 896 l 400 896 z "},"ŷ":{"ha":833,"x_min":83,"x_max":775,"o":"m 115 -250 l 136 -121 l 371 -121 q 504 -11 488 -121 l 517 71 l 542 215 l 538 215 q 456 97 515 139 q 310 56 396 56 q 140 128 196 56 q 103 326 83 201 l 174 764 l 324 764 l 256 342 q 278 225 244 267 q 381 183 311 183 q 500 228 451 183 q 560 351 549 272 l 625 764 l 775 764 l 653 -14 q 554 -187 635 -124 q 351 -250 474 -250 l 115 -250 m 236 896 l 458 1090 l 597 1090 l 758 896 l 610 896 l 517 1001 l 394 896 l 236 896 z "},"ÿ":{"ha":833,"x_min":83,"x_max":775,"o":"m 115 -250 l 136 -121 l 371 -121 q 504 -11 488 -121 l 517 71 l 542 215 l 538 215 q 456 97 515 139 q 310 56 396 56 q 140 128 196 56 q 103 326 83 201 l 174 764 l 324 764 l 256 342 q 278 225 244 267 q 381 183 311 183 q 500 228 451 183 q 560 351 549 272 l 625 764 l 775 764 l 653 -14 q 554 -187 635 -124 q 351 -250 474 -250 l 115 -250 m 657 896 q 592 922 614 896 q 576 990 569 947 q 613 1060 583 1035 q 688 1086 643 1086 q 752 1060 731 1086 q 767 990 774 1035 q 731 922 761 947 q 657 896 701 896 m 339 896 q 274 922 296 896 q 258 990 251 947 q 295 1060 265 1035 q 369 1086 325 1086 q 435 1060 413 1086 q 450 990 457 1035 q 413 922 443 947 q 339 896 383 896 z "},"ỵ":{"ha":833,"x_min":83,"x_max":793,"o":"m 115 -250 l 136 -121 l 371 -121 q 504 -11 488 -121 l 517 71 l 542 215 l 538 215 q 456 97 515 139 q 310 56 396 56 q 140 128 196 56 q 103 326 83 201 l 174 764 l 324 764 l 256 342 q 278 225 244 267 q 381 183 311 183 q 500 228 451 183 q 560 351 549 272 l 625 764 l 775 764 l 653 -14 q 554 -187 635 -124 q 351 -250 474 -250 l 115 -250 m 664 -360 q 590 -335 615 -360 q 572 -265 565 -310 q 613 -197 579 -222 q 694 -171 646 -171 q 769 -197 744 -171 q 785 -265 793 -222 q 747 -335 779 -310 q 664 -360 714 -360 z "},"ỳ":{"ha":833,"x_min":83,"x_max":775,"o":"m 115 -250 l 136 -121 l 371 -121 q 504 -11 488 -121 l 517 71 l 542 215 l 538 215 q 456 97 515 139 q 310 56 396 56 q 140 128 196 56 q 103 326 83 201 l 174 764 l 324 764 l 256 342 q 278 225 244 267 q 381 183 311 183 q 500 228 451 183 q 560 351 549 272 l 625 764 l 775 764 l 653 -14 q 554 -187 635 -124 q 351 -250 474 -250 l 115 -250 m 443 896 l 313 1090 l 471 1090 l 590 896 l 443 896 z "},"ỷ":{"ha":833,"x_min":83,"x_max":775,"o":"m 115 -250 l 136 -121 l 371 -121 q 504 -11 488 -121 l 517 71 l 542 215 l 538 215 q 456 97 515 139 q 310 56 396 56 q 140 128 196 56 q 103 326 83 201 l 174 764 l 324 764 l 256 342 q 278 225 244 267 q 381 183 311 183 q 500 228 451 183 q 560 351 549 272 l 625 764 l 775 764 l 653 -14 q 554 -187 635 -124 q 351 -250 474 -250 l 115 -250 m 425 896 l 507 982 q 533 1025 532 1007 q 500 1051 538 1051 l 393 1051 l 408 1150 l 554 1150 q 641 1121 611 1150 q 664 1042 671 1092 q 625 964 657 999 l 561 896 l 425 896 z "},"ȳ":{"ha":833,"x_min":83,"x_max":775,"o":"m 115 -250 l 136 -121 l 371 -121 q 504 -11 488 -121 l 517 71 l 542 215 l 538 215 q 456 97 515 139 q 310 56 396 56 q 140 128 196 56 q 103 326 83 201 l 174 764 l 324 764 l 256 342 q 278 225 244 267 q 381 183 311 183 q 500 228 451 183 q 560 351 549 272 l 625 764 l 775 764 l 653 -14 q 554 -187 635 -124 q 351 -250 474 -250 l 115 -250 m 271 925 l 290 1043 l 751 1043 l 732 925 l 271 925 z "},"ỹ":{"ha":833,"x_min":83,"x_max":775,"o":"m 115 -250 l 136 -121 l 371 -121 q 504 -11 488 -121 l 517 71 l 542 215 l 538 215 q 456 97 515 139 q 310 56 396 56 q 140 128 196 56 q 103 326 83 201 l 174 764 l 324 764 l 256 342 q 278 225 244 267 q 381 183 311 183 q 500 228 451 183 q 560 351 549 272 l 625 764 l 775 764 l 653 -14 q 554 -187 635 -124 q 351 -250 474 -250 l 115 -250 m 594 897 q 528 911 553 897 q 489 943 504 925 q 459 976 474 961 q 422 990 444 990 q 372 942 381 990 l 367 904 l 268 904 l 275 947 q 328 1051 285 1013 q 432 1090 371 1090 q 498 1076 474 1090 q 537 1043 522 1061 q 566 1011 551 1025 q 603 997 581 997 q 653 1042 644 997 l 660 1083 l 758 1083 l 751 1039 q 698 935 740 974 q 594 897 656 897 z "},"z":{"ha":833,"x_min":56,"x_max":761,"o":"m 56 0 l 78 142 l 563 631 l 168 631 l 189 764 l 761 764 l 739 622 l 249 133 l 676 133 l 656 0 l 56 0 z "},"ź":{"ha":833,"x_min":56,"x_max":761,"o":"m 56 0 l 78 142 l 563 631 l 168 631 l 189 764 l 761 764 l 739 622 l 249 133 l 676 133 l 656 0 l 56 0 m 400 896 l 576 1090 l 746 1090 l 558 896 l 400 896 z "},"ž":{"ha":833,"x_min":56,"x_max":790,"o":"m 56 0 l 78 142 l 563 631 l 168 631 l 189 764 l 761 764 l 739 622 l 249 133 l 676 133 l 656 0 l 56 0 m 429 896 l 268 1090 l 417 1090 l 511 985 l 632 1090 l 790 1090 l 568 896 l 429 896 z "},"ż":{"ha":833,"x_min":56,"x_max":761,"o":"m 56 0 l 78 142 l 563 631 l 168 631 l 189 764 l 761 764 l 739 622 l 249 133 l 676 133 l 656 0 l 56 0 m 497 896 q 424 922 449 896 q 406 990 400 947 q 445 1060 413 1035 q 528 1086 478 1086 q 601 1060 576 1086 q 619 990 626 1035 q 580 922 613 947 q 497 896 547 896 z "},"ª":{"ha":833,"x_min":288,"x_max":679,"o":"m 414 625 q 319 658 351 625 q 296 746 288 690 q 350 832 304 800 q 464 864 396 864 l 582 864 l 588 903 q 572 947 592 931 q 515 964 553 964 q 457 950 482 964 q 426 915 432 936 l 344 915 q 409 998 361 968 q 525 1028 457 1028 q 640 994 600 1028 q 669 903 679 961 l 626 632 l 549 632 l 561 708 l 557 708 q 498 647 536 669 q 414 625 460 625 m 446 685 q 528 708 496 685 q 567 771 560 731 l 567 771 l 572 804 l 456 804 q 403 789 424 804 q 378 746 382 774 q 392 701 374 718 q 446 685 411 685 z "},"º":{"ha":833,"x_min":299,"x_max":672,"o":"m 453 621 q 338 663 378 621 q 310 772 299 706 l 325 871 q 389 981 336 939 q 517 1024 442 1024 q 633 981 593 1024 q 661 871 672 939 l 646 772 q 582 663 635 706 q 453 621 529 621 m 465 689 q 531 712 503 689 q 564 772 558 735 l 579 871 q 566 932 586 908 q 507 956 546 956 q 441 932 468 956 q 407 871 414 908 l 392 772 q 406 712 386 735 q 465 689 426 689 z "},"А":{"ha":833,"x_min":-1,"x_max":714,"o":"m -1 0 l 418 1014 l 615 1014 l 714 0 l 565 0 l 546 257 l 258 257 l 156 0 l -1 0 m 306 382 l 536 382 l 513 674 q 503 808 506 751 q 500 888 500 865 q 473 808 493 865 q 422 675 453 751 l 306 382 z "},"Б":{"ha":833,"x_min":58,"x_max":806,"o":"m 58 0 l 219 1014 l 806 1014 l 783 876 l 344 876 l 301 601 l 460 601 q 683 519 608 601 q 735 301 757 438 q 670 142 721 210 q 542 38 619 75 q 365 0 464 0 l 58 0 m 226 132 l 386 132 q 517 177 464 132 q 582 300 569 222 q 556 424 594 379 q 439 469 518 469 l 281 469 l 226 132 z "},"В":{"ha":833,"x_min":57,"x_max":803,"o":"m 57 0 l 218 1014 l 517 1014 q 731 944 660 1014 q 783 753 803 874 q 716 609 771 667 q 582 535 661 551 q 707 451 665 517 q 732 285 749 386 q 615 77 711 154 q 375 0 519 0 l 57 0 m 296 589 l 447 589 q 571 628 521 589 q 632 738 621 668 q 606 845 643 806 q 496 885 569 885 l 343 885 l 296 589 m 224 129 l 383 129 q 518 173 464 129 q 585 292 572 217 q 556 417 596 369 q 436 464 517 464 l 276 464 l 224 129 z "},"Г":{"ha":833,"x_min":114,"x_max":874,"o":"m 114 0 l 275 1014 l 874 1014 l 851 876 l 403 876 l 264 0 l 114 0 z "},"Ѓ":{"ha":833,"x_min":114,"x_max":874,"o":"m 114 0 l 275 1014 l 874 1014 l 851 876 l 403 876 l 264 0 l 114 0 m 464 1125 l 640 1319 l 810 1319 l 622 1125 l 464 1125 z "},"Ґ":{"ha":833,"x_min":114,"x_max":894,"o":"m 114 0 l 275 1014 l 731 1014 l 751 1146 l 894 1146 l 851 876 l 403 876 l 264 0 l 114 0 z "},"Д":{"ha":833,"x_min":-58,"x_max":807,"o":"m -58 -194 l -7 128 l 49 128 q 94 201 69 156 q 140 306 118 247 q 172 432 161 365 l 275 1014 l 807 1014 l 665 128 l 758 128 l 708 -194 l 572 -194 l 603 0 l 108 0 l 78 -194 l -58 -194 m 201 128 l 519 128 l 640 883 l 394 883 l 317 432 q 263 246 299 328 q 201 128 228 164 z "},"Е":{"ha":833,"x_min":69,"x_max":826,"o":"m 69 0 l 231 1014 l 826 1014 l 806 881 l 357 881 l 311 593 l 711 593 l 690 461 l 290 461 l 239 133 l 686 133 l 665 0 l 69 0 z "},"Ё":{"ha":833,"x_min":69,"x_max":839,"o":"m 69 0 l 231 1014 l 826 1014 l 806 881 l 357 881 l 311 593 l 711 593 l 690 461 l 290 461 l 239 133 l 686 133 l 665 0 l 69 0 m 721 1129 q 655 1154 676 1129 q 640 1222 633 1179 q 677 1292 647 1267 q 751 1318 707 1318 q 817 1292 794 1318 q 831 1222 839 1267 q 794 1154 824 1179 q 721 1129 764 1129 m 403 1129 q 338 1154 360 1129 q 322 1222 315 1179 q 360 1292 329 1267 q 433 1318 390 1318 q 499 1292 478 1318 q 514 1222 521 1267 q 477 1154 507 1179 q 403 1129 447 1129 z "},"Ж":{"ha":833,"x_min":-46,"x_max":904,"o":"m -46 0 l 206 524 l 128 1014 l 267 1014 l 328 560 l 385 560 l 458 1014 l 574 1014 l 501 560 l 554 560 l 760 1014 l 904 1014 l 671 515 l 757 0 l 619 0 l 550 475 l 488 475 l 415 0 l 299 0 l 372 475 l 317 475 l 97 0 l -46 0 z "},"З":{"ha":833,"x_min":40,"x_max":801,"o":"m 343 -14 q 175 22 244 -14 q 73 122 106 58 q 51 272 40 186 l 201 272 q 238 160 194 203 q 364 118 282 118 q 510 165 450 118 q 582 290 571 213 q 549 415 594 368 q 418 463 504 463 l 288 463 l 308 590 l 439 590 q 570 632 517 590 q 635 743 624 674 q 606 853 646 811 q 488 896 565 896 q 353 852 408 896 q 288 738 299 808 l 138 738 q 203 890 151 825 q 334 992 254 956 q 514 1028 414 1028 q 675 994 608 1028 q 772 899 742 960 q 788 756 801 838 q 721 612 774 669 q 589 538 668 554 q 711 454 672 519 q 735 290 750 389 q 666 131 719 199 q 529 24 613 63 q 343 -14 446 -14 z "},"И":{"ha":833,"x_min":51,"x_max":821,"o":"m 51 0 l 213 1014 l 353 1014 l 268 482 q 248 374 260 432 q 224 263 236 317 q 204 171 213 208 l 631 1014 l 821 1014 l 660 0 l 521 0 l 603 524 q 623 633 611 574 q 647 749 635 693 q 669 843 660 804 l 242 0 l 51 0 z "},"Й":{"ha":833,"x_min":51,"x_max":821,"o":"m 51 0 l 213 1014 l 353 1014 l 268 482 q 248 374 260 432 q 224 263 236 317 q 204 171 213 208 l 631 1014 l 821 1014 l 660 0 l 521 0 l 603 524 q 623 633 611 574 q 647 749 635 693 q 669 843 660 804 l 242 0 l 51 0 m 532 1117 q 373 1172 428 1117 q 332 1319 318 1228 l 446 1319 q 466 1239 439 1269 q 544 1208 493 1208 q 633 1239 596 1208 q 678 1319 669 1269 l 796 1319 q 709 1172 782 1228 q 532 1117 636 1117 z "},"К":{"ha":833,"x_min":56,"x_max":872,"o":"m 56 0 l 217 1014 l 367 1014 l 299 592 l 431 592 l 707 1014 l 872 1014 l 553 521 l 724 0 l 560 0 l 415 457 l 278 457 l 206 0 l 56 0 z "},"Ќ":{"ha":833,"x_min":56,"x_max":872,"o":"m 421 1125 l 597 1319 l 767 1319 l 579 1125 l 421 1125 m 56 0 l 217 1014 l 367 1014 l 299 592 l 431 592 l 707 1014 l 872 1014 l 553 521 l 724 0 l 560 0 l 415 457 l 278 457 l 206 0 l 56 0 z "},"Л":{"ha":833,"x_min":-36,"x_max":814,"o":"m -36 -7 l -14 131 l 17 131 q 103 181 69 131 q 156 343 136 231 l 271 1014 l 814 1014 l 653 0 l 503 0 l 642 876 l 397 876 l 306 343 q 3 -7 247 -7 l -36 -7 z "},"М":{"ha":833,"x_min":31,"x_max":842,"o":"m 31 0 l 192 1014 l 374 1014 l 422 689 q 435 601 431 642 q 442 538 439 560 q 465 601 449 560 q 504 690 482 643 l 654 1014 l 842 1014 l 681 0 l 539 0 l 593 342 q 619 488 603 408 q 656 649 636 568 q 693 804 675 731 q 726 933 711 878 l 500 440 l 354 440 l 279 933 q 274 808 278 879 q 263 656 269 736 q 248 494 257 575 q 228 342 239 413 l 174 0 l 31 0 z "},"Н":{"ha":833,"x_min":57,"x_max":815,"o":"m 57 0 l 218 1014 l 368 1014 l 300 594 l 599 594 l 665 1014 l 815 1014 l 654 0 l 504 0 l 576 456 l 279 456 l 207 0 l 57 0 z "},"О":{"ha":833,"x_min":72,"x_max":799,"o":"m 353 -14 q 142 66 211 -14 q 94 282 72 146 l 165 732 q 282 948 188 868 q 518 1028 376 1028 q 729 949 660 1028 q 778 733 799 869 l 707 282 q 590 66 685 146 q 353 -14 494 -14 m 374 119 q 497 161 450 119 q 557 282 544 203 l 628 732 q 607 853 640 811 q 497 894 574 894 q 374 853 421 894 q 315 732 328 811 l 244 282 q 265 161 232 203 q 374 119 299 119 z "},"П":{"ha":833,"x_min":58,"x_max":814,"o":"m 58 0 l 219 1014 l 814 1014 l 653 0 l 503 0 l 642 876 l 347 876 l 208 0 l 58 0 z "},"Р":{"ha":833,"x_min":56,"x_max":846,"o":"m 56 0 l 217 1014 l 549 1014 q 771 931 696 1014 q 824 708 846 847 q 758 547 808 615 q 628 440 707 478 q 453 403 550 403 l 269 403 l 206 0 l 56 0 m 290 538 l 474 538 q 604 584 550 538 q 671 708 658 631 q 644 833 683 786 q 528 879 606 879 l 346 879 l 290 538 z "},"С":{"ha":833,"x_min":72,"x_max":808,"o":"m 358 -14 q 144 66 215 -14 q 94 282 72 146 l 165 732 q 284 949 188 869 q 524 1028 381 1028 q 737 948 665 1028 q 786 732 808 868 l 636 732 q 613 853 649 811 q 503 894 578 894 q 377 853 426 894 q 315 733 328 811 l 244 282 q 267 161 232 203 q 379 119 303 119 q 504 161 456 119 q 565 282 553 203 l 715 282 q 652 125 701 192 q 528 22 603 58 q 358 -14 453 -14 z "},"Т":{"ha":833,"x_min":149,"x_max":864,"o":"m 281 0 l 419 876 l 149 876 l 171 1014 l 864 1014 l 842 876 l 569 876 l 431 0 l 281 0 z "},"У":{"ha":833,"x_min":160,"x_max":875,"o":"m 192 0 l 333 261 l 160 1014 l 319 1014 l 413 543 q 425 458 421 500 q 429 392 429 415 q 451 458 436 415 q 486 543 465 500 l 711 1014 l 875 1014 l 350 0 l 192 0 z "},"Ў":{"ha":833,"x_min":160,"x_max":875,"o":"m 192 0 l 333 261 l 160 1014 l 319 1014 l 413 543 q 425 458 421 500 q 429 392 429 415 q 451 458 436 415 q 486 543 465 500 l 711 1014 l 875 1014 l 350 0 l 192 0 m 532 1117 q 373 1172 428 1117 q 332 1319 318 1228 l 446 1319 q 466 1239 439 1269 q 544 1208 493 1208 q 633 1239 596 1208 q 678 1319 669 1269 l 796 1319 q 709 1172 782 1228 q 532 1117 636 1117 z "},"Ф":{"ha":833,"x_min":39,"x_max":836,"o":"m 285 -35 l 300 63 q 105 143 171 63 q 60 356 39 224 l 111 674 q 172 831 125 764 q 288 935 218 899 q 444 972 357 972 l 460 1069 l 590 1069 l 575 972 q 771 890 706 972 q 814 674 836 808 l 764 356 q 703 202 750 268 q 587 99 657 136 q 431 63 517 63 l 415 -35 l 285 -35 m 321 185 l 428 850 q 307 803 356 850 q 244 674 258 756 l 194 356 q 216 231 182 276 q 321 185 250 185 m 447 185 q 568 231 519 185 q 629 356 617 276 l 679 674 q 659 803 693 756 q 554 850 625 850 l 447 185 z "},"Х":{"ha":833,"x_min":-14,"x_max":869,"o":"m -14 0 l 353 521 l 164 1014 l 328 1014 l 425 738 q 443 685 433 711 q 457 644 453 658 q 480 685 465 658 q 513 738 494 711 l 701 1014 l 869 1014 l 524 519 l 725 0 l 563 0 l 451 300 q 433 353 442 326 q 421 396 424 381 q 395 353 411 381 q 363 301 379 326 l 157 0 l -14 0 z "},"Ч":{"ha":833,"x_min":113,"x_max":813,"o":"m 501 0 l 563 393 q 485 379 538 385 q 381 374 432 374 q 177 441 242 374 q 132 633 113 508 l 194 1014 l 344 1014 l 283 636 q 431 508 263 508 q 521 513 476 508 q 585 526 565 518 l 663 1014 l 813 1014 l 651 0 l 501 0 z "},"Ц":{"ha":833,"x_min":58,"x_max":786,"o":"m 563 -194 l 593 0 l 58 0 l 219 1014 l 369 1014 l 229 136 l 497 136 l 636 1014 l 786 1014 l 647 136 l 751 136 l 699 -194 l 563 -194 z "},"Ш":{"ha":833,"x_min":19,"x_max":854,"o":"m 19 0 l 179 1014 l 313 1014 l 168 108 l 317 108 l 461 1014 l 575 1014 l 431 108 l 579 108 l 722 1014 l 854 1014 l 693 0 l 19 0 z "},"Щ":{"ha":833,"x_min":18,"x_max":831,"o":"m 581 -194 l 611 0 l 18 0 l 179 1014 l 304 1014 l 161 115 l 307 115 l 450 1014 l 560 1014 l 417 115 l 563 115 l 706 1014 l 831 1014 l 688 115 l 761 115 l 713 -194 l 581 -194 z "},"Џ":{"ha":833,"x_min":58,"x_max":814,"o":"m 253 -174 l 281 0 l 58 0 l 219 1014 l 369 1014 l 229 138 l 525 138 l 664 1014 l 814 1014 l 653 0 l 431 0 l 403 -174 l 253 -174 z "},"Ь":{"ha":833,"x_min":58,"x_max":774,"o":"m 58 0 l 219 1014 l 369 1014 l 303 604 l 485 604 q 647 566 581 604 q 744 460 714 528 q 758 301 774 393 q 694 143 744 211 q 565 38 643 75 q 389 0 486 0 l 58 0 m 229 133 l 406 133 q 538 180 483 133 q 606 301 593 226 q 578 424 618 378 q 458 469 538 469 l 282 469 l 229 133 z "},"Ъ":{"ha":833,"x_min":72,"x_max":774,"o":"m 117 0 l 257 885 l 72 885 l 93 1014 l 428 1014 l 361 604 l 485 604 q 647 566 581 604 q 744 460 714 528 q 758 301 774 393 q 694 143 744 211 q 565 38 643 75 q 389 0 486 0 l 117 0 m 288 133 l 406 133 q 538 180 483 133 q 606 301 593 226 q 578 424 618 378 q 458 469 538 469 l 340 469 l 288 133 z "},"Ы":{"ha":833,"x_min":19,"x_max":854,"o":"m 19 0 l 181 1014 l 314 1014 l 247 604 l 299 604 q 485 533 424 604 q 526 339 546 461 l 514 263 q 412 70 494 140 q 203 0 329 0 l 19 0 m 558 0 l 719 1014 l 854 1014 l 693 0 l 558 0 m 172 125 l 224 125 q 328 162 288 125 q 381 264 369 199 l 393 339 q 373 442 403 406 q 279 479 343 479 l 229 479 l 172 125 z "},"Љ":{"ha":833,"x_min":-71,"x_max":825,"o":"m -71 -7 l -51 119 l -25 119 q 39 160 11 119 q 79 274 67 201 l 204 1014 l 615 1014 l 549 604 l 610 604 q 770 542 715 604 q 808 375 825 479 l 785 228 q 694 62 768 124 q 514 0 621 0 l 326 0 l 468 896 l 311 896 l 206 274 q 116 69 183 144 q -44 -7 49 -7 l -71 -7 m 472 119 l 533 119 q 615 149 582 119 q 657 228 649 178 l 681 375 q 664 455 689 425 q 590 485 639 485 l 531 485 l 472 119 z "},"Њ":{"ha":833,"x_min":7,"x_max":826,"o":"m 7 0 l 168 1014 l 296 1014 l 231 608 l 422 608 l 488 1014 l 615 1014 l 550 608 l 610 608 q 772 547 718 608 q 810 379 826 485 l 785 228 q 695 61 768 122 q 514 0 622 0 l 326 0 l 403 489 l 213 489 l 135 0 l 7 0 m 472 119 l 533 119 q 616 148 583 119 q 657 228 649 176 l 681 379 q 665 460 689 431 q 592 489 642 489 l 531 489 l 472 119 z "},"Ѕ":{"ha":833,"x_min":51,"x_max":807,"o":"m 357 -14 q 128 62 204 -14 q 71 268 51 138 l 221 268 q 251 159 210 199 q 379 119 293 119 q 512 158 460 119 q 575 265 564 197 q 559 367 583 325 q 482 426 535 410 l 361 463 q 206 571 256 494 q 171 751 156 647 q 232 897 185 835 q 354 994 279 960 q 524 1029 429 1029 q 735 953 663 1029 q 788 753 807 878 l 638 753 q 613 858 649 819 q 501 896 578 896 q 379 860 426 896 q 324 761 332 825 q 338 659 314 701 q 415 600 361 617 l 539 561 q 692 453 643 529 q 725 271 742 376 q 661 121 711 185 q 533 22 611 57 q 357 -14 454 -14 z "},"Є":{"ha":833,"x_min":75,"x_max":806,"o":"m 358 -14 q 145 66 215 -14 q 96 282 75 146 l 167 732 q 285 949 189 869 q 524 1028 381 1028 q 735 948 665 1028 q 785 732 806 868 l 635 732 q 613 853 647 811 q 504 896 579 896 q 378 853 428 896 q 317 733 329 811 l 293 579 l 597 579 l 576 443 l 272 443 l 246 282 q 268 160 233 203 q 379 118 303 118 q 503 160 456 118 q 564 282 551 203 l 714 282 q 651 125 699 192 q 528 22 603 58 q 358 -14 453 -14 z "},"Э":{"ha":833,"x_min":65,"x_max":797,"o":"m 347 -14 q 135 66 206 -14 q 88 282 65 146 l 238 282 q 259 160 225 203 q 368 118 293 118 q 493 160 444 118 q 554 282 542 203 l 581 443 l 276 443 l 297 579 l 601 579 l 625 733 q 603 853 638 811 q 493 896 569 896 q 369 853 417 896 q 308 732 321 811 l 158 732 q 220 889 172 822 q 343 992 268 956 q 513 1028 418 1028 q 726 949 656 1028 q 775 732 797 869 l 704 282 q 587 66 683 146 q 347 -14 490 -14 z "},"І":{"ha":833,"x_min":75,"x_max":799,"o":"m 75 0 l 96 133 l 301 133 l 419 881 l 214 881 l 236 1014 l 799 1014 l 776 881 l 571 881 l 453 133 l 658 133 l 638 0 l 75 0 z "},"Ї":{"ha":833,"x_min":75,"x_max":813,"o":"m 694 1129 q 628 1154 650 1129 q 614 1222 607 1179 q 651 1292 621 1267 q 725 1318 681 1318 q 790 1292 768 1318 q 804 1222 813 1267 q 767 1154 797 1179 q 694 1129 738 1129 m 376 1129 q 311 1154 333 1129 q 296 1222 289 1179 q 333 1292 303 1267 q 407 1318 364 1318 q 473 1292 451 1318 q 488 1222 494 1267 q 451 1154 481 1179 q 376 1129 421 1129 m 75 0 l 96 133 l 301 133 l 419 881 l 214 881 l 236 1014 l 799 1014 l 776 881 l 571 881 l 453 133 l 658 133 l 638 0 l 75 0 z "},"Ј":{"ha":833,"x_min":15,"x_max":799,"o":"m 311 -14 q 88 69 161 -14 q 38 296 15 153 l 188 296 q 213 165 174 213 q 332 118 251 118 q 467 165 414 118 q 533 296 521 211 l 626 878 l 342 878 l 364 1014 l 799 1014 l 683 296 q 563 67 660 147 q 311 -14 465 -14 z "},"Ћ":{"ha":833,"x_min":78,"x_max":785,"o":"m 88 0 l 226 879 l 78 879 l 100 1014 l 561 1014 l 539 879 l 376 879 l 326 560 l 351 582 q 583 688 467 688 q 735 617 685 688 q 767 428 785 546 l 699 0 l 549 0 l 613 407 q 526 560 638 560 q 371 482 456 560 l 304 422 l 238 0 l 88 0 z "},"Ю":{"ha":833,"x_min":14,"x_max":861,"o":"m 478 -14 q 322 56 372 -14 q 292 246 272 126 l 325 460 l 218 460 l 146 0 l 14 0 l 175 1014 l 307 1014 l 239 582 l 344 582 l 374 768 q 465 958 393 889 q 643 1028 538 1028 q 808 958 754 1028 q 843 768 861 888 l 760 246 q 665 56 742 126 q 478 -14 589 -14 m 497 108 q 583 143 550 108 q 628 242 617 178 l 711 772 q 699 871 722 836 q 624 906 676 906 q 539 871 572 906 q 494 772 506 836 l 411 242 q 423 143 400 178 q 497 108 446 108 z "},"Я":{"ha":833,"x_min":8,"x_max":814,"o":"m 8 0 l 283 435 q 158 538 199 463 q 133 717 117 614 q 197 874 147 807 q 325 977 247 940 q 499 1014 403 1014 l 814 1014 l 653 0 l 503 0 l 569 417 l 426 417 l 172 0 l 8 0 m 424 549 l 590 549 l 643 882 l 476 882 q 351 836 403 882 q 286 714 299 790 q 311 594 274 639 q 424 549 349 549 z "},"Ђ":{"ha":833,"x_min":78,"x_max":785,"o":"m 271 -250 l 293 -110 l 386 -110 q 498 -72 453 -110 q 553 32 543 -35 l 613 407 q 526 560 638 560 q 371 482 456 560 l 304 422 l 238 0 l 88 0 l 226 879 l 78 879 l 100 1014 l 561 1014 l 539 879 l 376 879 l 326 560 l 351 582 q 583 688 467 688 q 735 617 685 688 q 767 428 785 546 l 703 25 q 642 -119 689 -57 q 522 -216 594 -182 q 360 -250 449 -250 l 271 -250 z "},"Ғ":{"ha":833,"x_min":51,"x_max":874,"o":"m 114 0 l 183 444 l 51 444 l 71 574 l 204 574 l 275 1014 l 874 1014 l 851 876 l 403 876 l 354 574 l 561 574 l 542 444 l 333 444 l 264 0 l 114 0 z "},"Қ":{"ha":833,"x_min":39,"x_max":856,"o":"m 39 0 l 200 1014 l 350 1014 l 282 592 l 414 592 l 690 1014 l 856 1014 l 536 521 l 661 136 l 778 136 l 725 -194 l 593 -194 l 624 0 l 543 0 l 399 457 l 261 457 l 189 0 l 39 0 z "},"Ң":{"ha":833,"x_min":49,"x_max":807,"o":"m 49 0 l 210 1014 l 360 1014 l 293 594 l 590 594 l 657 1014 l 807 1014 l 668 136 l 742 136 l 689 -194 l 557 -194 l 588 0 l 496 0 l 568 456 l 271 456 l 199 0 l 49 0 z "},"Ү":{"ha":833,"x_min":140,"x_max":893,"o":"m 281 0 l 339 374 l 140 1014 l 293 1014 l 411 631 q 428 560 422 593 q 436 510 435 526 q 459 560 443 526 q 497 631 475 593 l 735 1014 l 893 1014 l 489 374 l 431 0 l 281 0 z "},"Ұ":{"ha":833,"x_min":140,"x_max":893,"o":"m 281 0 l 322 264 l 151 264 l 169 374 l 339 374 l 140 1014 l 293 1014 l 411 631 q 428 560 422 593 q 436 510 435 526 q 459 560 443 526 q 497 631 475 593 l 735 1014 l 893 1014 l 489 374 l 660 374 l 642 264 l 472 264 l 431 0 l 281 0 z "},"Ҷ":{"ha":833,"x_min":99,"x_max":799,"o":"m 488 0 l 549 393 q 471 379 524 385 q 367 374 418 374 q 163 441 228 374 q 118 633 99 508 l 181 1014 l 331 1014 l 269 636 q 417 508 249 508 q 507 513 463 508 q 571 526 551 518 l 649 1014 l 799 1014 l 658 136 l 728 136 l 675 -194 l 543 -194 l 574 0 l 488 0 z "},"Һ":{"ha":833,"x_min":21,"x_max":721,"o":"m 332 1014 l 271 621 q 349 635 296 629 q 453 640 401 640 q 656 573 592 640 q 701 381 721 506 l 639 0 l 489 0 l 550 378 q 403 506 571 506 q 313 501 357 506 q 249 488 268 496 l 171 0 l 21 0 l 182 1014 l 332 1014 z "},"Ә":{"ha":833,"x_min":65,"x_max":797,"o":"m 349 -14 q 136 66 207 -14 q 88 282 65 146 l 135 579 l 601 579 l 625 733 q 603 852 638 808 q 493 896 568 896 q 370 852 419 896 q 308 732 321 808 l 158 732 q 221 889 172 822 q 344 992 269 956 q 514 1028 419 1028 q 726 948 656 1028 q 775 732 797 868 l 704 282 q 642 125 690 192 q 518 22 593 58 q 349 -14 443 -14 m 369 118 q 493 162 444 118 q 554 282 542 206 l 581 443 l 263 443 l 238 282 q 260 162 225 206 q 369 118 296 118 z "},"Ө":{"ha":833,"x_min":75,"x_max":797,"o":"m 353 -14 q 142 67 210 -14 q 97 285 75 147 l 167 731 q 282 948 189 868 q 518 1028 375 1028 q 729 948 661 1028 q 775 731 797 868 l 706 285 q 589 67 683 149 q 353 -14 494 -14 m 289 583 l 608 583 l 631 728 q 610 853 643 808 q 499 897 576 897 q 372 853 419 897 q 311 728 324 808 l 289 583 m 374 117 q 499 162 451 117 q 561 288 547 207 l 588 454 l 268 454 l 242 288 q 263 162 229 207 q 374 117 296 117 z "},"а":{"ha":833,"x_min":72,"x_max":778,"o":"m 299 -14 q 128 63 183 -14 q 94 274 72 140 l 128 489 q 229 700 149 622 q 425 778 310 778 q 558 735 510 778 q 604 618 606 692 l 607 618 l 628 764 l 778 764 l 657 0 l 508 0 l 532 146 l 529 146 q 446 28 507 71 q 299 -14 385 -14 m 372 117 q 491 160 443 117 q 551 282 539 203 l 582 482 q 560 603 594 560 q 456 647 526 647 q 336 604 383 647 q 276 482 289 561 l 246 282 q 266 159 233 201 q 372 117 299 117 z "},"б":{"ha":833,"x_min":75,"x_max":785,"o":"m 353 -14 q 144 67 213 -12 q 96 288 75 147 l 151 632 q 292 915 181 815 q 579 1014 403 1014 l 785 1014 l 760 867 l 556 867 q 384 806 449 867 q 301 632 319 746 l 288 540 l 290 540 q 367 649 308 610 q 513 688 425 688 q 689 609 633 688 q 722 393 744 531 l 704 288 q 589 66 683 147 q 353 -14 494 -15 m 374 118 q 495 162 449 118 q 554 288 542 206 l 572 393 q 552 519 585 475 q 444 563 519 563 q 323 519 369 563 q 264 393 276 475 l 246 288 q 267 162 233 206 q 374 118 300 118 z "},"в":{"ha":833,"x_min":57,"x_max":758,"o":"m 57 0 l 178 764 l 514 764 q 696 711 633 764 q 744 569 758 658 q 681 456 733 499 q 553 411 629 414 l 551 404 q 683 351 639 401 q 714 217 726 300 q 616 58 699 117 q 408 0 533 0 l 57 0 m 275 447 l 461 447 q 551 473 517 447 q 594 546 586 499 q 574 617 601 592 q 493 643 547 643 l 306 643 l 275 447 m 224 121 l 422 121 q 522 149 483 121 q 568 231 560 178 q 547 310 576 281 q 456 339 517 339 l 258 339 l 224 121 z "},"г":{"ha":833,"x_min":60,"x_max":754,"o":"m 385 -14 l 326 -14 q 122 48 185 -14 q 76 219 60 110 q 163 374 93 321 q 364 446 232 426 l 467 461 q 553 491 525 469 q 590 554 582 513 q 571 626 597 601 q 479 651 544 651 l 426 651 q 340 631 374 651 q 293 575 306 610 l 143 575 q 248 722 167 667 q 447 778 329 778 l 500 778 q 695 719 636 778 q 738 556 754 660 q 656 405 722 456 q 465 336 589 354 l 364 322 q 225 215 239 303 q 247 141 218 169 q 346 113 276 113 l 404 113 q 500 136 461 113 q 551 199 539 160 l 701 199 q 594 44 679 101 q 385 -14 510 -14 z "},"ѓ":{"ha":833,"x_min":60,"x_max":788,"o":"m 385 -14 l 326 -14 q 122 48 185 -14 q 76 219 60 110 q 163 374 93 321 q 364 446 232 426 l 467 461 q 553 491 525 469 q 590 554 582 513 q 571 626 597 601 q 479 651 544 651 l 426 651 q 340 631 374 651 q 293 575 306 610 l 143 575 q 248 722 167 667 q 447 778 329 778 l 500 778 q 695 719 636 778 q 738 556 754 660 q 656 405 722 456 q 465 336 589 354 l 364 322 q 225 215 239 303 q 247 141 218 169 q 346 113 276 113 l 404 113 q 500 136 461 113 q 551 199 539 160 l 701 199 q 594 44 679 101 q 385 -14 510 -14 m 442 896 l 618 1090 l 788 1090 l 600 896 l 442 896 z "},"ґ":{"ha":833,"x_min":114,"x_max":817,"o":"m 114 0 l 235 764 l 650 764 l 674 910 l 817 910 l 771 626 l 363 626 l 264 0 l 114 0 z "},"д":{"ha":833,"x_min":75,"x_max":788,"o":"m 353 -14 q 143 66 211 -15 q 97 288 75 147 l 113 393 q 215 609 135 531 q 415 688 294 688 q 549 649 503 688 q 592 540 594 610 l 594 540 l 608 632 q 581 806 626 746 q 431 867 536 867 l 225 867 l 247 1014 l 451 1014 q 708 915 629 1014 q 758 632 788 815 l 706 288 q 589 67 683 147 q 353 -14 494 -12 m 374 118 q 494 162 447 118 q 556 288 542 206 l 571 393 q 551 519 585 475 q 443 563 518 563 q 323 519 369 563 q 263 393 276 475 l 247 288 q 266 162 233 206 q 374 118 299 118 z "},"е":{"ha":833,"x_min":74,"x_max":760,"o":"m 353 -14 q 143 67 213 -14 q 94 282 74 149 l 125 482 q 188 638 140 571 q 311 741 236 704 q 479 778 386 778 q 690 697 619 778 q 738 482 760 615 l 717 346 l 250 346 l 239 282 q 374 108 211 108 q 540 199 504 108 l 689 199 q 567 44 658 101 q 353 -14 475 -14 m 271 482 l 265 447 l 588 449 l 593 483 q 573 613 606 568 q 461 658 540 658 q 333 613 381 658 q 271 482 285 567 z "},"ё":{"ha":833,"x_min":74,"x_max":774,"o":"m 657 896 q 592 922 614 896 q 576 990 569 947 q 613 1060 583 1035 q 688 1086 643 1086 q 752 1060 731 1086 q 767 990 774 1035 q 731 922 761 947 q 657 896 701 896 m 339 896 q 274 922 296 896 q 258 990 251 947 q 295 1060 265 1035 q 369 1086 325 1086 q 435 1060 413 1086 q 450 990 457 1035 q 413 922 443 947 q 339 896 383 896 m 353 -14 q 143 67 213 -14 q 94 282 74 149 l 125 482 q 188 638 140 571 q 311 741 236 704 q 479 778 386 778 q 690 697 619 778 q 738 482 760 615 l 717 346 l 250 346 l 239 282 q 374 108 211 108 q 540 199 504 108 l 689 199 q 567 44 658 101 q 353 -14 475 -14 m 271 482 l 265 447 l 588 449 l 593 483 q 573 613 606 568 q 461 658 540 658 q 333 613 381 658 q 271 482 285 567 z "},"ж":{"ha":833,"x_min":-42,"x_max":864,"o":"m -42 0 l 181 396 l 90 764 l 225 764 l 299 429 l 365 429 l 418 764 l 535 764 l 482 429 l 539 429 l 726 764 l 864 764 l 656 392 l 754 0 l 617 0 l 536 350 l 469 350 l 414 0 l 297 0 l 353 350 l 292 350 l 101 0 l -42 0 z "},"з":{"ha":833,"x_min":51,"x_max":760,"o":"m 317 -10 q 123 45 194 -10 q 51 193 51 100 l 204 193 q 244 138 208 158 q 338 117 279 117 l 407 117 q 508 146 468 117 q 554 222 547 175 q 532 300 561 271 q 440 329 503 329 l 268 329 l 289 451 l 454 451 q 547 478 513 451 q 589 551 582 506 q 569 622 596 597 q 486 647 543 647 l 419 647 q 326 624 367 647 q 271 567 285 601 l 118 567 q 235 716 147 658 q 438 774 322 774 l 506 774 q 697 717 633 774 q 744 564 760 661 q 678 447 733 492 q 540 400 624 403 q 679 347 638 394 q 707 214 721 299 q 604 51 692 111 q 386 -10 517 -10 l 317 -10 z "},"и":{"ha":833,"x_min":75,"x_max":778,"o":"m 301 -14 q 131 59 188 -14 q 94 257 75 132 l 175 764 l 325 764 l 247 272 q 269 156 236 197 q 372 114 303 114 q 491 158 443 114 q 551 282 539 203 l 628 764 l 778 764 l 657 0 l 508 0 l 532 146 l 529 146 q 447 28 507 69 q 301 -14 388 -14 z "},"й":{"ha":833,"x_min":75,"x_max":778,"o":"m 301 -14 q 131 59 188 -14 q 94 257 75 132 l 175 764 l 325 764 l 247 272 q 269 156 236 197 q 372 114 303 114 q 491 158 443 114 q 551 282 539 203 l 628 764 l 778 764 l 657 0 l 508 0 l 532 146 l 529 146 q 447 28 507 69 q 301 -14 388 -14 m 497 888 q 338 943 393 888 q 297 1090 283 999 l 411 1090 q 431 1010 404 1040 q 510 979 458 979 q 599 1010 563 979 q 643 1090 635 1040 l 763 1090 q 675 943 749 999 q 497 888 601 888 z "},"к":{"ha":833,"x_min":63,"x_max":828,"o":"m 63 0 l 183 764 l 333 764 l 285 457 l 403 457 l 656 764 l 828 764 l 526 392 l 711 0 l 542 0 l 390 328 l 264 328 l 213 0 l 63 0 z "},"ќ":{"ha":833,"x_min":63,"x_max":828,"o":"m 63 0 l 183 764 l 333 764 l 285 457 l 403 457 l 656 764 l 828 764 l 526 392 l 711 0 l 542 0 l 390 328 l 264 328 l 213 0 l 63 0 m 400 896 l 576 1090 l 746 1090 l 558 896 l 400 896 z "},"л":{"ha":833,"x_min":-29,"x_max":774,"o":"m -29 -7 l -7 131 l 24 131 q 110 175 79 131 q 161 325 142 219 l 239 764 l 774 764 l 653 0 l 503 0 l 603 626 l 364 626 l 308 317 q 206 72 279 150 q 10 -7 132 -7 l -29 -7 z "},"м":{"ha":833,"x_min":31,"x_max":801,"o":"m 31 0 l 151 764 l 338 764 l 389 474 q 402 385 397 428 q 408 321 407 343 q 433 385 415 343 q 472 475 450 428 l 610 764 l 801 764 l 681 0 l 539 0 l 558 125 q 579 251 567 182 q 606 390 592 319 q 633 526 619 461 q 657 640 647 590 l 465 225 l 321 225 l 257 638 q 240 488 251 576 q 217 304 229 400 q 192 125 204 208 l 172 0 l 31 0 z "},"н":{"ha":833,"x_min":58,"x_max":774,"o":"m 58 0 l 179 764 l 329 764 l 281 457 l 576 457 l 624 764 l 774 764 l 653 0 l 503 0 l 554 319 l 258 319 l 208 0 l 58 0 z "},"о":{"ha":833,"x_min":72,"x_max":760,"o":"m 353 -14 q 142 66 211 -14 q 94 282 72 146 l 125 482 q 242 698 147 618 q 479 778 338 778 q 690 699 621 778 q 739 483 760 619 l 707 282 q 590 66 685 146 q 353 -14 494 -14 m 374 118 q 496 160 449 118 q 557 282 543 201 l 588 482 q 567 604 600 563 q 458 646 533 646 q 336 604 383 646 q 275 482 289 563 l 244 282 q 265 160 232 201 q 374 118 299 118 z "},"п":{"ha":833,"x_min":58,"x_max":774,"o":"m 58 0 l 179 764 l 774 764 l 653 0 l 503 0 l 603 626 l 307 626 l 208 0 l 58 0 z "}}}
